<svg id="Layer_1" data-name="Layer 1" xmlns="http://www.w3.org/2000/svg" viewBox="0 0 599 558"><defs><style>.cls-1{fill:#ebebeb;}.cls-2{fill:#e0e0e0;}.cls-3{fill:#e6e6e6;}.cls-4{fill:#f0f0f0;}.cls-5{fill:#f5f5f5;}.cls-10,.cls-12,.cls-13,.cls-16,.cls-6{fill:#fff;}.cls-7{fill:#fafafa;}.cls-8{fill:#263238;}.cls-14,.cls-17,.cls-18,.cls-9{fill:#407bff;}.cls-10,.cls-11{opacity:0.2;}.cls-10,.cls-11,.cls-12,.cls-13,.cls-14,.cls-15,.cls-16,.cls-17,.cls-18{isolation:isolate;}.cls-12{opacity:0.1;}.cls-13{opacity:0.6;}.cls-14{opacity:0.5;}.cls-15,.cls-16{opacity:0.4;}.cls-17{opacity:0.7;}.cls-18,.cls-21{opacity:0.3;}.cls-19{fill:#ebb376;}.cls-20{fill:#d58745;}</style></defs><g id="freepik--background-complete--inject-38"><rect class="cls-1" x="30.39" y="459.5" width="631.11" height="0.32"/><rect class="cls-1" x="556.46" y="479.8" width="41.8" height="0.32"/><rect class="cls-1" x="437.5" y="483.24" width="10.97" height="0.32"/><rect class="cls-1" x="530.97" y="468.09" width="24.22" height="0.32"/><rect class="cls-1" x="96.61" y="470.21" width="54.51" height="0.32"/><rect class="cls-1" x="162.37" y="470.21" width="7.99" height="0.32"/><rect class="cls-1" x="196.34" y="475.54" width="118.24" height="0.32"/><path class="cls-1" d="M329.54,403.2H85.82a7.21,7.21,0,0,1-7.2-7.21V53.39a7.21,7.21,0,0,1,7.2-7.14H329.54a7.2,7.2,0,0,1,7.21,7.2h0V396A7.21,7.21,0,0,1,329.54,403.2ZM85.82,46.5a6.89,6.89,0,0,0-6.88,6.89V396a6.9,6.9,0,0,0,6.88,6.9H329.54a6.91,6.91,0,0,0,6.89-6.9V53.39a6.91,6.91,0,0,0-6.89-6.89Z"/><path class="cls-1" d="M602.57,403.2H358.83a7.22,7.22,0,0,1-7.2-7.21V53.39a7.21,7.21,0,0,1,7.2-7.14H602.57a7.21,7.21,0,0,1,7.18,7.14V396A7.21,7.21,0,0,1,602.57,403.2ZM358.83,46.5a6.91,6.91,0,0,0-6.89,6.89V396a6.91,6.91,0,0,0,6.89,6.9H602.57a6.91,6.91,0,0,0,6.89-6.9V53.39a6.91,6.91,0,0,0-6.89-6.89Z"/><polygon class="cls-2" points="180.52 378.7 180.52 396.63 172.95 402.13 208.29 402.13 197.01 397.94 197.01 379.95 180.52 378.7"/><path class="cls-2" d="M118.08,401.61v56.46H275.86V401.61ZM273,423.72H149.52V405.27H273Z"/><path class="cls-1" d="M145.72,401.61v56.46H275.86V401.61ZM273,423.72H149.52V405.27H273Z"/><rect class="cls-2" x="247.56" y="405.27" width="25.46" height="18.45"/><rect class="cls-2" x="149.52" y="414.5" width="31.49" height="9.23"/><rect class="cls-2" x="183.34" y="418.23" width="23.7" height="5.48"/><rect class="cls-2" x="212.52" y="412.52" width="22.58" height="11.21"/><polygon class="cls-2" points="171.9 427.74 171.23 429.95 162.17 429.95 161.49 427.74 149.52 427.74 149.52 452.24 189.24 452.24 189.24 427.74 171.9 427.74"/><polygon class="cls-2" points="219.11 427.74 218.43 429.95 209.36 429.95 208.68 427.74 191.35 427.74 191.35 452.24 231.07 452.24 231.07 427.74 219.11 427.74"/><polygon class="cls-2" points="255.56 427.74 254.89 429.95 245.83 429.95 245.15 427.74 233.18 427.74 233.18 452.24 272.9 452.24 272.9 427.74 255.56 427.74"/><rect class="cls-2" x="130.95" y="313.1" width="126.28" height="76.3" rx="4.46"/><rect class="cls-3" x="133.92" y="313.1" width="126.28" height="76.3" rx="4.46"/><rect class="cls-4" x="137.63" y="316.82" width="118.86" height="68.89"/><path class="cls-3" d="M422.78,306.49h113A22.19,22.19,0,0,1,558,328.67h0v88.25H400.59V328.68a22.19,22.19,0,0,1,22.19-22.19Z"/><path class="cls-2" d="M367.18,371.9h20.19a13.18,13.18,0,0,1,13.19,13.19h0v73H354v-73a13.18,13.18,0,0,1,13.19-13.19Z"/><path class="cls-1" d="M367.18,371.9h.41a13.18,13.18,0,0,1,13.19,13.19h0v73H354v-73a13.18,13.18,0,0,1,13.19-13.19Z"/><rect class="cls-3" x="386.43" y="424.55" width="155.1" height="33.52"/><rect class="cls-5" x="372.81" y="393.89" width="176.39" height="35.18" rx="13.4"/><rect class="cls-2" x="503.58" y="393.89" width="45.38" height="35.18" rx="13.4"/><path class="cls-2" d="M537.54,371.9h20.19a13.18,13.18,0,0,1,13.19,13.19h0v73H524.35v-73a13.18,13.18,0,0,1,13.19-13.19Z"/><path class="cls-4" d="M537.54,371.9H538a13.19,13.19,0,0,1,13.19,13.19h0v73H524.35v-73a13.18,13.18,0,0,1,13.19-13.19Z"/><rect class="cls-1" x="416.72" y="111.1" width="149.74" height="154.72"/><rect class="cls-4" x="411.48" y="111.1" width="149.74" height="154.72"/><rect class="cls-2" x="415.44" y="114.76" width="142" height="147.46"/><rect class="cls-5" x="418.99" y="114.76" width="138.45" height="147.46"/><rect class="cls-1" x="486.78" y="114.77" width="2.81" height="147.46"/><polygon class="cls-6" points="470.65 114.76 431.2 262.23 427.41 262.23 466.87 114.76 470.65 114.76"/><rect class="cls-4" x="485.59" y="112.49" width="2.41" height="152.56"/><polygon class="cls-6" points="456.33 114.76 418.99 254.31 418.99 177.61 435.8 114.76 456.33 114.76"/><polygon class="cls-6" points="557.44 128.14 557.44 142.3 525.35 262.23 521.56 262.23 557.44 128.14"/><polygon class="cls-6" points="557.44 156.73 557.44 233.43 549.74 262.23 529.22 262.23 557.44 156.73"/><rect class="cls-3" x="153.66" y="119.92" width="90.66" height="110.32"/><polygon class="cls-2" points="174.41 202.91 222.05 156.09 170.51 147.58 174.41 202.91"/><polygon class="cls-4" points="220.9 191.81 223.26 155.9 187.39 164.71 184.79 192.18 220.9 191.81"/><circle class="cls-7" cx="173.97" cy="141.29" r="14.48"/><path class="cls-2" d="M216.22,204.6a7,7,0,1,1,7,7h0a7,7,0,0,1-7-7Z"/><polygon class="cls-5" points="221.57 216.95 201.3 204.6 218.34 190.57 221.57 216.95"/><rect class="cls-2" x="193.64" y="133.95" width="3.99" height="88.09"/><rect class="cls-1" x="230.66" y="133.95" width="5.16" height="84.19"/><rect class="cls-1" x="162.76" y="192.18" width="26.35" height="26.36"/></g><g id="freepik--Shadow--inject-38"><ellipse id="freepik--path--inject-38" class="cls-5" cx="345.95" cy="502.21" rx="244.73" ry="14.29"/></g><g id="freepik--Device--inject-38"><path class="cls-8" d="M282,274.71H545a5.39,5.39,0,0,1,5.39,5.39V470.35H276.64V280.15a5.39,5.39,0,0,1,5.34-5.44Z"/><rect class="cls-9" x="282.03" y="286.84" width="262.99" height="168.09"/><circle class="cls-10" cx="411.13" cy="281.27" r="2.63"/><circle class="cls-10" cx="416.57" cy="281.27" r="1.97"/><path class="cls-10" d="M414.6,458.37a3.6,3.6,0,0,0-1.07-.19,3.45,3.45,0,1,0,3.44,3.45.61.61,0,0,0,0-.19A3.43,3.43,0,0,1,414.6,458.37Z"/><path class="cls-8" d="M570.82,467.67v2.53a3.65,3.65,0,0,1-2.6,3.48l-19.06,5.58a25.31,25.31,0,0,1-7.29,1.06H285.21a25.25,25.25,0,0,1-7.28-1.06l-19.08-5.63a3.65,3.65,0,0,1-2.61-3.48v-2.53Z"/><path class="cls-10" d="M570.82,467.67v2.53a3.65,3.65,0,0,1-2.6,3.48l-19.06,5.58a25.31,25.31,0,0,1-7.29,1.06H285.21a25.25,25.25,0,0,1-7.28-1.06l-19.08-5.63a3.65,3.65,0,0,1-2.61-3.48v-2.53Z"/><path class="cls-10" d="M570.82,467.67v2.53a3.65,3.65,0,0,1-.51,1.85H256.76a3.57,3.57,0,0,1-.52-1.85v-2.53Z"/><path class="cls-11" d="M435.66,467.67v1.09a1.07,1.07,0,0,1-1.07,1.07H392.48a1.06,1.06,0,0,1-1.08-1.06h0v-1.09Z"/><path class="cls-12" d="M545,286.84S508.66,431.22,282,454.93V286.84Z"/></g><g id="freepik--window-3--inject-38"><path class="cls-9" d="M520.13,221v158.1L493.8,405.46H389.7a4.07,4.07,0,0,1-4.06-4.06V221A4.08,4.08,0,0,1,389.7,217H516a4.07,4.07,0,0,1,4.09,4Z"/><path class="cls-13" d="M520.13,227.93v151.2L493.8,405.46H389.7a4.07,4.07,0,0,1-4.06-4.06V227.93Z"/><path class="cls-13" d="M516.6,222a2,2,0,1,1-2-2h0a2,2,0,0,1,2,1.94Z"/><path class="cls-13" d="M509.1,222a2,2,0,1,1-2-2h0a1.94,1.94,0,0,1,2,1.93Z"/><path class="cls-13" d="M501.62,222a2,2,0,1,1-2-2h0A2,2,0,0,1,501.62,222Z"/><path class="cls-9" d="M467.37,240.11H395.3a1.26,1.26,0,1,1,0-2.52h72.07a1.26,1.26,0,1,1,0,2.52Z"/><path class="cls-9" d="M447,247H395.25a1.26,1.26,0,0,1,0-2.52H447a1.26,1.26,0,0,1,0,2.52Z"/><path class="cls-9" d="M502.88,353.62H410.74a1.26,1.26,0,1,1,0-2.52h92.14a1.26,1.26,0,0,1,0,2.52Z"/><path class="cls-9" d="M487.47,381.2H395.32a1.26,1.26,0,0,1,0-2.52h92.15a1.26,1.26,0,0,1,0,2.52Z"/><path class="cls-9" d="M502.88,360.54H395.3a1.27,1.27,0,0,1,0-2.53H502.88a1.27,1.27,0,0,1,0,2.53Z"/><path class="cls-9" d="M502.88,367.42H395.3a1.27,1.27,0,0,1,0-2.53H502.88a1.27,1.27,0,0,1,0,2.53Z"/><path class="cls-9" d="M502.88,374.31H395.3a1.27,1.27,0,0,1,0-2.53H502.88a1.27,1.27,0,0,1,0,2.53Z"/><polygon class="cls-14" points="520.11 379.13 493.78 405.46 493.78 379.13 520.11 379.13"/><rect class="cls-15" x="512.67" y="227.93" width="7.43" height="151.2"/><path class="cls-9" d="M516.35,306.93h0a2.73,2.73,0,0,1-2.74-2.74h0V288.74a2.74,2.74,0,0,1,2.74-2.67h0a2.73,2.73,0,0,1,2.73,2.74h0v15.45A2.73,2.73,0,0,1,516.35,306.93Z"/><path class="cls-9" d="M502.88,315.76H410.74a1.27,1.27,0,1,1,0-2.53h92.14a1.27,1.27,0,0,1,0,2.53Z"/><path class="cls-9" d="M487.47,343.33H395.32a1.26,1.26,0,0,1,0-2.52h92.15a1.26,1.26,0,0,1,0,2.52Z"/><path class="cls-9" d="M502.88,322.67H395.3a1.26,1.26,0,1,1,0-2.52H502.88a1.26,1.26,0,0,1,0,2.52Z"/><path class="cls-9" d="M502.88,329.55H395.3a1.26,1.26,0,1,1,0-2.52H502.88a1.26,1.26,0,0,1,0,2.52Z"/><path class="cls-9" d="M502.88,336.44H395.3a1.26,1.26,0,0,1,0-2.52H502.88a1.26,1.26,0,0,1,0,2.52Z"/><rect class="cls-9" x="394.97" y="255.23" width="107.89" height="40.26"/><polygon class="cls-11" points="394.97 289.03 397.91 289.03 397.91 281.71 401.3 281.71 401.3 267.26 406.02 267.26 406.02 276.16 412.5 276.16 412.5 287.99 420.24 287.99 420.24 279.74 426.64 279.74 430.87 275.5 430.87 265.7 433.46 265.7 433.46 279.74 439.97 279.74 439.97 284.74 446.71 284.74 446.71 259.25 448.58 257.38 448.58 264.37 452.88 264.37 452.88 267.51 457.01 271.65 457.01 279.11 462.94 279.11 462.94 273.21 478.42 273.21 478.42 268.8 481.91 268.8 481.91 261.1 483.16 261.1 483.16 273.21 485.13 273.21 489.59 268.75 493.78 268.75 493.78 264.72 495.9 264.72 495.9 268.8 498.64 268.8 498.64 285.49 501.62 285.49 501.62 277.16 502.88 277.23 502.88 255.23 394.97 255.23 394.97 289.03"/><path class="cls-9" d="M502.88,301.87h-29a1.26,1.26,0,1,1,0-2.52h29a1.26,1.26,0,0,1,0,2.52Z"/><path class="cls-11" d="M437.71,217V347.63l-19.82,19.86H385.64V221.08A4.08,4.08,0,0,1,389.7,217Z"/><path class="cls-16" d="M516.35,306.93h0a2.73,2.73,0,0,1-2.74-2.74h0V288.74a2.74,2.74,0,0,1,2.74-2.67h0a2.73,2.73,0,0,1,2.73,2.74h0v15.45A2.73,2.73,0,0,1,516.35,306.93Z"/></g><g id="freepik--window-1--inject-38"><path class="cls-9" d="M360.77,240.73v158.1l-26.33,26.33H230.35a4.05,4.05,0,0,1-4-4.06V240.73a4.07,4.07,0,0,1,4-4.07H356.7a4.07,4.07,0,0,1,4.07,4.07Z"/><path class="cls-13" d="M360.77,247.65v151.2l-26.33,26.33H230.35a4.07,4.07,0,0,1-4-4.07V247.65Z"/><path class="cls-13" d="M357.31,241.7a2,2,0,1,1-2-2h0a2,2,0,0,1,2,1.95Z"/><path class="cls-13" d="M349.73,241.7a2,2,0,1,1-2-2h0a1.94,1.94,0,0,1,2,1.94Z"/><path class="cls-13" d="M342.27,241.7a2,2,0,1,1-2-2h0a2,2,0,0,1,2,1.95Z"/><path class="cls-9" d="M258.35,260.51H236a1.27,1.27,0,0,1,0-2.53h22.39a1.27,1.27,0,0,1,0,2.53Z"/><path class="cls-9" d="M269,267.4H236a1.26,1.26,0,0,1,0-2.52H269a1.26,1.26,0,0,1,0,2.52Z"/><path class="cls-9" d="M258.72,274.29H236a1.26,1.26,0,1,1,0-2.52h22.72a1.26,1.26,0,0,1,0,2.52Z"/><path class="cls-9" d="M343.52,387.22H251.38a1.26,1.26,0,1,1,0-2.52h92.14a1.26,1.26,0,1,1,0,2.52Z"/><path class="cls-9" d="M293,394.11H236a1.26,1.26,0,0,1,0-2.52H293a1.26,1.26,0,1,1,0,2.52Z"/><polygon class="cls-14" points="360.76 398.85 334.44 425.18 334.44 398.85 360.76 398.85"/><rect class="cls-15" x="353.33" y="247.65" width="7.43" height="151.2"/><path class="cls-9" d="M357,388.5h0a2.74,2.74,0,0,1-2.74-2.74h0V370.31a2.74,2.74,0,0,1,2.74-2.74h0a2.74,2.74,0,0,1,2.74,2.74h0v15.47A2.74,2.74,0,0,1,357,388.5Z"/><path class="cls-9" d="M343.52,260.51H326.19a1.27,1.27,0,0,1,0-2.53h17.33a1.27,1.27,0,1,1,0,2.53Z"/><path class="cls-9" d="M343.52,267.4h-8.93a1.26,1.26,0,1,1,0-2.52h9a1.26,1.26,0,1,1,0,2.52Z"/><path class="cls-9" d="M343.52,292.56H251.38a1.27,1.27,0,0,1,0-2.53h92.14a1.27,1.27,0,1,1,0,2.53Z"/><path class="cls-9" d="M343.52,299.45H236a1.27,1.27,0,0,1,0-2.53H343.52a1.27,1.27,0,1,1,0,2.53Z"/><path class="cls-9" d="M280.41,306.34H236a1.27,1.27,0,0,1,0-2.53h44.45a1.27,1.27,0,0,1,0,2.53Z"/><rect class="cls-17" x="253.81" y="315.49" width="42.39" height="11.36"/><rect class="cls-18" x="253.81" y="329.37" width="19.2" height="41.94"/><rect class="cls-18" x="298.7" y="329.37" width="22.05" height="41.94"/><rect class="cls-17" x="298.7" y="315.49" width="44.82" height="11.36"/><rect class="cls-18" x="323.29" y="329.37" width="20.25" height="41.94"/><rect class="cls-14" x="235.96" y="329.37" width="15.32" height="41.94"/><rect class="cls-9" x="235.96" y="315.49" width="15.32" height="11.36"/><rect class="cls-18" x="275.53" y="329.37" width="20.65" height="41.94"/><path class="cls-16" d="M357,388.5h0a2.74,2.74,0,0,1-2.74-2.74h0V370.31a2.74,2.74,0,0,1,2.74-2.74h0a2.74,2.74,0,0,1,2.74,2.74h0v15.47A2.74,2.74,0,0,1,357,388.5Z"/><path class="cls-11" d="M360.77,240.73V372.25H284.62a4.07,4.07,0,0,1-4.06-4.06V236.66H356.7a4.07,4.07,0,0,1,4.07,4.07Z"/></g><g id="freepik--window-2--inject-38"><path class="cls-9" d="M427.62,169.06V327.17L401.29,353.5H297.21a4.07,4.07,0,0,1-4-4.07V169.06a4.05,4.05,0,0,1,4-4.06H423.56a4.06,4.06,0,0,1,4.06,4.06Z"/><path class="cls-13" d="M427.62,176V327.17L401.29,353.5H297.21a4.07,4.07,0,0,1-4-4.07V176Z"/><circle class="cls-13" cx="422.15" cy="170.02" r="1.96"/><circle class="cls-13" cx="414.65" cy="170.02" r="1.96"/><path class="cls-13" d="M409.12,170a2,2,0,1,1-2-2h0a2,2,0,0,1,2,1.93Z"/><path class="cls-9" d="M369.45,188.88H343.74a1.27,1.27,0,0,1,0-2.53h25.71a1.27,1.27,0,0,1,0,2.53Z"/><path class="cls-9" d="M380,195.72H333.2a1.27,1.27,0,0,1,0-2.53H380a1.27,1.27,0,0,1,0,2.53Z"/><path class="cls-9" d="M369.83,202.62H343.42a1.26,1.26,0,0,1,0-2.52h26.51a1.26,1.26,0,0,1,0,2.52Z"/><path class="cls-9" d="M410.38,220.87h-92.2a1.26,1.26,0,0,1,0-2.52h92.14a1.26,1.26,0,0,1,0,2.52Z"/><path class="cls-9" d="M395,248.45H302.83a1.26,1.26,0,0,1,0-2.52H395a1.26,1.26,0,0,1,0,2.52Z"/><path class="cls-9" d="M410.38,227.77H302.8a1.27,1.27,0,0,1,0-2.53H410.38a1.27,1.27,0,1,1,0,2.53Z"/><path class="cls-9" d="M410.38,234.67H302.8a1.26,1.26,0,0,1,0-2.52H410.38a1.26,1.26,0,1,1,0,2.52Z"/><path class="cls-9" d="M410.38,241.56H302.8a1.26,1.26,0,1,1,0-2.52H410.38a1.26,1.26,0,1,1,0,2.52Z"/><path class="cls-9" d="M410.38,290.3h-92.2a1.27,1.27,0,0,1,0-2.53h92.14a1.27,1.27,0,0,1,0,2.53Z"/><path class="cls-9" d="M395,317.88H302.83a1.27,1.27,0,0,1,0-2.53H395a1.27,1.27,0,0,1,0,2.53Z"/><path class="cls-9" d="M410.38,297.19H302.8a1.27,1.27,0,0,1,0-2.53H410.38a1.27,1.27,0,1,1,0,2.53Z"/><path class="cls-9" d="M410.38,304.09H302.8a1.26,1.26,0,0,1,0-2.52H410.38a1.26,1.26,0,1,1,0,2.52Z"/><path class="cls-9" d="M410.38,311H302.8a1.26,1.26,0,0,1,0-2.52H410.38a1.26,1.26,0,1,1,0,2.52Z"/><rect class="cls-9" x="397.47" y="186.05" width="12.91" height="17.19"/><circle class="cls-9" cx="309.97" cy="193.21" r="7.16"/><path class="cls-9" d="M302.4,257.48a1.52,1.52,0,1,0,0-.28A1.31,1.31,0,0,0,302.4,257.48Z"/><path class="cls-9" d="M302.4,264.37a1.52,1.52,0,1,0,1.53-1.5h0a1.5,1.5,0,0,0-1.5,1.5Z"/><path class="cls-9" d="M302.4,271.27a1.51,1.51,0,1,0,0-.27A1.22,1.22,0,0,0,302.4,271.27Z"/><path class="cls-9" d="M302.4,278.17a1.52,1.52,0,1,0,0-.28A1.31,1.31,0,0,0,302.4,278.17Z"/><path class="cls-9" d="M325.55,258.74H309.14a1.26,1.26,0,0,1,0-2.52h16.41a1.26,1.26,0,0,1,0,2.52Z"/><path class="cls-9" d="M341,265.63H309.12a1.26,1.26,0,1,1,0-2.52H341a1.26,1.26,0,1,1,0,2.52Z"/><path class="cls-9" d="M322,272.54H309.12a1.27,1.27,0,1,1,0-2.53H322a1.27,1.27,0,0,1,0,2.53Z"/><path class="cls-9" d="M335.91,279.43H309.12a1.27,1.27,0,1,1,0-2.53h26.79a1.27,1.27,0,0,1,0,2.53Z"/><polygon class="cls-14" points="427.63 327.17 401.3 353.5 401.3 327.17 427.63 327.17"/><polygon class="cls-11" points="410.38 186.05 397.47 203.24 410.38 203.24 410.38 186.05"/><rect class="cls-11" x="305.78" y="189.03" width="8.37" height="8.37"/><rect class="cls-15" x="420.18" y="175.96" width="7.43" height="151.2"/><path class="cls-9" d="M423.9,204.48h0a2.74,2.74,0,0,1-2.74-2.74h0V186.35a2.74,2.74,0,0,1,2.74-2.74h0a2.74,2.74,0,0,1,2.74,2.74h0V201.8A2.74,2.74,0,0,1,423.9,204.48Z"/><path class="cls-16" d="M423.9,204.48h0a2.74,2.74,0,0,1-2.74-2.74h0V186.35a2.74,2.74,0,0,1,2.74-2.74h0a2.74,2.74,0,0,1,2.74,2.74h0V201.8A2.74,2.74,0,0,1,423.9,204.48Z"/></g><g id="freepik--speech-bubble--inject-38"><path class="cls-9" d="M136.2,240.54h44.08a6.4,6.4,0,0,1,6.39,6.4v42.84a6.39,6.39,0,0,1-6.39,6.39h-17.9l1.93,12.91-8.83-12.91H136.2a6.38,6.38,0,0,1-6.38-6.37V246.94a6.38,6.38,0,0,1,6.37-6.4Z"/><path class="cls-13" d="M136.2,240.54h44.08a6.4,6.4,0,0,1,6.39,6.4v42.84a6.39,6.39,0,0,1-6.39,6.39h-17.9l1.93,12.91-8.83-12.91H136.2a6.38,6.38,0,0,1-6.38-6.37V246.94a6.38,6.38,0,0,1,6.37-6.4Z"/><path class="cls-5" d="M154.61,259.45v3.42l1.77.16a8.78,8.78,0,0,0,1.26,3.16l-1.13,1.36,2.41,2.41,1.38-1.12a9.15,9.15,0,0,0,3.16,1.26l.16,1.76H167l.17-1.76a9.23,9.23,0,0,0,3.16-1.26l1.36,1.12,2.41-2.41L173,266.19a9.31,9.31,0,0,0,1.26-3.16l1.76-.16v-3.42l-1.76-.17a9.18,9.18,0,0,0-1.26-3.15l1.12-1.37-2.37-2.42-1.36,1.14a9.31,9.31,0,0,0-3.16-1.26l-.17-1.77h-3.41l-.17,1.77a8.8,8.8,0,0,0-3.15,1.26L159,252.34l-2.35,2.42,1.13,1.37a8.8,8.8,0,0,0-1.26,3.15Zm10.75-2.92a4.64,4.64,0,1,1-4.62,4.65v0A4.63,4.63,0,0,1,165.36,256.53Z"/><path class="cls-5" d="M156.82,284.38a7.3,7.3,0,0,0,2.52-1l1.07.89,1.9-1.9-.89-1.07a7.3,7.3,0,0,0,1-2.52l1.37-.13V276l-1.37-.13a7.22,7.22,0,0,0-1-2.52l.89-1.07-1.9-1.9-1.07.89a6.79,6.79,0,0,0-2.52-1l-.13-1.38H154l-.13,1.38a6.83,6.83,0,0,0-2.53,1l-1.06-.89-1.89,1.9.88,1.07a6.79,6.79,0,0,0-1,2.52l-1.38.13v2.68l1.38.12a7.27,7.27,0,0,0,1,2.53l-.88,1.07,1.89,1.89,1.06-.88a7.44,7.44,0,0,0,2.53,1l.13,1.38h2.68Zm-5-7.05a2.64,2.64,0,1,1-.05.08v-.08Z"/><path class="cls-5" d="M149.85,269.28l.74.9,1.86-1.27-.57-1a5.81,5.81,0,0,0,1.26-1.88l1.17.11.41-2.2-1.12-.33a6.14,6.14,0,0,0-.46-2.2l.9-.74-1.26-1.86-1,.56a5.93,5.93,0,0,0-1.89-1.27l.12-1.16-2.21-.39-.33,1.11a6,6,0,0,0-2.2.47l-.74-.9-1.86,1.27.56,1a6,6,0,0,0-1.26,1.88l-1.16-.1-.42,2.21,1.11.31A5.8,5.8,0,0,0,142,266l-.9.75,1.26,1.85,1-.57a6,6,0,0,0,1.88,1.27l-.1,1.16,2.21.41.31-1.12A6.22,6.22,0,0,0,149.85,269.28Zm-5.31-6.15a3,3,0,1,1,2.43,3.56,3,3,0,0,1-2.43-3.56Z"/></g><g id="freepik--Character--inject-38"><path class="cls-19" d="M208.82,397.29s3.11,27.95,4.11,31.28,15.24,21.13,15.24,21.13l-4,2.11s-15.14-15.58-17.55-20.2-6-28.72-6-28.72Z"/><path class="cls-8" d="M206,384.85c5.24,2.78,7,41.56,7,41.56l2.66,4.08-8.06,5.78a73.19,73.19,0,0,1-5.05-10c-1.6-4.31-5.4-25.62-5.4-25.62Z"/><path class="cls-12" d="M206,384.85c5.24,2.78,7,41.56,7,41.56l2.66,4.08-8.06,5.78a73.19,73.19,0,0,1-5.05-10c-1.6-4.31-5.4-25.62-5.4-25.62Z"/><polygon class="cls-9" points="206.35 436.23 215.59 428.91 217.57 433.06 209.05 439.14 206.35 436.23"/><polygon class="cls-16" points="206.35 436.23 215.59 428.91 217.57 433.06 209.05 439.14 206.35 436.23"/><path class="cls-9" d="M185.33,434.86l9.44,14.93c18.72-4.36,78.71-13.51,86.07,7.08,9.17,25.57-57,46-93.63,47.22s-66-19.6-42.85-73Z"/><path class="cls-11" d="M185.33,434.86l9.44,14.93c18.72-4.36,78.71-13.51,86.07,7.08,9.17,25.57-57,46-93.63,47.22s-66-19.6-42.85-73Z"/><path class="cls-9" d="M270.21,493.07a.24.24,0,0,1-.26,0,.19.19,0,0,1-.06-.23c.11-.41,1.32-3.93,2.52-4.3a.76.76,0,0,1,.73.21,1.26,1.26,0,0,1,.44,1.19,3.3,3.3,0,0,1-1.14,1.65A13.7,13.7,0,0,1,270.21,493.07Zm.32-.68a5.27,5.27,0,0,0,2.61-2.53.8.8,0,0,0-.31-.8.27.27,0,0,0-.29-.09,1.28,1.28,0,0,0-.28.16,10.51,10.51,0,0,0-1.71,3.22Z"/><path class="cls-9" d="M270.21,493.07A.17.17,0,0,1,270,493c-.12-.1-1.81-2.24-1.53-3.68a1.3,1.3,0,0,1,.58-.88.78.78,0,0,1,1-.09c.9.62.78,3.49.36,4.56V493Zm-1-4.18a.91.91,0,0,0-.29.51,5,5,0,0,0,1.13,2.94c.28-1.26.19-3.22-.33-3.59,0,0-.16-.11-.43.08l-.08.06Z"/><path class="cls-9" d="M205.84,499a.24.24,0,0,1,.24-.12.21.21,0,0,1,.17.17c.08.42.73,4.09-.17,5.05a.7.7,0,0,1-.73.16,1.25,1.25,0,0,1-1-.82,3.31,3.31,0,0,1,.2-2A14.48,14.48,0,0,1,205.84,499Zm0,.74a5.32,5.32,0,0,0-1.07,3.46.81.81,0,0,0,.67.56.23.23,0,0,0,.29-.07.74.74,0,0,0,.16-.27,10.34,10.34,0,0,0,0-3.68Z"/><polygon class="cls-19" points="229.84 480.5 214.76 485.86 207.53 488.44 209.39 496.37 216.39 494.86 233.51 491.21 229.84 480.5"/><path class="cls-8" d="M211.36,496.73l-1.27-9.34a.92.92,0,0,0-1.05-.8h0l-4.61.77s-6.31.59-7.57,2.19c-3.65,4.71-1.38,25.44,1.06,26.17.88.26,1.82-1,2.21-1.79,1.26-2.68,3.39-9.66,4.44-11.88,1.26-2.59,4.6-3.85,6.11-4.31A.93.93,0,0,0,211.36,496.73Z"/><path class="cls-9" d="M205.9,499a.24.24,0,0,1,.23,0c.15,0,2.66,1.09,3.12,2.53a1.4,1.4,0,0,1-.09,1.06.78.78,0,0,1-.81.55c-1.07-.11-2.37-2.67-2.52-3.78v-.12A.22.22,0,0,1,205.9,499Zm2.87,3.21a1,1,0,0,0,0-.59c-.29-.89-1.69-1.67-2.41-2,.35,1.19,1.4,2.91,2,3,0,0,.19,0,.33-.26v-.1Z"/><polygon class="cls-11" points="229.84 480.5 214.76 485.86 216.39 494.86 233.51 491.21 229.84 480.5"/><polygon class="cls-9" points="219.06 496.23 223.4 496.53 220.5 481.62 215.59 484.35 219.06 496.23"/><polygon class="cls-13" points="219.06 496.23 223.4 496.53 220.5 481.62 215.59 484.35 219.06 496.23"/><path class="cls-11" d="M156.21,438.29l22.57,25s24.95-.56,55.25,14.25c0,0,32.5-13.43,35.49-24.59,3.91-14.61-74.75-3.19-74.75-3.19Z"/><path class="cls-8" d="M262.06,456v3.71c0,.95-1.12,1.34-2.06,1.34H185.9c-1,0-2.1-.39-2.1-1.34V456Z"/><path class="cls-16" d="M262.06,456v3.71c0,.95-1.12,1.34-2.06,1.34H185.9c-1,0-2.1-.39-2.1-1.34V456Z"/><path class="cls-11" d="M262.06,456v3.71c0,.95-1.12,1.34-2.06,1.34H211.13c-.95,0-2.08-.39-2.08-1.34V456Z"/><path class="cls-8" d="M274.46,417.46l-8.84,40a3,3,0,0,1-2.87,2.27H214.59a1.93,1.93,0,0,1-1.9-2,1.82,1.82,0,0,1,.09-.56l8.84-39.71a2.74,2.74,0,0,1,2.85-1.95h48.19C274,415.57,274.75,416.16,274.46,417.46Z"/><path class="cls-16" d="M274.46,417.46l-8.84,40a3,3,0,0,1-2.87,2.27H216.23a2,2,0,0,1-1.91-2,1.89,1.89,0,0,1,.08-.53l8.83-39.71a2.79,2.79,0,0,1,2.81-1.94h46.55C274,415.57,274.75,416.16,274.46,417.46Z"/><path class="cls-11" d="M250.7,437.8h0c0,3.43-3.67,6.21-6.31,6.21s-4.29-2.78-3.52-6.21,3.44-6.1,6.08-6.2c-.77,3.43.87,6.2,3.56,6.2Z"/><polygon class="cls-19" points="240.3 497.64 256.08 500.24 263.65 501.49 265.86 493.66 259.01 491.57 242.27 486.48 240.3 497.64"/><path class="cls-8" d="M264.32,492.38l-3.41,8.83a.92.92,0,0,0,.45,1.22l.11,0,4.4,1.56s5.77,2.52,7.64,1.71c5.46-2.34,13.5-21.59,11.74-23.4-.65-.67-2.06,0-2.81.49-2.37,1.75-7.64,6.82-9.63,8.25-2.33,1.66-5.89,1.15-7.43.82A.9.9,0,0,0,264.32,492.38Z"/><polygon class="cls-11" points="240.3 497.64 256.08 500.24 259.01 491.57 242.27 486.48 240.3 497.64"/><path class="cls-9" d="M256.33,489.94S192,453.77,169.79,454.8s-25.41,20.6-16.24,32.82,26.08,15.22,26.08,15.22S168.1,486.57,169.77,482s8.18,1.82,8.18,1.82,40.44,13.05,75.86,16.1Z"/><polygon class="cls-9" points="257.33 488.94 253.69 486.5 249.01 500.87 254.63 500.87 257.33 488.94"/><polygon class="cls-13" points="257.33 488.94 253.69 486.5 249.01 500.87 254.63 500.87 257.33 488.94"/><path class="cls-8" d="M144.36,431.1l41,3.78s6.43-13.3,11.36-18.49S206,384.84,206,384.84a84.71,84.71,0,0,0-10.27-4.19,101.94,101.94,0,0,0-31.36-5.28h-.17c-3.06,0-4.82.15-4.82.15a8.74,8.74,0,0,0-2.92,3.32c-4.39,7.57-7.89,25.24-10,37.93C145.09,425,144.36,431.1,144.36,431.1Z"/><path class="cls-11" d="M146.43,416.78c9-4.14,21.37-11.14,20.72-18.25-.69-7.8-7-15.65-10.76-19.68C152,386.43,148.5,404.1,146.43,416.78Z"/><path class="cls-8" d="M166.36,375.42s4.67,15.37,17.44,17,14.9-10.73,14.9-10.73S182.25,372.71,166.36,375.42Z"/><path class="cls-12" d="M166.36,375.42s4.67,15.37,17.44,17,14.9-10.73,14.9-10.73S182.25,372.71,166.36,375.42Z"/><path class="cls-9" d="M169,375.85s6,14.24,16.87,14.24,11.2-8,11.2-8S186.25,375,169,375.85Z"/><path class="cls-16" d="M169,375.85s6,14.24,16.87,14.24,11.2-8,11.2-8S186.25,375,169,375.85Z"/><path class="cls-19" d="M188.69,378.07c.07,2.52,1.53,3.16,1.53,3.16a5.18,5.18,0,0,1-4.29,5.93,5.39,5.39,0,0,1-1.33,0c-8-.82-10.58-10.51-10.58-10.51,5.84-2.32,7.16-8.77,7.41-12.62a21.45,21.45,0,0,0,0-3L192.36,368a38.37,38.37,0,0,0-2.44,4.78A13.89,13.89,0,0,0,188.69,378.07Z"/><path class="cls-11" d="M191.69,367.1a40.13,40.13,0,0,0-1.94,5,13.46,13.46,0,0,0-.68,5.42c-6.15.48-8.6-13.09-8.6-13.09v-.09a21.33,21.33,0,0,0-.3-3Z"/><path class="cls-8" d="M198.68,336.78s8-9.24-1.57-17S168.53,315.55,165,333s1.27,24.87,1.27,24.87,0-11.13,3.2-14.38c0,0-1,5.33,0,8.52s0,1.18,0,1.18,3-14,17.19-10S198.68,336.78,198.68,336.78Z"/><path class="cls-19" d="M200.6,339.79c10.58,3.23,12.26,9.92,9.71,21-3.18,13.89-9.15,22.72-21.46,15.73C172.06,367.14,183.05,334.44,200.6,339.79Z"/><path class="cls-20" d="M203.66,358.17a23.31,23.31,0,0,0,1.73,5.32,3,3,0,0,1-3.15.36Z"/><path class="cls-8" d="M197.45,355.34c-.25.87-.92,1.45-1.5,1.26s-.86-1-.62-1.88.92-1.45,1.5-1.26S197.69,354.45,197.45,355.34Z"/><path class="cls-8" d="M196.58,353.43l2.1-.21S197.3,354.56,196.58,353.43Z"/><path class="cls-8" d="M208.37,358.19c-.24.87-.91,1.45-1.49,1.26s-.86-1-.62-1.88.92-1.45,1.5-1.26S208.62,357.32,208.37,358.19Z"/><path class="cls-8" d="M207.51,356.28l2.11-.21S208.21,357.41,207.51,356.28Z"/><path class="cls-8" d="M194.48,348.66a.47.47,0,0,1-.45-.49.46.46,0,0,1,.2-.35,6.09,6.09,0,0,1,5.51-.23.44.44,0,0,1,.23.59.46.46,0,0,1-.59.25h0a5.36,5.36,0,0,0-4.64.15A.38.38,0,0,1,194.48,348.66Z"/><path class="cls-8" d="M211.33,352.51a.48.48,0,0,1-.35-.16,4.67,4.67,0,0,0-3.57-2,.46.46,0,0,1-.48-.43.45.45,0,0,1,.42-.48h0a5.55,5.55,0,0,1,4.33,2.31.49.49,0,0,1,0,.66A.47.47,0,0,1,211.33,352.51Z"/><path class="cls-8" d="M183.61,354.09s7.58-7.18,8.84-14.11c0,0,23.56-2.17,18.11,19.41,0,0,7.81-18.26-10.23-24.22s-26,20.65-19.06,31.43C181.27,366.6,178.91,358.58,183.61,354.09Z"/><path class="cls-8" d="M199.81,368.6h0a5.86,5.86,0,0,1-5.85-5,.48.48,0,0,1,.41-.51.45.45,0,0,1,.5.4,4.9,4.9,0,0,0,5,4.17.45.45,0,1,1,0,.9Z"/><path class="cls-8" d="M181.78,352a.32.32,0,0,0,.17.35H182l10.77,2.53a4.65,4.65,0,0,0,2.71,5,5.61,5.61,0,0,0,7.22-1.95,3.26,3.26,0,0,0,.33-.71,1.84,1.84,0,0,1,1.39-.4,1,1,0,0,1,.56.64,4.69,4.69,0,0,0,2.72,5,5.63,5.63,0,0,0,7.22-2,4.58,4.58,0,0,0-1.67-6.26,4.66,4.66,0,0,0-.5-.25,5.63,5.63,0,0,0-7.22,2,4.47,4.47,0,0,0-.33.7,1.4,1.4,0,0,0-.54-.35,2,2,0,0,0-1.4.15,4.68,4.68,0,0,0-2.73-5.05,5.63,5.63,0,0,0-7.22,2,4.54,4.54,0,0,0-.41.93l-10.72-2.52A.34.34,0,0,0,181.78,352Zm24.36,4.18a4.94,4.94,0,0,1,6.32-1.72,4,4,0,0,1,2.11,5.27c-.07.15-.14.29-.22.43a4.92,4.92,0,0,1-6.31,1.71,4,4,0,0,1-2.12-5.25C206,356.44,206.06,356.29,206.14,356.15Zm-12.21-2.53a4.94,4.94,0,0,1,6.31-1.72,4,4,0,0,1,2.11,5.27,3.61,3.61,0,0,1-.22.44,4.92,4.92,0,0,1-6.31,1.72,4,4,0,0,1-2.11-5.29,3.48,3.48,0,0,1,.22-.43Z"/><g class="cls-21"><path class="cls-6" d="M181.78,352a.32.32,0,0,0,.17.35H182l10.77,2.53a4.65,4.65,0,0,0,2.71,5,5.61,5.61,0,0,0,7.22-1.95,3.26,3.26,0,0,0,.33-.71,1.84,1.84,0,0,1,1.39-.4,1,1,0,0,1,.56.64,4.69,4.69,0,0,0,2.72,5,5.63,5.63,0,0,0,7.22-2,4.58,4.58,0,0,0-1.67-6.26,4.66,4.66,0,0,0-.5-.25,5.63,5.63,0,0,0-7.22,2,4.47,4.47,0,0,0-.33.7,1.4,1.4,0,0,0-.54-.35,2,2,0,0,0-1.4.15,4.68,4.68,0,0,0-2.73-5.05,5.63,5.63,0,0,0-7.22,2,4.54,4.54,0,0,0-.41.93l-10.72-2.52A.34.34,0,0,0,181.78,352Zm24.36,4.18a4.94,4.94,0,0,1,6.32-1.72,4,4,0,0,1,2.11,5.27c-.07.15-.14.29-.22.43a4.92,4.92,0,0,1-6.31,1.71,4,4,0,0,1-2.12-5.25C206,356.44,206.06,356.29,206.14,356.15Zm-12.21-2.53a4.94,4.94,0,0,1,6.31-1.72,4,4,0,0,1,2.11,5.27,3.61,3.61,0,0,1-.22.44,4.92,4.92,0,0,1-6.31,1.72,4,4,0,0,1-2.11-5.29,3.48,3.48,0,0,1,.22-.43Z"/></g><path class="cls-19" d="M184.66,356.84a4.86,4.86,0,0,0-3.7-5.76c-3.38-.64-7,5.61.66,9.71C182.72,361.38,183.73,360.44,184.66,356.84Z"/><path class="cls-19" d="M164.19,389.34s1.26,27,3.54,33.05,26.12,28.37,26.12,28.37,6.65-1.48,7.75-1.05,7.45,6.31,7.45,6.31H190.69l-1.6-2.82s-24.66-18.28-27.38-22.63c-2-3.22-8.45-36-8.45-36Z"/><path class="cls-8" d="M159.3,375.53c4.28-2.22,6.31,4.94,8.93,19.42a152.1,152.1,0,0,1,2.13,27.7l3.66,6.5-9.24,8.51a39.75,39.75,0,0,1-9.73-15C152.2,413.94,144.33,383.35,159.3,375.53Z"/><path class="cls-12" d="M159.3,375.53c4.28-2.22,6.31,4.94,8.93,19.42a152.1,152.1,0,0,1,2.13,27.7l3.66,6.5-9.24,8.51a39.75,39.75,0,0,1-9.73-15C152.2,413.94,144.33,383.35,159.3,375.53Z"/><polygon class="cls-9" points="162.37 437.66 174.02 427.25 176.77 431.1 166.36 441.32 162.37 437.66"/><polygon class="cls-16" points="162.37 437.66 174.02 427.25 176.77 431.1 166.36 441.32 162.37 437.66"/></g></svg>