<svg id="Layer_1" data-name="Layer 1" xmlns="http://www.w3.org/2000/svg" viewBox="0 0 562 615"><defs><style>.cls-1{fill:#ebebeb;}.cls-2{fill:#f5f5f5;}.cls-3,.cls-4,.cls-8{fill:#e0e0e0;}.cls-11,.cls-4,.cls-7{opacity:0.5;}.cls-11,.cls-12,.cls-13,.cls-15,.cls-16,.cls-20,.cls-21,.cls-24,.cls-4,.cls-7,.cls-8{isolation:isolate;}.cls-5{fill:#fafafa;}.cls-6{fill:#e6e6e6;}.cls-7,.cls-9{fill:#f0f0f0;}.cls-24,.cls-8{opacity:0.6;}.cls-10{fill:#263238;}.cls-11,.cls-12,.cls-15,.cls-18,.cls-20,.cls-24{fill:#fff;}.cls-12,.cls-13{opacity:0.2;}.cls-14,.cls-16{fill:#407bff;}.cls-15{opacity:0.7;}.cls-16{opacity:0.8;}.cls-17{opacity:0.4;}.cls-19{fill:#eec1bb;}.cls-20{opacity:0.3;}.cls-21{opacity:0.1;}.cls-22{fill:#d58745;}.cls-23{fill:#2e353a;}</style></defs><g id="freepik--background-complete--inject-32"><rect class="cls-1" x="455.16" y="537.19" width="32.32" height="0.24"/><rect class="cls-1" x="363.18" y="539.84" width="8.48" height="0.24"/><rect class="cls-1" x="435.45" y="528.13" width="18.73" height="0.24"/><rect class="cls-1" x="99.62" y="529.77" width="42.15" height="0.24"/><rect class="cls-1" x="150.47" y="529.77" width="6.18" height="0.24"/><rect class="cls-1" x="176.73" y="533.89" width="91.42" height="0.24"/><path class="cls-1" d="M281.08,478H92.64a5.57,5.57,0,0,1-5.58-5.57V207.5A5.58,5.58,0,0,1,92.64,202H281.08a5.57,5.57,0,0,1,5.57,5.57h0V472.39A5.57,5.57,0,0,1,281.08,478ZM92.64,202.18a5.33,5.33,0,0,0-5.33,5.32V472.39a5.34,5.34,0,0,0,5.33,5.33H281.08a5.35,5.35,0,0,0,5.33-5.33V207.5a5.33,5.33,0,0,0-5.33-5.32Z"/><path class="cls-1" d="M492.16,478H303.72a5.57,5.57,0,0,1-5.57-5.57V207.5a5.57,5.57,0,0,1,5.57-5.52H492.16a5.57,5.57,0,0,1,5.57,5.57V472.39A5.57,5.57,0,0,1,492.16,478ZM303.72,202.18a5.33,5.33,0,0,0-5.33,5.32V472.39a5.35,5.35,0,0,0,5.33,5.33H492.16a5.35,5.35,0,0,0,5.33-5.33V207.5a5.33,5.33,0,0,0-5.33-5.32Z"/><rect class="cls-1" x="48.43" y="521.48" width="487.94" height="0.24"/><polygon class="cls-2" points="457.24 348.35 387.28 348.35 379.25 256.49 449.21 256.49 457.24 348.35"/><path class="cls-3" d="M432,268.34H396.74a.91.91,0,0,1-.9-.82h0a.75.75,0,0,1,.67-.82h35.34a.92.92,0,0,1,.9.83h0a.74.74,0,0,1-.64.82Z"/><path class="cls-3" d="M443.85,313.28H400.72a.92.92,0,0,1-.9-.83h0a.75.75,0,0,1,.67-.82h43.27a1,1,0,0,1,.9.83h0a.77.77,0,0,1-.67.83Z"/><path class="cls-3" d="M444.27,318.11H395a.91.91,0,0,1-.89-.83h0a.74.74,0,0,1,.67-.82h49.39a1,1,0,0,1,.9.83h0a.77.77,0,0,1-.67.83Z"/><path class="cls-3" d="M444.69,322.88H395.38a.9.9,0,0,1-.89-.83h0a.74.74,0,0,1,.66-.82h49.4a1,1,0,0,1,.9.83h0a.75.75,0,0,1-.67.83Z"/><path class="cls-3" d="M445.11,327.68H395.84a1,1,0,0,1-1-.79h0a.74.74,0,0,1,.67-.82h49.39a.93.93,0,0,1,.9.83h0a.75.75,0,0,1-.71.79Z"/><path class="cls-3" d="M445.53,332.49H402.35a1,1,0,0,1-.9-.83h0a.75.75,0,0,1,.67-.83h43.27a.92.92,0,0,1,.9.83h0a.75.75,0,0,1-.67.82Z"/><path class="cls-3" d="M446,337.29H396.64a1,1,0,0,1-.9-.83h0a.75.75,0,0,1,.66-.82h49.41a.89.89,0,0,1,.89.82h0a.74.74,0,0,1-.66.82Z"/><path class="cls-3" d="M446.37,342.09H397.06a1,1,0,0,1-.9-.83h0a.76.76,0,0,1,.66-.82h49.41a.9.9,0,0,1,.89.82h0a.74.74,0,0,1-.66.82Z"/><path class="cls-3" d="M428.35,273.83h-27a.92.92,0,0,1-.9-.83h0a.74.74,0,0,1,.65-.83H428.2a.9.9,0,0,1,.9.83h0a.74.74,0,0,1-.65.82Z"/><path class="cls-3" d="M424.42,279.31H406.24a.92.92,0,0,1-.89-.83h0a.72.72,0,0,1,.64-.81h18.29a.93.93,0,0,1,.9.82h0a.77.77,0,0,1-.67.83Z"/><polygon class="cls-4" points="443.97 305.25 393.01 305.25 391.3 285.69 442.26 285.69 443.97 305.25"/><polygon class="cls-2" points="115.5 415.94 173.31 415.94 179.95 340.04 122.14 340.04 115.5 415.94"/><path class="cls-3" d="M136.36,349.83h29.17a.79.79,0,0,0,.75-.69h0a.63.63,0,0,0-.55-.68H136.48a.76.76,0,0,0-.74.68h0a.61.61,0,0,0,.54.68Z"/><path class="cls-3" d="M126.57,387h35.68a.76.76,0,0,0,.74-.68h0a.62.62,0,0,0-.55-.68H126.69a.78.78,0,0,0-.75.69h0a.63.63,0,0,0,.57.68Z"/><path class="cls-3" d="M126.23,390.92H167a.75.75,0,0,0,.74-.68h0a.61.61,0,0,0-.54-.68H126.34a.76.76,0,0,0-.74.68h0a.62.62,0,0,0,.54.68Z"/><path class="cls-3" d="M125.87,394.89h40.75a.76.76,0,0,0,.74-.68h0a.62.62,0,0,0-.54-.68H126a.76.76,0,0,0-.74.68h0a.61.61,0,0,0,.54.68Z"/><path class="cls-3" d="M125.52,398.86h40.74a.76.76,0,0,0,.74-.69h0a.62.62,0,0,0-.54-.68H125.65a.76.76,0,0,0-.74.68h0a.61.61,0,0,0,.54.68Z"/><path class="cls-3" d="M125.18,402.83h35.68a.76.76,0,0,0,.74-.69h0a.62.62,0,0,0-.54-.68H125.3a.76.76,0,0,0-.74.68h0a.6.6,0,0,0,.54.68Z"/><path class="cls-3" d="M124.83,406.8h40.7a.77.77,0,0,0,.75-.68h0a.62.62,0,0,0-.55-.68H125a.75.75,0,0,0-.74.69h0a.62.62,0,0,0,.54.68Z"/><path class="cls-3" d="M124.49,410.76h40.73a.74.74,0,0,0,.74-.68h0a.6.6,0,0,0-.52-.68H124.61a.77.77,0,0,0-.75.69h0a.62.62,0,0,0,.55.68Z"/><path class="cls-3" d="M139.38,354.36h22.3a.75.75,0,0,0,.74-.69h0a.61.61,0,0,0-.54-.68H139.5a.76.76,0,0,0-.74.68h0a.61.61,0,0,0,.54.68Z"/><path class="cls-3" d="M142.62,358.89h15a.76.76,0,0,0,.74-.68h0a.63.63,0,0,0-.56-.68H142.75a.74.74,0,0,0-.74.68h0a.61.61,0,0,0,.54.68Z"/><polygon class="cls-4" points="126.47 380.32 168.57 380.32 169.98 364.16 127.89 364.16 126.47 380.32"/><polygon class="cls-5" points="244.58 329.22 319.12 329.22 327.69 231.34 253.14 231.34 244.58 329.22"/><path class="cls-6" d="M271.48,243.94h37.57a1,1,0,0,0,1-.87h0a.79.79,0,0,0-.69-.88H271.65a1,1,0,0,0-1,.88h0a.79.79,0,0,0,.69.87Z"/><path class="cls-6" d="M258.85,291.84h46a1,1,0,0,0,1-.88h0a.8.8,0,0,0-.72-.87H259a1,1,0,0,0-1,.88h0a.79.79,0,0,0,.69.88Z"/><path class="cls-6" d="M258.41,297h52.53a1,1,0,0,0,1-.88h0a.81.81,0,0,0-.72-.88H258.56a1,1,0,0,0-1,.88h0a.81.81,0,0,0,.73.88Z"/><path class="cls-6" d="M258,302.08h52.53a1,1,0,0,0,1-.88h0a.79.79,0,0,0-.71-.88H258.11a1,1,0,0,0-1,.89h0a.8.8,0,0,0,.72.87Z"/><path class="cls-6" d="M257.51,307.19H310a1,1,0,0,0,1-.88h0a.79.79,0,0,0-.7-.87H257.67a1,1,0,0,0-1,.88h0a.81.81,0,0,0,.72.88Z"/><path class="cls-6" d="M257.06,312.3h46a1,1,0,0,0,1-.87h0a.79.79,0,0,0-.7-.88H257.27a1,1,0,0,0-1,.88h0a.79.79,0,0,0,.68.87Z"/><path class="cls-6" d="M256.61,317.43h52.53a1,1,0,0,0,1-.89h0a.78.78,0,0,0-.68-.87H256.77a1,1,0,0,0-1,.88h0a.8.8,0,0,0,.69.88Z"/><path class="cls-6" d="M256.16,322.54H308.7a1,1,0,0,0,1-.88h0a.78.78,0,0,0-.68-.88h-52.7a1,1,0,0,0-1,.89h0a.79.79,0,0,0,.69.88Z"/><path class="cls-6" d="M275.37,249.8h28.74a1,1,0,0,0,1-.88h0a.76.76,0,0,0-.67-.87H275.53a1,1,0,0,0-1,.88h0a.78.78,0,0,0,.68.87Z"/><path class="cls-6" d="M279.56,255.65h19.37a1,1,0,0,0,1-.87h0a.8.8,0,0,0-.72-.88H279.71a1,1,0,0,0-1,.88h0a.78.78,0,0,0,.71.87Z"/><polygon class="cls-7" points="258.72 283.28 313.02 283.28 314.83 262.45 260.55 262.45 258.72 283.28"/><path class="cls-1" d="M461.09,403.12c-.25,2.93-9,4.6-19.52,3.68s-18.88-4.07-18.62-7l1.12-12.89,38.13,3.34Z"/><path class="cls-8" d="M423.72,390.49c1.46,2.68,9.2,5.28,18.7,6.12s17.57-.39,19.52-2.77l.31-3.61-38.19-3.34Z"/><path class="cls-1" d="M442.32,395.3l-30.71-12.48a.72.72,0,0,1-.4-.94.71.71,0,0,1,.47-.42l32.63-9.36a.65.65,0,0,1,.51,0L475.34,387a.72.72,0,0,1-.17,1.35l-32.42,7A.64.64,0,0,1,442.32,395.3Z"/><rect class="cls-9" x="144.18" y="453.47" width="41.23" height="6.34"/><path class="cls-6" d="M145.55,457.13h38.53a3.19,3.19,0,0,1,3.19,3.19v62.19H142.38V460.32a3.17,3.17,0,0,1,3.17-3.19h0Z"/><rect class="cls-6" x="142.36" y="445.66" width="44.89" height="9.76" rx="3.52"/><polygon class="cls-2" points="193.05 522.51 172.07 522.51 172.07 519.58 193.05 517.63 193.05 522.51"/></g><g id="freepik--Shadow--inject-32"><ellipse id="freepik--path--inject-32" class="cls-2" cx="286.68" cy="543.95" rx="249.21" ry="14.55"/></g><g id="freepik--Device--inject-32"><path class="cls-10" d="M343.1,491l-25.93-57.59H256.38l9.26,53.88a4.87,4.87,0,0,1-4,5.56H234.26a2.58,2.58,0,0,0-2.58,2.57h0v2.86a2.58,2.58,0,0,0,2.58,2.57H341.19a2.8,2.8,0,0,0,2.8-2.8h0v-3A10.14,10.14,0,0,0,343.1,491ZM315,483.91H285.81a3.9,3.9,0,0,1-3.84-3.24l-4.4-25.43a3.89,3.89,0,0,1,3.16-4.5h22.75A3.88,3.88,0,0,1,307,453l11.51,25.43a3.94,3.94,0,0,1-2,5.21A4.08,4.08,0,0,1,315,484Z"/><path class="cls-11" d="M343.1,491l-25.93-57.59H256.38l9.26,53.88a4.87,4.87,0,0,1-4,5.56H234.26a2.58,2.58,0,0,0-2.58,2.57h0v2.86a2.58,2.58,0,0,0,2.58,2.57H341.19a2.8,2.8,0,0,0,2.8-2.8h0v-3A10.14,10.14,0,0,0,343.1,491ZM315,483.91H285.81a3.9,3.9,0,0,1-3.84-3.24l-4.4-25.43a3.89,3.89,0,0,1,3.16-4.5h22.75A3.88,3.88,0,0,1,307,453l11.51,25.43a3.94,3.94,0,0,1-2,5.21A4.08,4.08,0,0,1,315,484Z"/><path class="cls-12" d="M315,483.91H285.81a3.9,3.9,0,0,1-3.84-3.24l-4.4-25.43a3.89,3.89,0,0,1,3.16-4.5h22.75A3.88,3.88,0,0,1,307,453l11.51,25.43a3.94,3.94,0,0,1-2,5.21A4.08,4.08,0,0,1,315,484Z"/><path class="cls-10" d="M284.84,450.63h-3.42a3.89,3.89,0,0,0-3.91,3.87v0a3.75,3.75,0,0,0,0,.67l4.41,25.43a3.84,3.84,0,0,0,3.83,3.22h3.45a3.85,3.85,0,0,1-3.84-3.22L281,455.19a3.89,3.89,0,0,1,3.14-4.5h.05A4.14,4.14,0,0,1,284.84,450.63Z"/><path class="cls-10" d="M346.54,491l-25.93-57.55h-3.43L343.12,491a10.33,10.33,0,0,1,.92,4.28v3a2.81,2.81,0,0,1-2.79,2.8h3.44a2.82,2.82,0,0,0,2.8-2.8v-3A10.35,10.35,0,0,0,346.54,491Z"/><polygon class="cls-13" points="317.09 433.44 256.36 433.44 258.75 447.19 323.32 447.19 317.09 433.44"/><path class="cls-10" d="M404.22,439.48H145.11a8.57,8.57,0,0,1-8.69-8.37,10.65,10.65,0,0,1,0-1.13L152.8,242.73a10.51,10.51,0,0,1,10.3-9.48H422.26a8.5,8.5,0,0,1,8.69,8.31v.06a6.86,6.86,0,0,1,0,1.11L414.56,430A10.55,10.55,0,0,1,404.22,439.48Z"/><path class="cls-14" d="M138.24,409.75,136.39,430a8.5,8.5,0,0,0,7.47,9.42h0a5.15,5.15,0,0,0,1.11,0H404.15a10.52,10.52,0,0,0,10.3-9.48l1.85-20.24Z"/><path class="cls-15" d="M138.24,409.75,136.39,430a8.5,8.5,0,0,0,7.47,9.42h0a5.15,5.15,0,0,0,1.11,0H404.15a10.52,10.52,0,0,0,10.3-9.48l1.85-20.24Z"/><path class="cls-14" d="M407.15,404H148.37a4.61,4.61,0,0,1-4.7-4.52v0a2.91,2.91,0,0,1,0-.59l13.54-154.76a5.7,5.7,0,0,1,5.55-5.13H421.6a4.61,4.61,0,0,1,4.7,4.52v.61L412.76,398.9A5.72,5.72,0,0,1,407.15,404Z"/><path class="cls-16" d="M407.15,404H148.37a4.61,4.61,0,0,1-4.7-4.52v0a2.91,2.91,0,0,1,0-.59l13.54-154.76a5.7,5.7,0,0,1,5.55-5.13H421.6a4.61,4.61,0,0,1,4.7,4.52v.61L412.76,398.9A5.72,5.72,0,0,1,407.15,404Z"/><path class="cls-14" d="M428,233.29h-5.75A8.5,8.5,0,0,1,431,241.6v.06a6.86,6.86,0,0,1,0,1.11L414.56,430a10.53,10.53,0,0,1-10.3,9.48H410A10.51,10.51,0,0,0,420.28,430l16.39-187.25a8.52,8.52,0,0,0-7.52-9.41h0Z"/><path class="cls-12" d="M428,233.29h-5.75A8.5,8.5,0,0,1,431,241.6v.06a6.86,6.86,0,0,1,0,1.11L414.56,430a10.53,10.53,0,0,1-10.3,9.48H410A10.51,10.51,0,0,0,420.28,430l16.39-187.25a8.52,8.52,0,0,0-7.52-9.41h0Z"/><polygon class="cls-14" points="212.44 402.88 331.17 402.88 344.8 247.01 226.09 247.01 212.44 402.88"/><polygon class="cls-15" points="212.44 402.88 331.17 402.88 344.8 247.01 226.09 247.01 212.44 402.88"/><path class="cls-10" d="M255.3,267.11h59.81a1.59,1.59,0,0,0,1.54-1.41h0a1.28,1.28,0,0,0-1.16-1.38h-60A1.58,1.58,0,0,0,254,265.7h0a1.28,1.28,0,0,0,1.15,1.4Z"/><path class="cls-10" d="M235.19,343.37h73.25A1.58,1.58,0,0,0,310,342h0a1.28,1.28,0,0,0-1.16-1.39H235.43a1.52,1.52,0,0,0-1.52,1.39h0a1.26,1.26,0,0,0,1.1,1.4Z"/><path class="cls-10" d="M234.46,351.52h83.67a1.55,1.55,0,0,0,1.52-1.41h0a1.26,1.26,0,0,0-1.12-1.38H234.72a1.56,1.56,0,0,0-1.53,1.39h0a1.26,1.26,0,0,0,1.14,1.4Z"/><path class="cls-10" d="M233.76,359.67h83.67a1.58,1.58,0,0,0,1.51-1.41h0a1.25,1.25,0,0,0-1.1-1.4H234a1.56,1.56,0,0,0-1.52,1.41h0a1.26,1.26,0,0,0,1.1,1.4Z"/><path class="cls-10" d="M233,367.83H316.7a1.52,1.52,0,0,0,1.52-1.4h0a1.26,1.26,0,0,0-1.1-1.4H233.3a1.57,1.57,0,0,0-1.54,1.41h0a1.28,1.28,0,0,0,1.14,1.4Z"/><path class="cls-10" d="M232.41,376h73.25a1.58,1.58,0,0,0,1.54-1.41h0a1.28,1.28,0,0,0-1.14-1.4H232.57a1.55,1.55,0,0,0-1.51,1.41h0a1.25,1.25,0,0,0,1.09,1.4Z"/><path class="cls-10" d="M231.61,384.1h83.67a1.56,1.56,0,0,0,1.53-1.39h0a1.26,1.26,0,0,0-1.14-1.4h-83.8a1.58,1.58,0,0,0-1.54,1.41h0a1.26,1.26,0,0,0,1.13,1.38Z"/><path class="cls-10" d="M230.91,392.25h83.66a1.55,1.55,0,0,0,1.52-1.39h0a1.26,1.26,0,0,0-1.1-1.4H231.15a1.56,1.56,0,0,0-1.52,1.41h0a1.26,1.26,0,0,0,1.12,1.38Z"/><path class="cls-10" d="M261.49,276.43h45.8a1.53,1.53,0,0,0,1.52-1.41h0a1.26,1.26,0,0,0-1.1-1.4h-46a1.56,1.56,0,0,0-1.52,1.41h0a1.27,1.27,0,0,0,1.1,1.4Z"/><path class="cls-10" d="M268.16,285.72h30.93a1.57,1.57,0,0,0,1.54-1.39h0a1.28,1.28,0,0,0-1.15-1.4H268.4a1.52,1.52,0,0,0-1.52,1.4h0a1.26,1.26,0,0,0,1.12,1.39Z"/><g class="cls-17"><path class="cls-18" d="M255.3,267.11h59.81a1.59,1.59,0,0,0,1.54-1.41h0a1.28,1.28,0,0,0-1.16-1.38h-60A1.58,1.58,0,0,0,254,265.7h0a1.28,1.28,0,0,0,1.15,1.4Z"/><path class="cls-18" d="M235.19,343.37h73.25A1.58,1.58,0,0,0,310,342h0a1.28,1.28,0,0,0-1.16-1.39H235.43a1.52,1.52,0,0,0-1.52,1.39h0a1.26,1.26,0,0,0,1.1,1.4Z"/><path class="cls-18" d="M234.46,351.52h83.67a1.55,1.55,0,0,0,1.52-1.41h0a1.26,1.26,0,0,0-1.12-1.38H234.72a1.56,1.56,0,0,0-1.53,1.39h0a1.26,1.26,0,0,0,1.14,1.4Z"/><path class="cls-18" d="M233.76,359.67h83.67a1.58,1.58,0,0,0,1.51-1.41h0a1.25,1.25,0,0,0-1.1-1.4H234a1.56,1.56,0,0,0-1.52,1.41h0a1.26,1.26,0,0,0,1.1,1.4Z"/><path class="cls-18" d="M233,367.83H316.7a1.52,1.52,0,0,0,1.52-1.4h0a1.26,1.26,0,0,0-1.1-1.4H233.3a1.57,1.57,0,0,0-1.54,1.41h0a1.28,1.28,0,0,0,1.14,1.4Z"/><path class="cls-18" d="M232.41,376h73.25a1.58,1.58,0,0,0,1.54-1.41h0a1.28,1.28,0,0,0-1.14-1.4H232.57a1.55,1.55,0,0,0-1.51,1.41h0a1.25,1.25,0,0,0,1.09,1.4Z"/><path class="cls-18" d="M231.61,384.1h83.67a1.56,1.56,0,0,0,1.53-1.39h0a1.26,1.26,0,0,0-1.14-1.4h-83.8a1.58,1.58,0,0,0-1.54,1.41h0a1.26,1.26,0,0,0,1.13,1.38Z"/><path class="cls-18" d="M230.91,392.25h83.66a1.55,1.55,0,0,0,1.52-1.39h0a1.26,1.26,0,0,0-1.1-1.4H231.15a1.56,1.56,0,0,0-1.52,1.41h0a1.26,1.26,0,0,0,1.12,1.38Z"/><path class="cls-18" d="M261.49,276.43h45.8a1.53,1.53,0,0,0,1.52-1.41h0a1.26,1.26,0,0,0-1.1-1.4h-46a1.56,1.56,0,0,0-1.52,1.41h0a1.27,1.27,0,0,0,1.1,1.4Z"/><path class="cls-18" d="M268.16,285.72h30.93a1.57,1.57,0,0,0,1.54-1.39h0a1.28,1.28,0,0,0-1.15-1.4H268.4a1.52,1.52,0,0,0-1.52,1.4h0a1.26,1.26,0,0,0,1.12,1.39Z"/></g><polygon class="cls-11" points="234.98 329.73 321.44 329.73 324.33 296.56 237.87 296.56 234.98 329.73"/></g><g id="freepik--graduation-cap--inject-32"><rect class="cls-10" x="218.17" y="183.91" width="52.62" height="49.63"/><rect class="cls-10" x="166.84" y="183.91" width="52.62" height="49.63"/><rect class="cls-10" x="217.65" y="182.08" width="53.13" height="6.89"/><rect class="cls-10" x="217.66" y="177.03" width="95.02" height="8.01"/><rect class="cls-13" x="166.84" y="183.91" width="52.62" height="49.63"/><rect class="cls-13" x="217.65" y="182.08" width="53.13" height="6.89"/><rect class="cls-13" x="217.66" y="177.03" width="95.02" height="8.01"/><rect class="cls-10" x="124.95" y="177.03" width="95.02" height="8.01"/><path class="cls-14" d="M125,261.59h0a1.28,1.28,0,0,0,1.29-1.28V182.42a4.15,4.15,0,0,1,4.14-4.17H218.7A1.28,1.28,0,0,0,220,177h0a1.28,1.28,0,0,0-1.28-1.29H130.4a6.73,6.73,0,0,0-6.72,6.74v77.89A1.28,1.28,0,0,0,125,261.59Z"/><path class="cls-14" d="M124.68,264.93c4.73,0,8.56,6.17,8.56,13.78v9.8H129c-.46,0-3.06-.52-3.06-9.89,0,0-1.44,9.86,1,9.89h-3.61s-2.16-.42-2.16-5.63V275s-3.46,13.49,0,13.49h-5v-9.79C116.11,271.1,120,264.93,124.68,264.93Z"/><path class="cls-14" d="M121.8,262.88h5.76a1.28,1.28,0,0,0,1.28-1.29h0a1.28,1.28,0,0,0-1.28-1.28H121.8a1.28,1.28,0,0,0-1.28,1.28h0A1.28,1.28,0,0,0,121.8,262.88Z"/><path class="cls-14" d="M121.8,265.45h5.76a1.28,1.28,0,0,0,1.28-1.29h0a1.28,1.28,0,0,0-1.28-1.28H121.8a1.28,1.28,0,0,0-1.28,1.28h0A1.28,1.28,0,0,0,121.8,265.45Z"/></g><g id="freepik--Character--inject-32"><path class="cls-10" d="M373.32,376c.16-5.45,6.94-7.39,6.94-7.39s-.19-.52-.41-1.28c0,0,.62.77,4.08-.84s4.65-2.21,4.65-2.21a31.55,31.55,0,0,0-6.43,2,2,2,0,0,1-2.74-.72,1.62,1.62,0,0,1-.1-.18c-.27-.61-.68-4,.95-2.43,2.92,2.72,19.85-7.56,25.57-1s-4.55,8.31-4.55,8.31c-10.13,2.85-16.23,10.81-18.92,15.15-1.11,1.78-2.26.44-2.48-.14-.7-1.85-.27-2.75,3.49-7.09,0,0-2.19,1.05-4.33,5.27-.58-1.29-1.18-2.24-2-.93s-2,1.43-2.57.24c-.1-.24-.47-2.27,2.84-6.27a5.73,5.73,0,0,0-3.65,4A19.63,19.63,0,0,1,373.32,376Z"/><path class="cls-14" d="M404,369.55s1.47-6-7.53-3-3.57,6.55-3.57,6.55Z"/><path class="cls-13" d="M404,369.55s1.47-6-7.53-3-3.57,6.55-3.57,6.55Z"/><path class="cls-14" d="M406.54,372s1.77-7.26-9.1-3.65-4.32,7.93-4.32,7.93Z"/><path class="cls-10" d="M402.59,418s3.14-7.56-12.18-10.45-18.24.56-13.76,6.17l6.2,4.28,12.57,4.15,5.38-2.33Z"/><path class="cls-13" d="M402.59,418s3.14-7.56-12.18-10.45-18.24.56-13.76,6.17l6.2,4.28,12.57,4.15,5.38-2.33Z"/><path class="cls-14" d="M348.29,469.21c-23.58,54.37,6.35,75.59,43.63,74.32s104.68-22,95.35-48.09c-7.5-20.95-68.59-11.63-87.65-7.19L390,473Z"/><path class="cls-13" d="M348.29,469.21c-23.58,54.37,6.35,75.59,43.63,74.32s104.68-22,95.35-48.09c-7.5-20.95-68.59-11.63-87.65-7.19L390,473Z"/><polygon class="cls-19" points="439.08 530.43 421.65 534.14 414.52 535.66 412.63 527.6 419.99 524.98 435.34 519.52 439.08 530.43"/><polygon class="cls-13" points="439.08 530.43 421.65 534.14 419.99 524.98 435.34 519.52 439.08 530.43"/><polygon class="cls-14" points="420.83 523.42 425.83 520.66 428.78 535.84 424.38 535.52 420.83 523.42"/><polygon class="cls-20" points="420.83 523.42 425.83 520.66 428.78 535.84 424.38 535.52 420.83 523.42"/><path class="cls-21" d="M399.63,488.25s80.1-11.64,76.12,3.25c-3.05,11.36-36.14,25-36.14,25C408.76,501.45,383.35,502,383.35,502Z"/><path class="cls-10" d="M350.42,454.62c2.11-12.92,5.67-30.91,10.14-38.62a8.88,8.88,0,0,1,3-3.38s1.8-.16,4.91-.16h.23a103.53,103.53,0,0,1,31.93,5.38,87.82,87.82,0,0,1,10.46,4.26s-4.43,26.85-9.46,32.14S390,473.07,390,473.07l-41.73-3.86S349,463,350.42,454.62Z"/><path class="cls-19" d="M397.22,409.78a38.43,38.43,0,0,1,2.48-4.87l-11.13-7a26.2,26.2,0,0,1,0,3.07c-.25,3.86-1.6,10.49-7.55,12.85,0,0,2.57,9.86,10.77,10.7a5.57,5.57,0,0,0,1.29,0,5.28,5.28,0,0,0,4.39-6h0s-1.47-.66-1.55-3.23A13.93,13.93,0,0,1,397.22,409.78Z"/><path class="cls-13" d="M387.23,398.25a20.74,20.74,0,0,1,.31,3.05v.07s2.48,13.83,8.74,13.34a14,14,0,0,1,.69-5.52,42,42,0,0,1,2-5.14Z"/><path class="cls-19" d="M396.18,413.69c12.49,5.05,18.61-1.88,21.85-16,2.57-11.34.88-18.16-9.89-21.44C390.26,370.83,379.09,404.08,396.18,413.69Z"/><path class="cls-22" d="M409.45,404.05a3.06,3.06,0,0,0,3.2-.35,23.94,23.94,0,0,1-1.76-5.43Z"/><path class="cls-10" d="M404.71,394.32c.22-.79.76-1.29,1.29-1.29h0l2.14-.22a2.42,2.42,0,0,1-1.41.67,1.89,1.89,0,0,1,.15,1.49c-.25.89-.94,1.48-1.53,1.29S404.45,395.25,404.71,394.32Z"/><path class="cls-10" d="M414.54,397.23a1.58,1.58,0,0,1,1.29-1.28l2.08-.22a2.44,2.44,0,0,1-1.41.66,1.91,1.91,0,0,1,.14,1.5c-.25.89-.93,1.48-1.52,1.28S414.3,398.12,414.54,397.23Z"/><path class="cls-10" d="M404.2,388.62h0a.47.47,0,0,1,.43-.49h0a6.29,6.29,0,0,1,5,2.57.47.47,0,1,1-.76.54,5.47,5.47,0,0,0-4.18-2.21.36.36,0,0,1-.25-.06A.43.43,0,0,1,404.2,388.62Z"/><path class="cls-10" d="M419.07,393.57a4.61,4.61,0,0,0-4.1-.64h0a.51.51,0,0,1-.62-.26h0a.48.48,0,0,1,.24-.62,5.68,5.68,0,0,1,5,.71h0a.44.44,0,0,1,.16.6l0,0a.41.41,0,0,1-.24.19A.48.48,0,0,1,419.07,393.57Z"/><path class="cls-10" d="M388.4,403.53c-7.09-11,1.08-38.09,19.46-32s10.42,24.67,10.42,24.67c3.2-12.7-2.09-14.6-8.27-16.25a9.57,9.57,0,0,0-10.85,4.58,14,14,0,0,1-8.32,6.27C386.05,395.37,388.45,403.53,388.4,403.53Z"/><path class="cls-23" d="M406.51,406.82a3.58,3.58,0,0,1-3.57-3,.27.27,0,0,1,.22-.31h0a.28.28,0,0,1,.31.24,3,3,0,0,0,3,2.57.29.29,0,0,1,0,.57Z"/><path class="cls-19" d="M405.55,440.47s3.66,24.54,6.11,29.25,17.88,20.57,17.88,20.57l4.12-2.13s-14.5-18.13-15.53-21.52-4.2-31.86-4.2-31.86Z"/><path class="cls-10" d="M403.05,438.44l1.89-10.68,6.09-5.64c4.55,2.41,5.39,16.5,5.58,22.23.17,5,.29,16.39,2.24,21.4,2.21,5.66,14.14,19.77,14.14,19.77l-5.62,4s-14.14-11.89-18.14-21S403.05,438.44,403.05,438.44Z"/><path class="cls-14" d="M413.62,537.49a.28.28,0,0,1,.25-.11.26.26,0,0,1,.22.17c0,.12,1.35,4.05.56,5.63a1.32,1.32,0,0,1-.74.59,1,1,0,0,1-1-.19,4.45,4.45,0,0,1-.16-3.09A16.72,16.72,0,0,1,413.62,537.49Zm.73,5a11.15,11.15,0,0,0-.58-4.13c-.6,1.81-1.09,4.32-.54,4.92.07.09.21.2.52.07a.71.71,0,0,0,.43-.4,2.69,2.69,0,0,0,.16-.45Z"/><path class="cls-14" d="M413.66,537.43a.27.27,0,0,1,.24-.1c.12,0,2.75.85,3.53,2.33a1.77,1.77,0,0,1,.13,1.37c-.19.63-.56.79-.84.75-1.12,0-2.79-2.84-3.08-4.15v-.09A.22.22,0,0,1,413.66,537.43Zm3.48,3.33a1.26,1.26,0,0,0-.13-.87,5.62,5.62,0,0,0-2.8-1.94c.47,1.28,1.86,3.29,2.57,3.37.08,0,.24,0,.37-.43v-.13Z"/><path class="cls-10" d="M413.93,538.91c-3.5,2.57-6,2.83-8.65,10.58-.58,1.66-5.06,0-4.18-4,1.46-6.75,1.85-5.14,3-10.91,1-4.86,1.53-8.38,2.25-12.31l.14-.33h0a1.47,1.47,0,0,1,1.92-.78h0l8.47,3.78a.88.88,0,0,1,.5,1l-2.18,10.86A3.54,3.54,0,0,1,413.93,538.91Z"/><polygon class="cls-19" points="448 525.6 465.04 530.79 472.03 532.91 469.77 540.88 462.06 539.61 445.99 536.97 448 525.6"/><polygon class="cls-13" points="448 525.6 465.04 530.79 462.06 539.61 445.99 536.97 448 525.6"/><path class="cls-14" d="M459.73,539.28c-36.05-3.11-77.27-16.41-77.27-16.41s-6.63-6.5-8.33-1.84,10,21.24,10,21.24-17.22-3.09-26.55-15.52-6-32.37,16.54-33.41,88.12,35.78,88.12,35.78Z"/><polygon class="cls-14" points="460.58 540.25 454.86 540.25 459.63 525.62 463.33 528.12 460.58 540.25"/><polygon class="cls-20" points="460.58 540.25 454.86 540.25 459.63 525.62 463.33 528.12 460.58 540.25"/><path class="cls-14" d="M473.65,530.7a.28.28,0,0,1-.4,0,.39.39,0,0,1-.06-.11c0-.13-.69-4.22.35-5.64a1.22,1.22,0,0,1,.82-.46.9.9,0,0,1,1,.34,4.35,4.35,0,0,1-.32,3.07A16.73,16.73,0,0,1,473.65,530.7Zm0-5a11.19,11.19,0,0,0-.09,4.16c.89-1.68,1.78-4.09,1.29-4.75,0-.11-.17-.24-.51-.16a.7.7,0,0,0-.48.34,1.78,1.78,0,0,0-.22.41Z"/><path class="cls-14" d="M473.6,530.76a.25.25,0,0,1-.24,0c-.12-.06-2.57-1.28-3.13-2.85a1.84,1.84,0,0,1,.09-1.38c.29-.6.67-.68,1-.61,1.09.22,2.3,3.26,2.37,4.6v.09Zm-2.9-3.85a1.21,1.21,0,0,0,0,.88,5.7,5.7,0,0,0,2.45,2.36c-.25-1.39-1.28-3.55-2-3.73-.07,0-.24,0-.42.36v.13Z"/><path class="cls-10" d="M473.62,529.26c3.85-1.93,6.42-1.84,10.21-9.06.85-1.56,5,.77,3.49,4.65-2.57,6.43-2.64,4.8-4.71,10.28-1.8,4.63-2.84,8-4.17,11.8l-.2.29h0a1.47,1.47,0,0,1-2,.46l0,0-7.71-5.14a.89.89,0,0,1-.35-1L472,531.08A3.51,3.51,0,0,1,473.62,529.26Z"/><path class="cls-13" d="M361.23,470.41a46.82,46.82,0,0,1-2.91-5.4c-2.8-6-3.68-20.57-3.95-30.67a116,116,0,0,1,3.5-12.31l7.3-3.29,3.44,5.79,2.12,4.51s2.22,27.16,7.71,33.5c3.58,4.09,7.17,8,9.27,10.28Z"/><path class="cls-19" d="M398.7,489.22s-24.28-22.75-26.6-28.9-3.67-33.63-3.67-33.63L357.37,432s6.57,33.42,8.61,36.64c2.77,4.45,27.88,23.05,27.88,23.05Z"/><path class="cls-10" d="M363.52,412.63c8.58-2.11,7,18.6,7.3,25.26.22,5.22,1.28,17,3.69,22.19,3.53,7.56,21.29,25.52,21.29,25.52l-4.51,5S367.84,474.17,364,468.32C361,463.67,346.61,416.78,363.52,412.63Z"/><path class="cls-13" d="M408.5,435c0,5.36,0,18.39-1.78,25.77-.94-3.86-1.7-8-2.28-11.7A104.21,104.21,0,0,0,408.5,435Z"/><path class="cls-10" d="M391.91,389.21s4.61,1.89,1.1,7.06A8.71,8.71,0,0,0,391.91,389.21Z"/><path class="cls-10" d="M391.64,430.73s15.13-12.7,9.83-14.87S389.06,425.27,391.64,430.73Z"/><path class="cls-13" d="M376.87,417.67,373,412.61c2.45.12,4.88.34,7.32.64l4.57,5.49,3.64,5.79,1.87,2.16v2.86S381.25,423.45,376.87,417.67Z"/><path class="cls-10" d="M391.65,431.51s.07-20.47-13.28-23.21S392.14,429.67,391.65,431.51Z"/><path class="cls-10" d="M419.07,386.71v-.22c1.93-.12,6.09.11,5.68,4.21-.54,5.31-4.72,12.16-2,15.16,0,0-4.14-1.63-1.29-13.28C422.52,388.22,420.42,387,419.07,386.71Z"/><path class="cls-19" d="M388.81,397.62c-7.8-4.18-4.11-10.54-.67-9.88h0a4.91,4.91,0,0,1,3.77,5.85h0C391,397.26,389.93,398.22,388.81,397.62Z"/><path class="cls-10" d="M401.3,395l-11.24-6.42.36-1.08,11.33,6.42,7.23,2.64,3.78,1.28,6.2,2-.38,1.86c-.27,1.37-1.35,2.18-2.39,1.82l-2.41-.84a2.7,2.7,0,0,1-1.38-3.12l.11-.59-3.73-1.19-.11.61c-.28,1.35-1.35,2.16-2.4,1.8l-3.69-1.29a2.69,2.69,0,0,1-1.39-3.12Z"/><g class="cls-17"><path d="M408.14,399.46a1.66,1.66,0,0,1-1.91.7l-3.69-1.28a2.26,2.26,0,0,1-1.29-1.52A11.17,11.17,0,0,1,408.14,399.46Z"/><path d="M418.12,402.88a1.7,1.7,0,0,1-1.93.74l-2.41-.83a2.34,2.34,0,0,1-1.37-1.79A10.94,10.94,0,0,1,418.12,402.88Z"/></g><path class="cls-19" d="M434,487l9-1.06a1.4,1.4,0,0,1,1.22.47l4.66,5.24a1.41,1.41,0,0,1-.12,2l-.23.17-1.35.78a1.39,1.39,0,0,1-1.11.13l-8-2.38h-.16l-7.86-1.28a1.4,1.4,0,0,1-1.14-1.62,1.14,1.14,0,0,1,.06-.25h0a1.43,1.43,0,0,1,.92-.86l3.85-1.18Z"/><path class="cls-19" d="M398,488.34l9-1.06a1.45,1.45,0,0,1,1.22.46l4.64,5.25a1.41,1.41,0,0,1-.11,2,1.19,1.19,0,0,1-.23.16l-1.35.79a1.51,1.51,0,0,1-1.12.14l-8-2.39h-.16l-7.84-1.29a1.39,1.39,0,0,1-1.16-1.6,1.1,1.1,0,0,1,.06-.26h0a1.43,1.43,0,0,1,.92-.86l3.85-1.18Z"/><rect class="cls-10" x="421.78" y="494.22" width="22.17" height="3.56"/><path class="cls-10" d="M423.6,497.77H395.48a1.75,1.75,0,0,1-1.75-1.75v-1.81H423.6v3.56Z"/><path class="cls-20" d="M423.6,497.77H395.48a1.75,1.75,0,0,1-1.75-1.75v-1.81H423.6v3.56Z"/><rect class="cls-10" x="415.57" y="495.37" width="3.56" height="1.26"/><rect class="cls-10" x="410.02" y="495.37" width="3.56" height="1.26"/><polygon class="cls-10" points="427.85 494.22 425.48 494.22 434.74 462.04 437.1 462.04 427.85 494.22"/><polygon class="cls-20" points="427.85 494.22 425.48 494.22 434.74 462.04 437.1 462.04 427.85 494.22"/><polygon class="cls-10" points="426.97 494.22 468.58 494.22 477.83 462.04 436.23 462.04 426.97 494.22"/><polygon class="cls-24" points="426.97 494.22 468.58 494.22 477.83 462.04 436.23 462.04 426.97 494.22"/><path class="cls-10" d="M424.93,494.22h43.31c.74,0,1.29.8,1.29,1.79s-.59,1.77-1.29,1.77H424.93c-.73,0-1.29-.79-1.29-1.77S424.21,494.22,424.93,494.22Z"/><path class="cls-11" d="M424.93,494.22h43.31c.74,0,1.29.8,1.29,1.79s-.59,1.77-1.29,1.77H424.93c-.73,0-1.29-.79-1.29-1.77S424.21,494.22,424.93,494.22Z"/><ellipse class="cls-10" cx="424.93" cy="496" rx="1.32" ry="1.77"/><ellipse class="cls-20" cx="424.93" cy="496" rx="1.32" ry="1.77"/><polygon class="cls-24" points="451.19 480.33 456.86 480.33 458.12 475.93 452.45 475.93 451.19 480.33"/></g><polygon class="cls-2" points="184.56 262.87 67.25 262.87 53.79 108.85 171.09 108.85 184.56 262.87"/><path class="cls-3" d="M142.23,128.71H83.11a1.52,1.52,0,0,1-1.51-1.37h0A1.26,1.26,0,0,1,82.73,126H142a1.54,1.54,0,0,1,1.51,1.39h0a1.24,1.24,0,0,1-1.07,1.37Z"/><path class="cls-3" d="M162.09,204.06H89.79a1.54,1.54,0,0,1-1.51-1.39h0a1.26,1.26,0,0,1,1.12-1.38h72.54a1.64,1.64,0,0,1,1.51,1.39h0a1.27,1.27,0,0,1-1.12,1.39Z"/><path class="cls-3" d="M162.8,212.16H80.13a1.53,1.53,0,0,1-1.5-1.39h0a1.25,1.25,0,0,1,1.12-1.38h82.82a1.63,1.63,0,0,1,1.5,1.39h0a1.27,1.27,0,0,1-1.12,1.39Z"/><path class="cls-3" d="M163.52,220.16H80.84a1.54,1.54,0,0,1-1.51-1.39h0a1.26,1.26,0,0,1,1.12-1.38h82.82a1.63,1.63,0,0,1,1.5,1.39h0a1.25,1.25,0,0,1-1.12,1.39Z"/><path class="cls-3" d="M164.22,228.21H81.6A1.62,1.62,0,0,1,80,226.89h0a1.26,1.26,0,0,1,1.12-1.38h82.82a1.53,1.53,0,0,1,1.5,1.39h0a1.25,1.25,0,0,1-1.19,1.32Z"/><path class="cls-3" d="M164.92,236.27H92.52a1.66,1.66,0,0,1-1.51-1.4h0a1.26,1.26,0,0,1,1.13-1.38h72.54a1.54,1.54,0,0,1,1.5,1.39h0a1.26,1.26,0,0,1-1.12,1.39Z"/><path class="cls-3" d="M165.63,244.32H83a1.65,1.65,0,0,1-1.51-1.4h0a1.24,1.24,0,0,1,1.11-1.36h82.83a1.53,1.53,0,0,1,1.51,1.37h0a1.26,1.26,0,0,1-1.13,1.39Z"/><path class="cls-3" d="M166.33,252.37H83.65a1.66,1.66,0,0,1-1.51-1.4h0a1.24,1.24,0,0,1,1.11-1.36h82.83a1.53,1.53,0,0,1,1.51,1.37h0a1.26,1.26,0,0,1-1.12,1.39Z"/><path class="cls-3" d="M136.11,137.91H90.85a1.54,1.54,0,0,1-1.51-1.39h0a1.25,1.25,0,0,1,1.09-1.38h45.43a1.54,1.54,0,0,1,1.51,1.39h0a1.25,1.25,0,0,1-1.09,1.38Z"/><path class="cls-3" d="M129.51,147.11H99.05a1.55,1.55,0,0,1-1.51-1.39h0a1.23,1.23,0,0,1,1.07-1.37h30.67a1.54,1.54,0,0,1,1.51,1.38h0a1.26,1.26,0,0,1-1.12,1.38Z"/><polygon class="cls-4" points="162.3 190.6 76.86 190.6 74 157.81 159.44 157.81 162.3 190.6"/></svg>