<svg id="Layer_1" data-name="Layer 1" xmlns="http://www.w3.org/2000/svg" viewBox="0 0 596 558"><defs><style>.cls-1{opacity:0.8;}.cls-2,.cls-3{fill:#e0e0e0;}.cls-2,.cls-4{fill-rule:evenodd;}.cls-4,.cls-5{fill:#f5f5f5;}.cls-6{fill:#263238;}.cls-7{fill:#455a64;}.cls-8{fill:#407bff;}.cls-9{fill:#ebebeb;}.cls-10{fill:#ffbe9d;}.cls-11{fill:#eb996e;}.cls-12{opacity:0.3;}.cls-13{fill:#fafafa;}.cls-14{fill:#fff;}</style></defs><g id="freepik--background-complete--inject-4"><g class="cls-1"><path class="cls-2" d="M557.62,445.21a49.81,49.81,0,0,1-5.39,12.17L558.57,468,543.8,482.08l-10.3-6.84a49.32,49.32,0,0,1-12.41,4.82l-3,12-20.41-.48-2.44-12.17A50.65,50.65,0,0,1,483.05,474l-10.6,6.33-14.1-14.74,6.83-10.28a49.94,49.94,0,0,1-4.8-12.43l-12-3,.49-20.43,12.1-2.43a49.61,49.61,0,0,1,5.38-12.17L460,394.32l14.78-14.09,10.28,6.83a50,50,0,0,1,12.43-4.82l3-12,20.42.48,2.44,12.05a50.68,50.68,0,0,1,12.18,5.4l10.6-6.34,14.09,14.75L553.45,407a50.84,50.84,0,0,1,4.81,12.42l12,3-.48,20.42-12.09,2.45Zm-26.45-12.65a21.91,21.91,0,1,0-22.43,21.38h0a21.85,21.85,0,0,0,22.43-21.26v-.11Z"/></g><path class="cls-3" d="M235,140.28a5.68,5.68,0,0,1-.18,1.79,7.4,7.4,0,0,1-9.08,5.2c-.25-.07-.49-.15-.73-.24a6.85,6.85,0,0,1-1.88-1.06,7,7,0,0,1-1.55-1.62,7.44,7.44,0,0,1,.21-8.86,7.62,7.62,0,0,1,3.55-2.51,7.39,7.39,0,0,1,7,1.28,7.29,7.29,0,0,1,2.54,4.18,5.45,5.45,0,0,1,.1,1.8,15.42,15.42,0,0,0-.26-1.77,7.31,7.31,0,0,0-2.57-4,7.17,7.17,0,0,0-6.71-1.15,7.19,7.19,0,0,0-3.35,2.41,7.07,7.07,0,0,0-.2,8.37,7.35,7.35,0,0,0,1.46,1.54,7.12,7.12,0,0,0,1.78,1,7.19,7.19,0,0,0,9.31-4.08c.07-.2.14-.4.2-.6A14.43,14.43,0,0,0,235,140.28Z"/><path class="cls-3" d="M243.75,144.47l.24-.06.76-.17,3-.64h0c0-1.74.07-4,.12-6.79l.08.11-4-1h-.07v-.08a17.37,17.37,0,0,0-1.6-4.1v-.13l2.3-3.45v.18l-4.69-4.9h.2l-3.52,2.12h-.18a16.36,16.36,0,0,0-4-1.78h-.1v-.11l-.82-4,.18.15-6.79-.15.19-.15-1,4v.11h-.13a16.14,16.14,0,0,0-4.07,1.58l-.11,0-.09-.07c-1.09-.7-2.25-1.48-3.46-2.3h.26l-4.91,4.7v-.26l2,3.62.07.11-.07.1a17,17,0,0,0-1.77,4h0l-.15.13h-.51l-.44.26-1,.2-2,.41.16-.2c0,2.3-.1,4.56-.16,6.79l-.15-.21,4,1h.12v.13a16.49,16.49,0,0,0,1.57,4.07l.06.11-.07.11-2.3,3.45v-.26l4.69,4.93h-.24l3.53-2.11h.2a15.73,15.73,0,0,0,4,1.79h.12v.1c.27,1.38.54,2.71.8,4l-.17-.13,6.8.17-.17.13,1-4V156h.08a16.71,16.71,0,0,0,4.1-1.57h.14l3.45,2.3h-.16l5-4.66v.12l-2.09-3.55h0a17.23,17.23,0,0,0,1.48-3c.12-.33.22-.58.27-.78a1.12,1.12,0,0,1,.11-.25l-.07.26c-.05.18-.13.44-.24.8a16.34,16.34,0,0,1-1.43,3v-.07l2.13,3.45v.07h-.06l-4.9,4.72-.07.07-.08-.06-3.45-2.3h.14a16.33,16.33,0,0,1-4.13,1.69l.11-.1c-.32,1.26-.64,2.58-1,4v.12h-.12l-6.8-.15h-.14v-.14c-.26-1.31-.54-2.64-.81-4l.12.14a16.32,16.32,0,0,1-4.1-1.81h.19l-3.52,2.12-.12.08-.12-.12-4.69-4.91-.11-.11.09-.13,2.3-3.45v.21a17,17,0,0,1-1.63-4.18l.15.15-4-1h-.16v-.17c.06-2.23.11-4.5.16-6.79v-.17h.18l2-.4,1-.21.51-.09.25-.06h.24c-.31.29-.08.08-.16.14h0a16.32,16.32,0,0,1,1.81-4.1v.22l-2.11-3.53-.08-.14.11-.11,4.93-4.69.11-.11.14.08c1.15.8,2.3,1.57,3.45,2.3h-.21a17,17,0,0,1,4.18-1.61l-.14.15,1-4v-.16h.16l6.79.16h.15v.14c.27,1.4.55,2.78.8,4l-.12-.14a16.65,16.65,0,0,1,4.09,1.82h-.18l3.53-2.1.11-.07.08.1,4.69,4.92.08.09v.09l-2.3,3.45v-.14a17,17,0,0,1,1.59,4.17l-.09-.08,4,1h.08V137c-.08,2.76-.15,5.05-.2,6.79v0h0l-3,.57-.79.15Z"/><g class="cls-1"><path class="cls-4" d="M308,95.55a33.25,33.25,0,0,1-3.54,8l4.17,7-9.73,9.28-6.76-4.5a32.89,32.89,0,0,1-8.17,3.17L282,126.33,268.57,126,267,118a32.49,32.49,0,0,1-8-3.54l-7,4.18L242.67,109l4.5-6.77A32.67,32.67,0,0,1,244,94l-7.87-2,.32-13.44,8-1.61a32.52,32.52,0,0,1,3.55-8l-4.18-7,9.74-9.26,6.76,4.6a32.79,32.79,0,0,1,8.16-3.16l2-7.88,13.44.32,1.61,7.95a32.55,32.55,0,0,1,8.05,3.56l6.9-4.24,9.27,9.72-4.5,6.78a32.67,32.67,0,0,1,3.17,8.16l7.87,2-.32,13.44-8,1.61Zm-17.39-8.33a14.41,14.41,0,1,0-14.75,14.07h0A14.43,14.43,0,0,0,290.59,87.22Z"/></g><path class="cls-5" d="M97.68,497.37c23-12.73,30.82-40,32.61-65.12.3-4.19,1.22-8.53-.38-12.41s-6-6.9-9.89-5.5c-3.26,1.15-5,4.6-7,7.4a24.55,24.55,0,0,1-10.78,8.31c-2.81,1.15-6.18,1.6-8.65-.12-3.45-2.37-3.29-7.39-2.83-11.51l2.65-23.22c.47-4.15.92-8.38,0-12.45s-3.34-8.06-7.18-9.56-9,.24-10.21,4.21a37.2,37.2,0,0,0-.66,5.15c-.3,1.71-1.3,3.54-3,3.84s-3.24-1-4.36-2.38c-3.84-4.6-6.17-10.35-8.34-16S55.42,356.58,52,351.6s-8.4-9.2-14.31-10.13-12.65,2-14.74,7.71.66,12,3.89,17.12A92.85,92.85,0,0,0,44.2,386.73a7.53,7.53,0,0,1,2.86,3.8c.61,2.87-2.3,5.34-5.13,6-3.2.7-6.52,0-9.8.07s-6.9,1.09-8.48,4c-2.15,4.08.94,8.87,4.17,12.13a79.82,79.82,0,0,0,22,16.1c2.93,1.44,6,2.75,8.28,5.15s3.33,6.31,1.53,9.07-5.75,3.3-8.84,2.37-5.82-3-8.74-4.44c-5.49-2.75-12.9-3.13-17.06,1.41-2.75,3-3.45,7.48-2.62,11.5a30,30,0,0,0,5.21,10.92c8.05,11.7,18.8,21.57,31.55,27.55s24.88,8.51,38.54,5.09"/><path class="cls-3" d="M92.87,481a369.86,369.86,0,0,0-10.55-41.6Q80.66,434,79,428.65c-1.15-3.53-2.19-7-3.45-10.35a186.36,186.36,0,0,0-8.44-18.88c-3-5.87-6-11.34-8.91-16.42s-5.67-9.78-8.39-13.94a148.07,148.07,0,0,0-14.29-18.69c-1.85-2.06-3.33-3.61-4.36-4.66L30,344.56a2.46,2.46,0,0,0-.41-.38,3.83,3.83,0,0,0,.36.44l1.15,1.23c1,1.07,2.44,2.66,4.25,4.75a156.75,156.75,0,0,1,14.06,18.78c2.68,4.18,5.43,8.87,8.29,14s5.87,10.56,8.82,16.44a189.45,189.45,0,0,1,8.38,18.82c1.26,3.33,2.3,6.81,3.45,10.35s2.19,7.12,3.32,10.75a386.33,386.33,0,0,1,10.55,41.44"/><path class="cls-3" d="M75.32,418.22a7.79,7.79,0,0,0,.6-1.74c.33-1.15.77-2.76,1.27-4.8,1-4.07,2.3-9.74,3.57-16s2.62-11.9,3.7-15.95c.53-2,1-3.65,1.31-4.78a7.24,7.24,0,0,0,.42-1.77,8.27,8.27,0,0,0-.7,1.68c-.42,1.15-.95,2.71-1.54,4.72-1.22,4-2.61,9.67-3.94,15.93s-2.45,11.77-3.34,16.05c-.42,1.92-.76,3.55-1,4.85A8.48,8.48,0,0,0,75.32,418.22Z"/><path class="cls-3" d="M23,402.62a11.79,11.79,0,0,0,2.1.47c1.35.27,3.32.65,5.76,1.15,4.83,1.05,11.5,2.72,18.69,4.89s13.67,4.43,18.29,6.19c2.31.86,4.18,1.62,5.47,2.13a12.18,12.18,0,0,0,2,.73,10.57,10.57,0,0,0-1.91-1c-1.25-.6-3.08-1.43-5.38-2.3-4.6-1.91-11-4.24-18.28-6.43A189.78,189.78,0,0,0,31,403.76c-2.43-.47-4.42-.77-5.75-.94A11,11,0,0,0,23,402.62Z"/><path class="cls-3" d="M92.32,480a6.88,6.88,0,0,0,.44-.61l1.15-1.83c1-1.6,2.3-3.94,3.9-6.9,3.22-5.84,7.41-14.06,11.91-23.18s8.62-17.36,11.71-23.26c1.52-2.87,2.76-5.23,3.68-7,.4-.76.73-1.38,1-1.89a3.55,3.55,0,0,0,.31-.69,2.71,2.71,0,0,0-.44.61L124.82,417c-1,1.6-2.3,3.95-3.9,6.91-3.22,5.84-7.41,14.05-11.91,23.18s-8.62,17.35-11.71,23.26c-1.52,2.86-2.76,5.22-3.68,7l-1,1.9A3,3,0,0,0,92.32,480Z"/><path class="cls-3" d="M23.81,449.64a2.89,2.89,0,0,0,.67.36l2,.91,7.34,3.22c6.19,2.74,14.7,6.66,24.1,11s18,8.15,24.21,10.78c3.11,1.32,5.66,2.36,7.43,3l2,.77c.46.18.72.26.73.22a2.52,2.52,0,0,0-.67-.35l-2-.91-7.34-3.27c-6.18-2.75-14.7-6.66-24.15-11s-18-8.16-24.15-10.78c-3.13-1.31-5.67-2.36-7.44-3l-2-.77A2.59,2.59,0,0,0,23.81,449.64Z"/></g><g id="freepik--Floor--inject-4"><path class="cls-6" d="M551.3,499.05c0,.16-113.87.3-254.33.3s-254.35-.14-254.35-.3,113.87-.3,254.35-.3S551.3,498.88,551.3,499.05Z"/></g><g id="freepik--Servers--inject-4"><path class="cls-6" d="M248.56,479.54H237.93v-1.15h10.63a12.65,12.65,0,0,0,12.65-12.65h0V186.48a15.25,15.25,0,0,1,15.22-15.22h23v1.15h-23a14.1,14.1,0,0,0-14.07,14.07V465.79A13.8,13.8,0,0,1,248.56,479.54Z"/><rect class="cls-6" x="106.29" y="315.4" width="122.49" height="163.56"/><rect class="cls-7" x="88.4" y="342.28" width="133.92" height="33.23"/><rect class="cls-6" x="94.34" y="349.13" width="26.36" height="4.06"/><rect class="cls-6" x="94.34" y="356.11" width="26.36" height="4.06"/><rect class="cls-6" x="94.34" y="363.33" width="26.36" height="4.06"/><path class="cls-6" d="M131.14,351.58a1.52,1.52,0,1,1-1.53-1.51h0A1.53,1.53,0,0,1,131.14,351.58Z"/><path class="cls-6" d="M137.82,351.58a1.52,1.52,0,1,1-1.53-1.51h0A1.52,1.52,0,0,1,137.82,351.58Z"/><path class="cls-6" d="M144.49,351.58a1.52,1.52,0,1,1-1.53-1.51h0A1.52,1.52,0,0,1,144.49,351.58Z"/><path class="cls-6" d="M151.16,351.58a1.52,1.52,0,1,1-1.53-1.51h0A1.51,1.51,0,0,1,151.16,351.58Z"/><path class="cls-6" d="M202.89,351.58a1.52,1.52,0,1,1-1.53-1.51h0A1.53,1.53,0,0,1,202.89,351.58Z"/><path class="cls-6" d="M209.69,351.58a1.52,1.52,0,1,1-1.52-1.51h0A1.51,1.51,0,0,1,209.69,351.58Z"/><path class="cls-6" d="M157.84,351.58a1.52,1.52,0,1,1-1.52-1.51h0A1.51,1.51,0,0,1,157.84,351.58Z"/><path class="cls-6" d="M190.63,351.58a1.52,1.52,0,1,1-1.53-1.51h0A1.52,1.52,0,0,1,190.63,351.58Z"/><path class="cls-5" d="M164.52,351.58a1.52,1.52,0,1,1-1.53-1.51h0A1.52,1.52,0,0,1,164.52,351.58Z"/><path class="cls-5" d="M171.19,351.58a1.52,1.52,0,1,1-1.53-1.51h0A1.53,1.53,0,0,1,171.19,351.58Z"/><path class="cls-5" d="M184.74,351.58a1.52,1.52,0,1,1-1.53-1.51h0A1.52,1.52,0,0,1,184.74,351.58Z"/><path class="cls-5" d="M215.3,351.58a1.52,1.52,0,1,1-1.53-1.51h0A1.52,1.52,0,0,1,215.3,351.58Z"/><path class="cls-8" d="M177.87,351.58a1.52,1.52,0,1,1-1.53-1.51h0A1.52,1.52,0,0,1,177.87,351.58Z"/><path class="cls-8" d="M197,351.58a1.52,1.52,0,1,1-1.53-1.51h0A1.51,1.51,0,0,1,197,351.58Z"/><path class="cls-6" d="M212.21,358.87a1.52,1.52,0,1,1,1.52,1.52h0a1.52,1.52,0,0,1-1.51-1.51Z"/><path class="cls-6" d="M205.53,358.87a1.52,1.52,0,1,1,1.52,1.52,1.52,1.52,0,0,1-1.52-1.52Z"/><path class="cls-6" d="M198.86,358.87a1.52,1.52,0,1,1,1.52,1.52h0A1.51,1.51,0,0,1,198.86,358.87Z"/><path class="cls-6" d="M192.19,358.87a1.52,1.52,0,1,1,1.52,1.52h0a1.51,1.51,0,0,1-1.51-1.51Z"/><path class="cls-6" d="M140.47,358.87a1.52,1.52,0,1,1,1.51,1.52h0a1.51,1.51,0,0,1-1.5-1.51Z"/><path class="cls-6" d="M133.63,358.87a1.52,1.52,0,1,1,1.52,1.52h0a1.52,1.52,0,0,1-1.51-1.51Z"/><path class="cls-6" d="M185.51,358.87a1.52,1.52,0,1,1,1.51,1.52,1.52,1.52,0,0,1-1.51-1.52Z"/><path class="cls-6" d="M152.73,358.87a1.52,1.52,0,1,1,1.51,1.52,1.52,1.52,0,0,1-1.51-1.52Z"/><path class="cls-5" d="M178.84,358.87a1.52,1.52,0,1,1,1.51,1.52h0a1.51,1.51,0,0,1-1.5-1.51Z"/><path class="cls-5" d="M172.16,358.87a1.52,1.52,0,1,1,1.52,1.52h0a1.52,1.52,0,0,1-1.51-1.51Z"/><path class="cls-5" d="M158.62,358.87a1.52,1.52,0,1,1,1.51,1.52h0A1.52,1.52,0,0,1,158.62,358.87Z"/><path class="cls-5" d="M128.11,358.87a1.52,1.52,0,1,1,1.52,1.52,1.52,1.52,0,0,1-1.52-1.52Z"/><path class="cls-8" d="M165.48,358.87a1.52,1.52,0,1,1,1.52,1.52h0A1.52,1.52,0,0,1,165.48,358.87Z"/><path class="cls-8" d="M146.38,358.87a1.52,1.52,0,1,1,1.52,1.52h0a1.51,1.51,0,0,1-1.5-1.51Z"/><path class="cls-6" d="M131.14,365.36a1.52,1.52,0,1,1-1.52-1.52h0a1.51,1.51,0,0,1,1.51,1.5Z"/><circle class="cls-6" cx="136.3" cy="365.36" r="1.51"/><circle class="cls-6" cx="142.97" cy="365.36" r="1.52"/><path class="cls-6" d="M151.16,365.36a1.52,1.52,0,1,1-1.52-1.52h0a1.5,1.5,0,0,1,1.5,1.5Z"/><circle class="cls-6" cx="201.38" cy="365.36" r="1.51"/><circle class="cls-6" cx="208.19" cy="365.36" r="1.51"/><path class="cls-6" d="M157.84,365.36a1.52,1.52,0,1,1-1.51-1.52,1.49,1.49,0,0,1,1.51,1.49Z"/><path class="cls-6" d="M190.63,365.36a1.52,1.52,0,1,1-1.52-1.52,1.52,1.52,0,0,1,1.52,1.52Z"/><circle class="cls-5" cx="163" cy="365.36" r="1.51"/><path class="cls-5" d="M171.19,365.36a1.52,1.52,0,1,1-1.52-1.52h0a1.51,1.51,0,0,1,1.51,1.5Z"/><path class="cls-5" d="M184.74,365.36a1.52,1.52,0,1,1-1.52-1.52,1.52,1.52,0,0,1,1.52,1.52Z"/><path class="cls-5" d="M215.3,365.36a1.52,1.52,0,1,1-1.52-1.52,1.52,1.52,0,0,1,1.52,1.52Z"/><path class="cls-8" d="M177.87,365.36a1.52,1.52,0,1,1-1.52-1.52,1.52,1.52,0,0,1,1.52,1.52Z"/><circle class="cls-8" cx="195.47" cy="365.36" r="1.51"/><rect class="cls-7" x="88.4" y="383.29" width="133.92" height="33.23"/><path class="cls-6" d="M130.82,392.25a1.52,1.52,0,1,1-1.53-1.51h0A1.52,1.52,0,0,1,130.82,392.25Z"/><path class="cls-6" d="M137.49,392.25a1.52,1.52,0,1,1-1.53-1.51h0A1.52,1.52,0,0,1,137.49,392.25Z"/><path class="cls-6" d="M144.16,392.25a1.52,1.52,0,1,1-1.53-1.51h0A1.53,1.53,0,0,1,144.16,392.25Z"/><path class="cls-6" d="M150.89,392.25a1.52,1.52,0,1,1-1.53-1.51h0A1.51,1.51,0,0,1,150.89,392.25Z"/><path class="cls-6" d="M202.56,392.25a1.52,1.52,0,1,1-1.53-1.51h0A1.51,1.51,0,0,1,202.56,392.25Z"/><path class="cls-6" d="M209.36,392.25a1.52,1.52,0,1,1-1.53-1.51h0A1.52,1.52,0,0,1,209.36,392.25Z"/><path class="cls-6" d="M157.51,392.25a1.52,1.52,0,1,1-1.53-1.51h0A1.51,1.51,0,0,1,157.51,392.25Z"/><path class="cls-6" d="M190.29,392.25a1.52,1.52,0,1,1-1.53-1.51h0A1.51,1.51,0,0,1,190.29,392.25Z"/><path class="cls-5" d="M164.18,392.25a1.52,1.52,0,1,1-1.53-1.51h0A1.51,1.51,0,0,1,164.18,392.25Z"/><path class="cls-5" d="M170.85,392.25a1.52,1.52,0,1,1-1.53-1.51h0A1.5,1.5,0,0,1,170.85,392.25Z"/><path class="cls-5" d="M184.4,392.25a1.52,1.52,0,1,1-1.53-1.51h0A1.51,1.51,0,0,1,184.4,392.25Z"/><path class="cls-5" d="M214.91,392.25a1.52,1.52,0,1,1-1.53-1.51h0A1.52,1.52,0,0,1,214.91,392.25Z"/><path class="cls-8" d="M177.54,392.25a1.52,1.52,0,1,1-1.53-1.51h0A1.52,1.52,0,0,1,177.54,392.25Z"/><path class="cls-8" d="M196.64,392.25a1.52,1.52,0,1,1-1.53-1.51h0A1.5,1.5,0,0,1,196.64,392.25Z"/><path class="cls-6" d="M211.85,399.54a1.52,1.52,0,1,1,1.51,1.52h0a1.51,1.51,0,0,1-1.5-1.51Z"/><circle class="cls-6" cx="206.72" cy="399.54" r="1.52"/><path class="cls-6" d="M198.53,399.54a1.52,1.52,0,1,1,1.51,1.52,1.52,1.52,0,0,1-1.51-1.52Z"/><path class="cls-6" d="M191.86,399.54a1.52,1.52,0,1,1,1.51,1.52h0a1.51,1.51,0,0,1-1.5-1.51Z"/><path class="cls-6" d="M140.13,399.54a1.52,1.52,0,1,1,1.52,1.52h0a1.52,1.52,0,0,1-1.51-1.51Z"/><path class="cls-6" d="M133.32,399.54a1.52,1.52,0,1,1,1.52,1.52,1.52,1.52,0,0,1-1.52-1.52Z"/><circle class="cls-6" cx="186.69" cy="399.54" r="1.52"/><path class="cls-6" d="M152.39,399.54a1.52,1.52,0,1,1,1.52,1.52,1.52,1.52,0,0,1-1.52-1.52Z"/><path class="cls-5" d="M178.49,399.54a1.52,1.52,0,1,1,1.52,1.52,1.52,1.52,0,0,1-1.52-1.52Z"/><path class="cls-5" d="M171.83,399.54a1.52,1.52,0,1,1,1.52,1.52h0a1.52,1.52,0,0,1-1.51-1.51Z"/><circle class="cls-5" cx="159.8" cy="399.54" r="1.52"/><path class="cls-5" d="M127.79,399.54a1.52,1.52,0,1,1,1.52,1.52h0a1.52,1.52,0,0,1-1.51-1.51Z"/><path class="cls-8" d="M165.15,399.54a1.52,1.52,0,1,1,1.52,1.52,1.52,1.52,0,0,1-1.52-1.52Z"/><path class="cls-8" d="M146,399.54a1.52,1.52,0,1,1,1.52,1.52h0a1.52,1.52,0,0,1-1.51-1.51Z"/><path class="cls-6" d="M130.82,406a1.52,1.52,0,1,1-1.52-1.52,1.52,1.52,0,0,1,1.52,1.52Z"/><path class="cls-6" d="M137.49,406a1.52,1.52,0,1,1-1.52-1.52,1.52,1.52,0,0,1,1.52,1.52Z"/><path class="cls-6" d="M144.16,406a1.52,1.52,0,1,1-1.52-1.52h0a1.51,1.51,0,0,1,1.51,1.5Z"/><path class="cls-6" d="M150.89,406a1.52,1.52,0,1,1,0-.27Z"/><path class="cls-6" d="M202.56,406a1.52,1.52,0,1,1-1.51-1.52,1.49,1.49,0,0,1,1.51,1.49Z"/><path class="cls-6" d="M209.36,406a1.52,1.52,0,1,1-1.52-1.52h0a1.5,1.5,0,0,1,1.51,1.5Z"/><path class="cls-6" d="M157.51,406a1.52,1.52,0,1,1-1.52-1.52,1.49,1.49,0,0,1,1.52,1.49Z"/><path class="cls-6" d="M190.29,406a1.52,1.52,0,1,1-1.52-1.52,1.49,1.49,0,0,1,1.52,1.49Z"/><path class="cls-5" d="M164.18,406a1.52,1.52,0,1,1-1.52-1.52h0a1.5,1.5,0,0,1,1.5,1.5Z"/><path class="cls-5" d="M170.85,406a1.52,1.52,0,1,1,0-.27A1.22,1.22,0,0,1,170.85,406Z"/><path class="cls-5" d="M184.4,406a1.52,1.52,0,1,1-1.52-1.52A1.49,1.49,0,0,1,184.4,406Z"/><path class="cls-5" d="M214.91,406a1.52,1.52,0,1,1-1.52-1.52,1.52,1.52,0,0,1,1.52,1.52Z"/><path class="cls-8" d="M177.54,406a1.52,1.52,0,1,1-1.52-1.52,1.52,1.52,0,0,1,1.52,1.52Z"/><path class="cls-8" d="M196.64,406a1.52,1.52,0,1,1,0-.27A1.22,1.22,0,0,1,196.64,406Z"/><rect class="cls-6" x="94.34" y="390.13" width="26.36" height="4.06"/><rect class="cls-6" x="94.34" y="397.11" width="26.36" height="4.06"/><rect class="cls-6" x="94.34" y="404.32" width="26.36" height="4.06"/><rect class="cls-7" x="88.4" y="424.29" width="133.92" height="33.23"/><rect class="cls-6" x="94.34" y="431.13" width="26.36" height="4.06"/><rect class="cls-6" x="94.34" y="438.1" width="26.36" height="4.06"/><rect class="cls-6" x="94.34" y="445.33" width="26.36" height="4.06"/><path class="cls-6" d="M130.32,433.25a1.52,1.52,0,1,1-1.52-1.52h0a1.51,1.51,0,0,1,1.51,1.51Z"/><path class="cls-6" d="M137,433.25a1.52,1.52,0,1,1-1.51-1.52,1.5,1.5,0,0,1,1.51,1.5Z"/><path class="cls-6" d="M143.67,433.25a1.52,1.52,0,1,1-1.51-1.52,1.51,1.51,0,0,1,1.51,1.52Z"/><path class="cls-6" d="M150.35,433.25a1.52,1.52,0,1,1-1.52-1.52h0a1.52,1.52,0,0,1,1.51,1.51Z"/><path class="cls-6" d="M202.07,433.25a1.52,1.52,0,1,1-1.52-1.52h0a1.52,1.52,0,0,1,1.51,1.51Z"/><path class="cls-6" d="M208.88,433.25a1.52,1.52,0,1,1-1.52-1.52h0a1.52,1.52,0,0,1,1.51,1.51Z"/><path class="cls-6" d="M157,433.25a1.52,1.52,0,1,1-1.52-1.52,1.52,1.52,0,0,1,1.52,1.52Z"/><path class="cls-6" d="M189.81,433.25a1.52,1.52,0,1,1-1.52-1.52,1.52,1.52,0,0,1,1.52,1.52Z"/><path class="cls-5" d="M163.7,433.25a1.52,1.52,0,1,1-1.52-1.52,1.52,1.52,0,0,1,1.52,1.52Z"/><path class="cls-5" d="M170.37,433.25a1.52,1.52,0,1,1-1.52-1.52h0a1.51,1.51,0,0,1,1.51,1.51Z"/><path class="cls-5" d="M183.92,433.25a1.52,1.52,0,1,1-1.52-1.52,1.52,1.52,0,0,1,1.52,1.52Z"/><path class="cls-5" d="M214.42,433.25a1.52,1.52,0,1,1-1.52-1.52,1.5,1.5,0,0,1,1.52,1.5Z"/><path class="cls-8" d="M177.05,433.25a1.52,1.52,0,1,1-1.52-1.52,1.5,1.5,0,0,1,1.52,1.5Z"/><path class="cls-8" d="M196.16,433.25a1.52,1.52,0,1,1-1.52-1.52h0a1.52,1.52,0,0,1,1.51,1.51Z"/><path class="cls-6" d="M211.4,440.54a1.52,1.52,0,1,1,1.53,1.51h0A1.51,1.51,0,0,1,211.4,440.54Z"/><path class="cls-6" d="M204.71,440.54a1.52,1.52,0,1,1,1.53,1.51h0A1.52,1.52,0,0,1,204.71,440.54Z"/><path class="cls-6" d="M198,440.54a1.52,1.52,0,1,1,1.53,1.51h0A1.53,1.53,0,0,1,198,440.54Z"/><path class="cls-6" d="M191.37,440.54a1.52,1.52,0,1,1,1.53,1.51h0A1.53,1.53,0,0,1,191.37,440.54Z"/><path class="cls-6" d="M139.65,440.54a1.52,1.52,0,1,1,1.53,1.51h0A1.51,1.51,0,0,1,139.65,440.54Z"/><path class="cls-6" d="M132.84,440.54a1.52,1.52,0,1,1,1.53,1.51h0A1.53,1.53,0,0,1,132.84,440.54Z"/><path class="cls-6" d="M184.69,440.54a1.52,1.52,0,1,1,1.53,1.51h0A1.52,1.52,0,0,1,184.69,440.54Z"/><path class="cls-6" d="M151.91,440.54a1.52,1.52,0,1,1,1.53,1.51h0A1.52,1.52,0,0,1,151.91,440.54Z"/><path class="cls-5" d="M178,440.54a1.52,1.52,0,1,1,1.53,1.51h0A1.53,1.53,0,0,1,178,440.54Z"/><path class="cls-5" d="M171.35,440.54a1.52,1.52,0,1,1,1.53,1.51h0A1.52,1.52,0,0,1,171.35,440.54Z"/><path class="cls-5" d="M157.79,440.54a1.52,1.52,0,1,1,1.53,1.51h0A1.51,1.51,0,0,1,157.79,440.54Z"/><path class="cls-5" d="M127.3,440.54a1.52,1.52,0,1,1,1.53,1.51h0A1.51,1.51,0,0,1,127.3,440.54Z"/><path class="cls-8" d="M164.69,440.54a1.52,1.52,0,1,1,1.53,1.51h0A1.51,1.51,0,0,1,164.69,440.54Z"/><path class="cls-8" d="M145.56,440.54a1.52,1.52,0,1,1,1.53,1.51h0A1.53,1.53,0,0,1,145.56,440.54Z"/><path class="cls-6" d="M130.32,447a1.52,1.52,0,1,1-1.52-1.52h0a1.51,1.51,0,0,1,1.51,1.51Z"/><path class="cls-6" d="M137,447a1.52,1.52,0,1,1-1.51-1.52A1.52,1.52,0,0,1,137,447Z"/><path class="cls-6" d="M143.67,447a1.52,1.52,0,1,1-1.51-1.52,1.51,1.51,0,0,1,1.51,1.52Z"/><path class="cls-6" d="M150.35,447a1.52,1.52,0,1,1-1.52-1.52h0a1.52,1.52,0,0,1,1.51,1.51Z"/><path class="cls-6" d="M202.07,447a1.52,1.52,0,1,1-1.52-1.52h0a1.52,1.52,0,0,1,1.51,1.51Z"/><path class="cls-6" d="M208.88,447a1.52,1.52,0,1,1-1.52-1.52h0a1.52,1.52,0,0,1,1.51,1.51Z"/><path class="cls-6" d="M157,447a1.52,1.52,0,1,1-1.52-1.52A1.52,1.52,0,0,1,157,447Z"/><path class="cls-6" d="M189.81,447a1.52,1.52,0,1,1-1.52-1.52,1.52,1.52,0,0,1,1.52,1.52Z"/><path class="cls-5" d="M163.7,447a1.52,1.52,0,1,1-1.52-1.52A1.52,1.52,0,0,1,163.7,447Z"/><path class="cls-5" d="M170.37,447a1.52,1.52,0,1,1-1.52-1.52h0a1.51,1.51,0,0,1,1.51,1.51Z"/><path class="cls-5" d="M183.92,447a1.52,1.52,0,1,1-1.52-1.52,1.52,1.52,0,0,1,1.52,1.52Z"/><path class="cls-5" d="M214.42,447a1.52,1.52,0,1,1-1.52-1.52,1.52,1.52,0,0,1,1.52,1.52Z"/><path class="cls-8" d="M177.05,447a1.52,1.52,0,1,1-1.52-1.52,1.52,1.52,0,0,1,1.52,1.52Z"/><path class="cls-8" d="M196.16,447a1.52,1.52,0,1,1-1.52-1.52h0a1.52,1.52,0,0,1,1.51,1.51Z"/><polygon class="cls-6" points="242.45 375.45 222.31 375.51 222.31 342.28 242.45 342.24 242.45 375.45"/><polygon class="cls-6" points="242.45 416.19 222.31 416.25 222.31 383.02 242.45 382.98 242.45 416.19"/><polygon class="cls-6" points="242.45 457.45 222.31 457.51 222.31 424.29 242.45 424.23 242.45 457.45"/><rect class="cls-6" x="95.32" y="322.63" width="26.36" height="4.06"/><polygon class="cls-6" points="242.45 335.06 222.31 335.12 222.31 301.63 242.45 301.58 242.45 335.06"/><rect class="cls-7" x="89.37" y="301.58" width="133.92" height="33.23"/><rect class="cls-6" x="95.32" y="308.42" width="26.36" height="4.06"/><rect class="cls-6" x="95.32" y="315.4" width="26.36" height="4.06"/><path class="cls-6" d="M132.12,310.87a1.52,1.52,0,1,1-1.53-1.51h0A1.53,1.53,0,0,1,132.12,310.87Z"/><path class="cls-6" d="M138.79,310.87a1.52,1.52,0,1,1-1.53-1.51h0A1.53,1.53,0,0,1,138.79,310.87Z"/><path class="cls-6" d="M145.46,310.87a1.52,1.52,0,1,1-1.53-1.51h0A1.53,1.53,0,0,1,145.46,310.87Z"/><path class="cls-6" d="M152.14,310.87a1.52,1.52,0,1,1-1.53-1.51h0A1.52,1.52,0,0,1,152.14,310.87Z"/><path class="cls-6" d="M203.86,310.87a1.52,1.52,0,1,1-1.53-1.51h0A1.52,1.52,0,0,1,203.86,310.87Z"/><path class="cls-6" d="M210.7,310.87a1.52,1.52,0,1,1-1.53-1.51h0A1.52,1.52,0,0,1,210.7,310.87Z"/><path class="cls-6" d="M158.81,310.87a1.52,1.52,0,1,1-1.53-1.51h0A1.52,1.52,0,0,1,158.81,310.87Z"/><path class="cls-6" d="M191.59,310.87a1.52,1.52,0,1,1-1.53-1.51h0A1.52,1.52,0,0,1,191.59,310.87Z"/><path class="cls-5" d="M165.48,310.87a1.52,1.52,0,1,1-1.53-1.51h0A1.52,1.52,0,0,1,165.48,310.87Z"/><path class="cls-5" d="M172.16,310.87a1.52,1.52,0,1,1-1.53-1.51h0A1.52,1.52,0,0,1,172.16,310.87Z"/><path class="cls-5" d="M185.7,310.87a1.52,1.52,0,1,1-1.53-1.51h0A1.51,1.51,0,0,1,185.7,310.87Z"/><path class="cls-5" d="M216.2,310.87a1.52,1.52,0,1,1-1.52-1.51h0A1.52,1.52,0,0,1,216.2,310.87Z"/><path class="cls-8" d="M178.84,310.87a1.52,1.52,0,1,1-1.53-1.51h0A1.53,1.53,0,0,1,178.84,310.87Z"/><path class="cls-8" d="M198,310.87a1.52,1.52,0,1,1-1.53-1.51h0A1.52,1.52,0,0,1,198,310.87Z"/><path class="cls-6" d="M213.18,318.16a1.52,1.52,0,1,1,1.52,1.52h0a1.5,1.5,0,0,1-1.51-1.51Z"/><circle class="cls-6" cx="208.02" cy="318.16" r="1.52"/><path class="cls-6" d="M199.83,318.16a1.52,1.52,0,1,1,1.51,1.52,1.51,1.51,0,0,1-1.51-1.52Z"/><path class="cls-6" d="M193.16,318.16a1.52,1.52,0,1,1,1.51,1.52h0a1.5,1.5,0,0,1-1.5-1.51Z"/><path class="cls-6" d="M141.43,318.16a1.52,1.52,0,1,1,1.52,1.52h0a1.51,1.51,0,0,1-1.51-1.51Z"/><path class="cls-6" d="M134.62,318.16a1.52,1.52,0,1,1,1.52,1.52,1.51,1.51,0,0,1-1.52-1.52Z"/><path class="cls-6" d="M186.54,318.16a1.52,1.52,0,1,1,1.52,1.52h0a1.51,1.51,0,0,1-1.51-1.51Z"/><circle class="cls-6" cx="155.21" cy="318.16" r="1.52"/><circle class="cls-5" cx="181.32" cy="318.16" r="1.52"/><circle class="cls-5" cx="174.64" cy="318.16" r="1.52"/><path class="cls-5" d="M159.59,318.16a1.52,1.52,0,1,1,1.52,1.52h0a1.51,1.51,0,0,1-1.51-1.51Z"/><circle class="cls-5" cx="130.6" cy="318.16" r="1.52"/><path class="cls-8" d="M166.46,318.16a1.52,1.52,0,1,1,1.52,1.52h0a1.5,1.5,0,0,1-1.51-1.51Z"/><path class="cls-8" d="M147.34,318.16a1.52,1.52,0,1,1,1.52,1.52,1.51,1.51,0,0,1-1.52-1.52Z"/><path class="cls-6" d="M132.12,324.65a1.52,1.52,0,1,1-1.52-1.52,1.52,1.52,0,0,1,1.52,1.52Z"/><path class="cls-6" d="M138.79,324.65a1.52,1.52,0,1,1-1.52-1.52,1.52,1.52,0,0,1,1.52,1.52Z"/><path class="cls-6" d="M145.46,324.65a1.52,1.52,0,1,1-1.52-1.52h0a1.52,1.52,0,0,1,1.51,1.51Z"/><path class="cls-6" d="M152.14,324.65a1.52,1.52,0,1,1-1.52-1.52,1.52,1.52,0,0,1,1.52,1.52Z"/><path class="cls-6" d="M203.86,324.65a1.52,1.52,0,1,1-1.51-1.52,1.52,1.52,0,0,1,1.51,1.52Z"/><path class="cls-6" d="M210.7,324.65a1.52,1.52,0,1,1,0-.26Z"/><path class="cls-6" d="M158.81,324.65a1.52,1.52,0,1,1-1.52-1.52,1.52,1.52,0,0,1,1.52,1.52Z"/><path class="cls-6" d="M191.59,324.65a1.52,1.52,0,1,1-1.52-1.52,1.52,1.52,0,0,1,1.52,1.52Z"/><path class="cls-5" d="M165.48,324.65a1.52,1.52,0,1,1-1.52-1.52h0a1.51,1.51,0,0,1,1.5,1.51Z"/><path class="cls-5" d="M172.16,324.65a1.52,1.52,0,1,1-1.51-1.52,1.52,1.52,0,0,1,1.51,1.52Z"/><path class="cls-5" d="M185.7,324.65a1.52,1.52,0,1,1-1.52-1.52h0a1.51,1.51,0,0,1,1.5,1.51Z"/><path class="cls-5" d="M216.2,324.65a1.52,1.52,0,1,1-1.51-1.52,1.51,1.51,0,0,1,1.51,1.52S216.21,324.64,216.2,324.65Z"/><path class="cls-8" d="M178.84,324.65a1.52,1.52,0,1,1-1.52-1.52,1.52,1.52,0,0,1,1.52,1.52Z"/><path class="cls-8" d="M198,324.65a1.52,1.52,0,1,1-1.52-1.52,1.52,1.52,0,0,1,1.52,1.52Z"/><polygon class="cls-6" points="241.21 499.03 221.07 499.07 221.07 465.86 241.21 465.8 241.21 499.03"/><rect class="cls-7" x="88.13" y="465.86" width="133.92" height="33.23"/><rect class="cls-6" x="94.08" y="472.7" width="26.36" height="4.06"/><rect class="cls-6" x="94.08" y="479.68" width="26.36" height="4.06"/><path class="cls-6" d="M130.87,475.15a1.52,1.52,0,1,1-1.51-1.52,1.52,1.52,0,0,1,1.51,1.52Z"/><path class="cls-6" d="M137.54,475.15a1.52,1.52,0,1,1-1.51-1.52h0a1.51,1.51,0,0,1,1.5,1.51Z"/><path class="cls-6" d="M144.22,475.15a1.52,1.52,0,1,1-1.52-1.52h0a1.52,1.52,0,0,1,1.51,1.51Z"/><path class="cls-6" d="M150.89,475.15a1.52,1.52,0,1,1-1.52-1.52,1.52,1.52,0,0,1,1.52,1.52Z"/><path class="cls-6" d="M202.64,475.15a1.52,1.52,0,1,1-1.51-1.52,1.52,1.52,0,0,1,1.51,1.52Z"/><path class="cls-6" d="M209.43,475.15a1.52,1.52,0,1,1-1.52-1.52,1.52,1.52,0,0,1,1.52,1.52Z"/><path class="cls-6" d="M157.57,475.15a1.52,1.52,0,1,1-1.56-1.47h.05A1.51,1.51,0,0,1,157.57,475.15Z"/><path class="cls-6" d="M190.35,475.15a1.52,1.52,0,1,1-1.56-1.47h.05A1.51,1.51,0,0,1,190.35,475.15Z"/><path class="cls-5" d="M164.24,475.15a1.52,1.52,0,1,1-1.56-1.47h0A1.51,1.51,0,0,1,164.24,475.15Z"/><path class="cls-5" d="M170.92,475.15a1.52,1.52,0,1,1-1.56-1.47h0A1.51,1.51,0,0,1,170.92,475.15Z"/><path class="cls-5" d="M184.46,475.15a1.52,1.52,0,1,1-1.52-1.52h0a1.51,1.51,0,0,1,1.51,1.51Z"/><path class="cls-5" d="M215,475.15a1.52,1.52,0,1,1-1.56-1.47h.06A1.5,1.5,0,0,1,215,475.15Z"/><path class="cls-8" d="M177.59,475.15a1.52,1.52,0,1,1-1.51-1.52h0a1.51,1.51,0,0,1,1.5,1.51Z"/><path class="cls-8" d="M196.71,475.15a1.52,1.52,0,1,1-1.52-1.52,1.52,1.52,0,0,1,1.52,1.52Z"/><path class="cls-6" d="M211.94,482.44a1.52,1.52,0,1,1,1.53,1.51h0A1.51,1.51,0,0,1,211.94,482.44Z"/><path class="cls-6" d="M205.27,482.44A1.52,1.52,0,1,1,206.8,484h0A1.51,1.51,0,0,1,205.27,482.44Z"/><path class="cls-6" d="M198.58,482.44a1.52,1.52,0,1,1,1.53,1.51h0A1.52,1.52,0,0,1,198.58,482.44Z"/><path class="cls-6" d="M191.91,482.44a1.52,1.52,0,1,1,1.53,1.51h0A1.52,1.52,0,0,1,191.91,482.44Z"/><path class="cls-6" d="M140.19,482.44a1.52,1.52,0,1,1,1.53,1.51h0A1.52,1.52,0,0,1,140.19,482.44Z"/><path class="cls-6" d="M133.38,482.44a1.52,1.52,0,1,1,1.53,1.51h0A1.52,1.52,0,0,1,133.38,482.44Z"/><path class="cls-6" d="M185.24,482.44a1.52,1.52,0,1,1,1.53,1.51h0A1.53,1.53,0,0,1,185.24,482.44Z"/><path class="cls-6" d="M152.46,482.44A1.52,1.52,0,1,1,154,484h0A1.53,1.53,0,0,1,152.46,482.44Z"/><path class="cls-5" d="M178.56,482.44a1.52,1.52,0,1,1,1.53,1.51h0A1.52,1.52,0,0,1,178.56,482.44Z"/><path class="cls-5" d="M171.89,482.44a1.52,1.52,0,1,1,1.53,1.51h0A1.51,1.51,0,0,1,171.89,482.44Z"/><path class="cls-5" d="M158.35,482.44a1.52,1.52,0,1,1,1.53,1.51h0A1.53,1.53,0,0,1,158.35,482.44Z"/><path class="cls-5" d="M127.88,482.44a1.52,1.52,0,1,1,1.53,1.51h0A1.53,1.53,0,0,1,127.88,482.44Z"/><path class="cls-8" d="M165.22,482.44a1.52,1.52,0,1,1,1.53,1.51h0A1.51,1.51,0,0,1,165.22,482.44Z"/><path class="cls-8" d="M146.1,482.44a1.52,1.52,0,1,1,1.53,1.51h0A1.52,1.52,0,0,1,146.1,482.44Z"/><path class="cls-6" d="M130.87,488.92a1.52,1.52,0,1,1-1.53-1.51h0A1.51,1.51,0,0,1,130.87,488.92Z"/><path class="cls-6" d="M137.54,488.92a1.52,1.52,0,1,1-1.53-1.51h0A1.51,1.51,0,0,1,137.54,488.92Z"/><circle class="cls-6" cx="142.71" cy="488.92" r="1.52"/><path class="cls-6" d="M150.89,488.92a1.52,1.52,0,1,1-1.53-1.51h0A1.52,1.52,0,0,1,150.89,488.92Z"/><circle class="cls-6" cx="201.1" cy="488.92" r="1.52"/><circle class="cls-6" cx="207.91" cy="488.92" r="1.52"/><path class="cls-6" d="M157.57,488.92a1.52,1.52,0,1,1-1.53-1.51h0A1.53,1.53,0,0,1,157.57,488.92Z"/><path class="cls-6" d="M190.35,488.92a1.52,1.52,0,1,1-1.53-1.51h0A1.53,1.53,0,0,1,190.35,488.92Z"/><path class="cls-5" d="M164.24,488.92a1.52,1.52,0,1,1-1.53-1.51h0A1.51,1.51,0,0,1,164.24,488.92Z"/><circle class="cls-5" cx="169.4" cy="488.92" r="1.52"/><path class="cls-5" d="M184.46,488.92a1.52,1.52,0,1,1-1.53-1.51h0A1.53,1.53,0,0,1,184.46,488.92Z"/><path class="cls-5" d="M215,488.92a1.52,1.52,0,1,1-1.53-1.51h0A1.51,1.51,0,0,1,215,488.92Z"/><path class="cls-8" d="M177.59,488.92a1.52,1.52,0,1,1-1.53-1.51h0A1.51,1.51,0,0,1,177.59,488.92Z"/><circle class="cls-8" cx="195.19" cy="488.92" r="1.52"/><path class="cls-6" d="M262.3,249.87h-1.15v-1.38a17.68,17.68,0,0,1,17.65-17.65h6.28V232H278.8a16.52,16.52,0,0,0-16.5,16.5Z"/><path class="cls-6" d="M262.3,315.48h-1.15v-1.39a17.67,17.67,0,0,1,17.65-17.64h6.28v1.15H278.8a16.52,16.52,0,0,0-16.5,16.49Z"/><path class="cls-6" d="M262.3,372.38h-1.15V371a17.66,17.66,0,0,1,17.65-17.63h6.28v1.15H278.8A16.52,16.52,0,0,0,262.3,371Z"/><path class="cls-6" d="M262.3,436.07h-1.15v-1.39A17.69,17.69,0,0,1,278.8,417h6.28v1.15H278.8a16.54,16.54,0,0,0-16.5,16.5Z"/></g><g id="freepik--Character--inject-4"><path class="cls-8" d="M73,397.25l.41,21.92s-22,5.95-22.32,10l42.39,2.54.75-34.17Z"/><path class="cls-9" d="M86.59,417.55a1.73,1.73,0,0,1,1.15,2,1.68,1.68,0,0,1-2,1.15,1.84,1.84,0,0,1-1.22-2.13,1.73,1.73,0,0,1,2.19-1"/><path class="cls-9" d="M93.48,431.72l.08-3.45-40.19-1.63S51,427.9,51,429.22Z"/><path class="cls-6" d="M72.73,418.94c0,.21,1,.32,2,1s1.54,1.57,1.74,1.49-.11-1.28-1.34-2.09S72.67,418.75,72.73,418.94Z"/><path class="cls-6" d="M68.23,420.77c0,.2.86.56,1.55,1.46s.87,1.82,1.08,1.82.35-1.15-.52-2.3S68.25,420.52,68.23,420.77Z"/><path class="cls-6" d="M65.62,426c.19,0,.49-1,0-2.12s-1.48-1.61-1.57-1.45.5.79.91,1.73S65.42,426,65.62,426Z"/><path class="cls-6" d="M73.19,413.94c.08.18,1-.08,2.21,0s2.08.49,2.2.31-.76-.93-2.14-1S73.09,413.77,73.19,413.94Z"/><path class="cls-6" d="M73.18,409.51a3.89,3.89,0,0,0,2.14,0,9,9,0,0,0,2.23-.64,10.11,10.11,0,0,0,1.23-.62,2.67,2.67,0,0,0,.66-.5.91.91,0,0,0,.11-1.15,1.1,1.1,0,0,0-.89-.49,2.73,2.73,0,0,0-.81.1,7.62,7.62,0,0,0-1.33.42,7.2,7.2,0,0,0-2,1.27c-1,.9-1.36,1.67-1.29,1.7s.59-.57,1.6-1.31a8.66,8.66,0,0,1,1.92-1A6.66,6.66,0,0,1,78,406.9c.45-.12.84-.1.94.09s0,.12,0,.24a2.41,2.41,0,0,1-.48.36,9.78,9.78,0,0,1-1.15.62,12.06,12.06,0,0,1-2.08.76A14.38,14.38,0,0,0,73.18,409.51Z"/><path class="cls-6" d="M73.44,409.82a3.33,3.33,0,0,0,.6-2.05,6.89,6.89,0,0,0-.25-2.3,6.3,6.3,0,0,0-.52-1.3,1.76,1.76,0,0,0-1.33-1.09,1,1,0,0,0-.91.58,3,3,0,0,0-.23.78,4.9,4.9,0,0,0,.85,3.64c.82,1.15,1.68,1.38,1.69,1.32a8.78,8.78,0,0,1-1.26-1.59,5,5,0,0,1-.64-2,5.14,5.14,0,0,1,0-1.24c.07-.44.25-.81.42-.75a1.53,1.53,0,0,1,.73.7,7.88,7.88,0,0,1,.51,1.15,8.15,8.15,0,0,1,.38,2.14C73.57,409,73.34,409.79,73.44,409.82Z"/><path class="cls-6" d="M201.49,263.71l-104.44,19A30.68,30.68,0,0,0,72.46,305.6c-.13.53-.24,1.07-.35,1.63-3.45,17.67-3.63,98.48-3.63,98.48l28.35-.39L102,314.07l80.51-11a23.68,23.68,0,0,0,14.43-7.51C203.7,288,205.82,277.69,201.49,263.71Z"/><path class="cls-8" d="M84.83,354.41l1.92,21.85s-21.54,7.45-21.59,11.5l42.48-.34L106,353.24Z"/><path class="cls-9" d="M99.8,373.72a1.76,1.76,0,0,1,1.3,1.92,1.66,1.66,0,0,1-1.89,1.3,1.84,1.84,0,0,1-1.37-2,1.74,1.74,0,0,1,2.12-1.15"/><path class="cls-9" d="M107.64,387.42l-.16-3.46-40.2,1.16s-2.14,1.71-2.12,2.64Z"/><path class="cls-6" d="M86.06,376.06c0,.21,1.06.24,2.11.87s1.64,1.45,1.84,1.35-.2-1.26-1.49-2S86,375.91,86.06,376.06Z"/><path class="cls-6" d="M81.7,378.13c0,.21.88.52,1.62,1.36s1,1.75,1.16,1.74a2.21,2.21,0,0,0-.67-2.23C82.86,378,81.69,377.94,81.7,378.13Z"/><path class="cls-6" d="M79.45,383.6c.18,0,.42-1-.17-2.12s-1.58-1.52-1.66-1.33.55.74,1,1.66S79.24,383.59,79.45,383.6Z"/><path class="cls-6" d="M86.17,371c.1.18,1-.15,2.2-.13s2.12.33,2.21.15-.81-.87-2.19-.87S86.06,370.88,86.17,371Z"/><path class="cls-6" d="M85.87,366.63a4.23,4.23,0,0,0,2.12-.12,9.45,9.45,0,0,0,2.19-.81,10.37,10.37,0,0,0,1.15-.7,2.9,2.9,0,0,0,.62-.54.89.89,0,0,0,0-1.15,1.16,1.16,0,0,0-.93-.43,2.63,2.63,0,0,0-.79.15,8.2,8.2,0,0,0-1.3.52,7.61,7.61,0,0,0-1.9,1.39c-.93,1-1.23,1.76-1.15,1.8s.55-.61,1.51-1.42a8.19,8.19,0,0,1,1.85-1.15,7.58,7.58,0,0,1,1.15-.44c.45-.13.83-.16,1,0s0,.11,0,.23a1.57,1.57,0,0,1-.46.39,8.75,8.75,0,0,1-1.08.71,11.37,11.37,0,0,1-2,.89A13.51,13.51,0,0,0,85.87,366.63Z"/><path class="cls-6" d="M86.14,366.91a3.45,3.45,0,0,0,.46-2.08,6.64,6.64,0,0,0-.41-2.3,6.46,6.46,0,0,0-.61-1.27,1.75,1.75,0,0,0-1.42-1,1,1,0,0,0-.85.63,3.7,3.7,0,0,0-.18.8,5,5,0,0,0,1.1,3.58c.89,1.06,1.76,1.26,1.77,1.15a11.56,11.56,0,0,1-1.36-1.49,4.81,4.81,0,0,1-.77-2,3.63,3.63,0,0,1,0-1.23c0-.45.18-.83.35-.78a1.56,1.56,0,0,1,.78.66,5.43,5.43,0,0,1,.59,1.15,7.92,7.92,0,0,1,.53,2.09C86.21,366.09,86,366.88,86.14,366.91Z"/><path class="cls-6" d="M199.73,264.2l-97.22-21.44a20.26,20.26,0,0,0-9.49-.91h0a20.27,20.27,0,0,0-17.25,22.67L77.14,361l34.19-2.23L110,280.33Z"/><path class="cls-7" d="M76,279a1.41,1.41,0,0,1,0,.41v1.15c0,1.08,0,2.63.12,4.6.08,4.06.19,9.91.33,17.25.23,14.69.57,35.18,1,58.55l-.32-.29,20.18-1.06,14.56-.7-.29.3c-.61-24.8-1.15-46.7-1.55-62.43-.16-7.84-.3-14.14-.39-18.51,0-2.15-.07-3.82-.08-5V272a1.62,1.62,0,0,1,0-.44V272a11.09,11.09,0,0,0,.06,1.29c0,1.15.1,2.84.18,5,.14,4.36.33,10.66.59,18.5.43,15.73,1,37.63,1.74,62.43v.28h-.29l-14.52.76-20.17,1.05h-.31V361c-.3-23.37-.56-43.87-.74-58.54-.07-7.32-.13-13.17-.16-17.26v-5.75A3.15,3.15,0,0,1,76,279Z"/><path class="cls-7" d="M109.83,279.3c0-.16,8.13-2.06,18.21-4.23s18.31-3.82,18.41-3.66-8.12,2.06-18.22,4.24S109.87,279.47,109.83,279.3Z"/><path class="cls-7" d="M114.29,270a3.22,3.22,0,0,1,.31,1.62,8.89,8.89,0,0,1-3.27,7,3.22,3.22,0,0,1-1.42.81,14.86,14.86,0,0,0,3.32-4.19A14.55,14.55,0,0,0,114.29,270Z"/><path class="cls-10" d="M181.79,162.61l-22.06-1.78c-.14-2.58,0-12.54,0-12.54s-9.2-1.42-9.28-10.59,1.47-30.24,1.47-30.24h0a31.83,31.83,0,0,1,32,4l1.44,1Z"/><path class="cls-11" d="M159.77,148.18a21.41,21.41,0,0,0,12-3.45s-2.83,6.6-12,5.75Z"/><path class="cls-10" d="M184.24,122.06c.16-.07,6.3-1.87,6.11,4.4s-6.45,4.78-6.47,4.6S184.24,122.06,184.24,122.06Z"/><path class="cls-11" d="M185.86,128.75l.3.16a1.06,1.06,0,0,0,.82,0,2.68,2.68,0,0,0,1.32-2.38,3.65,3.65,0,0,0-.25-1.57,1.31,1.31,0,0,0-.8-.87.55.55,0,0,0-.65.28c-.09.17-.06.3-.09.31s-.13-.11-.07-.37a.66.66,0,0,1,.25-.39.88.88,0,0,1,.61-.14,1.53,1.53,0,0,1,1.15,1,3.66,3.66,0,0,1,.32,1.76,2.82,2.82,0,0,1-1.68,2.65,1.16,1.16,0,0,1-1-.19C185.87,128.9,185.85,128.75,185.86,128.75Z"/><path class="cls-6" d="M155.8,121.72a1.32,1.32,0,0,0,1.26,1.33,1.27,1.27,0,0,0,1.36-1.15,1.33,1.33,0,0,0-1.27-1.33A1.26,1.26,0,0,0,155.8,121.72Z"/><path class="cls-6" d="M153.7,120.39c.17.17,1.15-.56,2.57-.56s2.45.71,2.6.54-.09-.39-.54-.72a3.6,3.6,0,0,0-2.08-.64,3.47,3.47,0,0,0-2,.66C153.77,120,153.62,120.31,153.7,120.39Z"/><path class="cls-6" d="M169.84,122.2a1.31,1.31,0,0,0,1.27,1.31,1.24,1.24,0,0,0,1.34-1.13v0a1.32,1.32,0,0,0-1.26-1.33,1.25,1.25,0,0,0-1.35,1.14Z"/><path class="cls-6" d="M167.56,120.65c.16.17,1.15-.56,2.57-.56s2.44.71,2.6.54-.09-.39-.54-.71a3.61,3.61,0,0,0-2.08-.65,3.48,3.48,0,0,0-2.05.66C167.63,120.26,167.48,120.57,167.56,120.65Z"/><path class="cls-6" d="M162.45,131.11a8.62,8.62,0,0,0-2.3-.41c-.36,0-.71-.12-.76-.36a1.82,1.82,0,0,1,.24-1.07l1.06-2.74a46.16,46.16,0,0,0,2.39-7.18,45.26,45.26,0,0,0-3,7l-1,2.74a2.12,2.12,0,0,0-.18,1.42.94.94,0,0,0,.59.53,2.49,2.49,0,0,0,.61.08A9.89,9.89,0,0,0,162.45,131.11Z"/><path class="cls-6" d="M166.6,132.08c-.23,0-.23,1.51-1.54,2.61s-2.95.91-3,1.15.37.3,1.06.31a3.85,3.85,0,0,0,2.46-.85,3.35,3.35,0,0,0,1.15-2.19C166.87,132.44,166.7,132.08,166.6,132.08Z"/><path class="cls-6" d="M167.2,115.12c.13.39,1.55.21,3.2.4s3,.66,3.21.32c.1-.18-.13-.53-.67-.9a5.4,5.4,0,0,0-2.39-.84,5.33,5.33,0,0,0-2.5.3C167.45,114.64,167.14,114.94,167.2,115.12Z"/><path class="cls-6" d="M154.22,116.31c.25.32,1.22,0,2.39,0s2.16.2,2.39-.13c.1-.16-.06-.48-.49-.78a3.44,3.44,0,0,0-3.85.11C154.26,115.82,154.12,116.15,154.22,116.31Z"/><path class="cls-6" d="M147.5,101.69a3.39,3.39,0,0,1,1.25-3,2.4,2.4,0,0,1,3.11.23,2.79,2.79,0,0,1,2-3.38,2.2,2.2,0,0,1,.37-.07c1.49-.09,2.77,1,4.21,1.43a6.82,6.82,0,0,0,4.29-.5c1.36-.54,2.62-1.3,4-1.79a11.73,11.73,0,0,1,15,6.9,5.2,5.2,0,0,1,5.52,2.08,8.56,8.56,0,0,1,1.31,6,19.89,19.89,0,0,1-1,4.1v.36c-.1,5-.66,11-2.82,11-3.75,0-2.85-7-2.85-7-4.61-1.78-2.89-8.67-4-9.72s-3.57-3.45-13.19,1.45a18.62,18.62,0,0,1-11.45,1.23h-.31a8.27,8.27,0,0,1-2.47-1,4.9,4.9,0,0,1-2-2.3,2.67,2.67,0,0,1,.53-2.87A5.91,5.91,0,0,1,147.5,101.69Z"/><path class="cls-8" d="M225,227.71a12.54,12.54,0,0,1-6.39,14.37h-.1c-3.85,1.92-9.2,1.47-12.9-.2l-3.16-1.42,1.07,26.45c-15.6,10.16-58.66,2.49-67.06-15.49,0-4.6-1.91-41.83-1.91-41.83l-.79-41.34c7.32-7.21,11.25-9.37,21.46-10.58l3.94-.44a39.19,39.19,0,0,0,23.53,0h0c3.62.15,6.63,1.27,9.73,1.86,9.73,1.87,16.73,8.95,18.69,15.51C212.69,180,223,219.94,223,219.94Z"/><path class="cls-8" d="M144.25,160.38s-9.72,3.31-13.8,12.65c-2.66,6.1-6.58,35.46-6.58,35.46L118.93,218a16,16,0,0,0-1.79,7.38v1.46a16.09,16.09,0,0,0,3.6,10.14h0a16.14,16.14,0,0,0,11,5.85c4.92.44,10.89.63,12.16-.82,2.3-2.56,5.62-9.46,5.62-9.46l-14.38-7.64,6.19-11.5Z"/><path class="cls-6" d="M197.08,217.29c.17,0,.32-6.15.32-13.73s-.15-13.73-.32-13.73-.31,6.14-.31,13.73S196.89,217.29,197.08,217.29Z"/><path class="cls-6" d="M141,206.9a48,48,0,0,0,.32-7.86,48,48,0,0,0-.32-7.86,50.37,50.37,0,0,0-.31,7.86A50.37,50.37,0,0,0,141,206.9Z"/><path class="cls-8" d="M203.43,265c1.15-.19,1.78,1.53,1.15,2.5a5.71,5.71,0,0,1-2.91,1.8c-3.68,1.46-6.7,4.18-10.18,6.08-7.41,4-16.33,4-24.71,3a46.77,46.77,0,0,1-13.86-3.45,21.14,21.14,0,0,1-10.35-9.49c-1.15-2.36-1.76-5-3.25-7.17-1-1.42-2.3-2.57-3.36-3.95a5.85,5.85,0,0,1-1.33-4.85c.46-1.66,2.56-2.88,4-2"/><g class="cls-12"><path d="M173.56,274.15a26.61,26.61,0,0,1-15.16-7.26,50.72,50.72,0,0,1-10-13.8c-.37-.69-1.15-1.51-1.79-1a1.3,1.3,0,0,0-.36.66,13.57,13.57,0,0,0,2.75,12,22.11,22.11,0,0,0,10.65,6.9,62.33,62.33,0,0,0,12.65,2.3"/></g><path class="cls-3" d="M207.37,168.54a.42.42,0,0,1-.06.18,3.78,3.78,0,0,1-.27.53,7.09,7.09,0,0,1-1.49,1.74,9.14,9.14,0,0,1-3.18,1.7,11.83,11.83,0,0,1-4.77.34,24.29,24.29,0,0,1-5.61-1.47c-1.94-.72-4-1.62-6.15-2.3a25.29,25.29,0,0,0-14.72-.22,38.47,38.47,0,0,0-7.12,3.1,22.1,22.1,0,0,1-6.9,2.47,14.39,14.39,0,0,1-6.6-.84,43,43,0,0,1-5.26-2.39,43.75,43.75,0,0,0-7.53-3.45c-1.88-.57-3-.64-3-.7a3.39,3.39,0,0,1,.78,0,12.76,12.76,0,0,1,2.3.42,41.52,41.52,0,0,1,7.66,3.29,43.29,43.29,0,0,0,5.22,2.3,14,14,0,0,0,6.38.77,21.56,21.56,0,0,0,6.72-2.46,38.57,38.57,0,0,1,7.22-3.14,25.61,25.61,0,0,1,15.06.28c2.22.73,4.24,1.65,6.16,2.39a24.66,24.66,0,0,0,5.47,1.51,11.69,11.69,0,0,0,4.6-.25,9,9,0,0,0,3.14-1.56A8.55,8.55,0,0,0,207.37,168.54Z"/><path class="cls-3" d="M196.48,196.59c0,.07-.79.11-2.22.42a53.18,53.18,0,0,0-6,1.67,46.58,46.58,0,0,1-8.94,2.3,16.28,16.28,0,0,1-5.48-.27,21.77,21.77,0,0,1-5.44-2.25c-3.45-2-6.65-4.15-9.94-5.11a21.32,21.32,0,0,0-9-.48,47.68,47.68,0,0,0-6,1.33l-1.62.45a2.85,2.85,0,0,1-.58.12,4.06,4.06,0,0,1,.53-.24c.36-.14.9-.33,1.6-.56a40.29,40.29,0,0,1,6-1.51,21.18,21.18,0,0,1,9.2.36c3.45,1,6.61,3.19,10.06,5.13a22,22,0,0,0,5.29,2.18,15.7,15.7,0,0,0,5.29.3,47.42,47.42,0,0,0,8.87-2.15,45.09,45.09,0,0,1,6-1.48,12,12,0,0,1,1.68-.19A1.79,1.79,0,0,1,196.48,196.59Z"/><path class="cls-3" d="M220.23,209.23a11.41,11.41,0,0,0-3.45.13,15.17,15.17,0,0,0-3.57,1.32c-1.3.63-2.68,1.45-4.24,2.15a11.69,11.69,0,0,1-4.68,1.15,10.79,10.79,0,0,1-3.9-.64,10,10,0,0,1-2.3-1.23c-.51-.37-.75-.63-.72-.65a23,23,0,0,0,3.19,1.47,10.8,10.8,0,0,0,3.74.5,11.5,11.5,0,0,0,4.46-1.15c1.52-.68,2.91-1.47,4.25-2.11a15.19,15.19,0,0,1,3.72-1.23,7.43,7.43,0,0,1,2.66,0A2.27,2.27,0,0,1,220.23,209.23Z"/><path class="cls-3" d="M140.79,199.84a8.62,8.62,0,0,0-2.3-.41,9.82,9.82,0,0,0-2.53.4q-1.56.48-3.15.81a7.54,7.54,0,0,1-5.76-1.36,4.4,4.4,0,0,1-1.62-1.85c.09-.07.64.71,1.87,1.49a7.57,7.57,0,0,0,5.4,1.15c1.15-.18,2.13-.52,3.11-.74a9.27,9.27,0,0,1,2.68-.3A3.24,3.24,0,0,1,140.79,199.84Z"/><path class="cls-3" d="M202,246c0,.07-1-.19-2.73-.27a21.6,21.6,0,0,0-7.39,1.15,74.73,74.73,0,0,0-10.22,4.46,56.8,56.8,0,0,1-6.12,2.61,24.34,24.34,0,0,1-7,1.46,16.16,16.16,0,0,1-7.07-1.25,32.33,32.33,0,0,1-5.75-3.33c-1.75-1.15-3.37-2.36-4.95-3.35a22.48,22.48,0,0,0-4.6-2.3,13.08,13.08,0,0,0-7.32-.66,15.72,15.72,0,0,0-2.57,1,7.15,7.15,0,0,1,2.51-1.22,13,13,0,0,1,7.52.47A23,23,0,0,1,151,247c1.61,1,3.25,2.15,5,3.33a33.71,33.71,0,0,0,5.7,3.23,15.55,15.55,0,0,0,6.81,1.15c4.82-.25,9.13-2.19,12.91-4a68.26,68.26,0,0,1,10.36-4.37,25.26,25.26,0,0,1,4.23-.9,17.11,17.11,0,0,1,3.28-.07,10.84,10.84,0,0,1,2,.31A2.7,2.7,0,0,1,202,246Z"/><path class="cls-3" d="M146.39,258.6a10.76,10.76,0,0,0-3.76-1.32,10.53,10.53,0,0,0-3.92.73c0-.06.28-.42,1-.77a6,6,0,0,1,5.83.45C146.17,258.11,146.44,258.52,146.39,258.6Z"/><path class="cls-3" d="M195.74,272.89c-.07,0-.12-.55-.53-1.46a8.18,8.18,0,0,0-2.66-3.17,11.53,11.53,0,0,0-5.76-2.08,18.59,18.59,0,0,0-7.48,1.29c-2.58.94-4.94,2.1-7.15,3a31.51,31.51,0,0,1-6.08,2,15.59,15.59,0,0,1-4.31.25,11.05,11.05,0,0,1-1.15-.2c-.26,0-.39-.1-.39-.12a18.84,18.84,0,0,0,5.75-.35,33.77,33.77,0,0,0,6-2.06c2.18-.94,4.55-2.12,7.16-3.08a18.62,18.62,0,0,1,7.74-1.29,11.66,11.66,0,0,1,6,2.3,7.84,7.84,0,0,1,2.62,3.45,4.64,4.64,0,0,1,.3,1.15C195.74,272.75,195.8,272.89,195.74,272.89Z"/><path class="cls-6" d="M146.29,260c.05,0,.27.82,1,2.18a16.82,16.82,0,0,0,4.1,4.94c4.17,3.62,11.76,5.89,20.08,6.48a34.76,34.76,0,0,0,11.62-1.22,59.14,59.14,0,0,0,9-3.45c2.49-1.15,4.47-2.22,5.84-2.92l1.59-.81a2.9,2.9,0,0,1,.57-.25,3.68,3.68,0,0,1-.52.35l-1.52.9c-1.35.77-3.29,1.88-5.76,3.11a54.28,54.28,0,0,1-9,3.61,34.35,34.35,0,0,1-11.84,1.33,49.73,49.73,0,0,1-11.73-2.16,24.35,24.35,0,0,1-8.6-4.6,15.84,15.84,0,0,1-4-5.16,10.35,10.35,0,0,1-.66-1.67A2.12,2.12,0,0,1,146.29,260Z"/><g class="cls-12"><path d="M202.44,240.85c-2.61.4-5.39-1-7.81-2.06s-5.36-1.83-7.61-.43A26.35,26.35,0,0,0,184.2,241c-2.66,2.3-6.55,2.23-10,1.83-8.21-.94-16.21-3.14-24.16-5.34-.78-.21-4-1.43-4-1.43l3.56-.81,3.27-1,2.5-.54,24.55,3.76s1.68-1.77,1.68-1.82L176,228.91c8.06,3.58,25.95,11.65,26.46,11.59"/></g><path class="cls-10" d="M149.15,210.17l.75-.56a17.25,17.25,0,0,1,13.53-3.13h0a23.74,23.74,0,0,1,10.55,5l5.89,4.85-6.27,11.26-4.31-6s-4,5.39-4.68,4.83a9.28,9.28,0,0,1-1.57-2.3l2.84-4-6.82,1.43-10-4.61,4.27-5.39-4.27,1.41Z"/><path class="cls-6" d="M203.18,240.85a2.29,2.29,0,0,0-.55-.31l-1.64-.8-6.18-2.88-21.08-9.63.15.44c1.3-2.3,2.64-4.75,4-7.23l2.49-4.48-.3.15,25.2,2.48,7.49.67,2,.15a4.33,4.33,0,0,0,.72,0,3.45,3.45,0,0,0-.7-.13l-2-.26-7.46-.86-25.18-2.68H180l-.1.17c-.8,1.44-1.66,2.95-2.51,4.5l-4,7.22-.16.29.3.13,21.17,9.42,6.25,2.73,1.69.7A3.19,3.19,0,0,0,203.18,240.85Z"/><path class="cls-6" d="M137.88,226.47a3.71,3.71,0,0,0-1-.16,10.16,10.16,0,0,0-2.91.17,3.46,3.46,0,0,0-1.82,1,4.91,4.91,0,0,0-.95,2.18,5.23,5.23,0,0,0,.24,2.63,5,5,0,0,0,1.74,2.23,13,13,0,0,0,5,1.78,22.55,22.55,0,0,0,4.27.41,7.7,7.7,0,0,0,3.87-.67,20.8,20.8,0,0,1-3.86.23,25.47,25.47,0,0,1-4.17-.55,13.08,13.08,0,0,1-4.72-1.71,4.47,4.47,0,0,1-1-6.2,3.12,3.12,0,0,1,1.54-.94,11.69,11.69,0,0,1,2.77-.36A4.21,4.21,0,0,0,137.88,226.47Z"/><path class="cls-6" d="M132.17,243.1a6.85,6.85,0,0,0,2.46.3,15.87,15.87,0,0,0,6-1,12.93,12.93,0,0,0,3-1.57,7.07,7.07,0,0,0,1.83-2.06,5.62,5.62,0,0,0,.88-2.3c-.1,0-.42.86-1.26,2.1a7,7,0,0,1-1.8,1.83,13.39,13.39,0,0,1-2.84,1.46A18.21,18.21,0,0,1,134.6,243,16.45,16.45,0,0,0,132.17,243.1Z"/><path class="cls-6" d="M125.29,213.3a11.56,11.56,0,0,0,1.71,2c1.15,1.15,2.65,2.85,4.4,4.6s3.35,3.38,4.53,4.52a11.24,11.24,0,0,0,2,1.75,11.18,11.18,0,0,0-1.69-2.06c-1.15-1.15-2.66-2.86-4.41-4.6A59.71,59.71,0,0,0,125.29,213.3Z"/><polygon class="cls-6" points="159.66 209.14 181.55 235.66 179.87 237.48 144.34 232.06 126.73 205.55 128.37 204.08 159.66 209.14"/><path class="cls-10" d="M136.44,216.14h0a3.37,3.37,0,0,1,3.15,2.15c.53,1.38,1.3,3,2.15,3.45,1.59.87,4.32,1.56,5.75.85s7.18-5.86,8.18-5.29,1.86,1.87.86,3-6.31,4.6-5.31,5.75,12.2-3.91,13.93-3.45,2.72,1.5,1.71,2.19-8.6,3.57-9,4.61c0,0,11.5-3,11.92-2.3s1.15,1.86,0,2.3-11.06,3-11.92,3.45a21.26,21.26,0,0,1-4.43,1.3,44.62,44.62,0,0,0-4.6,1.46,10.21,10.21,0,0,1-7.14-.19L140.5,235a4.6,4.6,0,0,1-2.83-4.49l.24-3.92-1.25-3.23Z"/><path class="cls-7" d="M126.73,205.69a2.89,2.89,0,0,0,.66.16l1.91.34,7,1.15,10.35,1.59,6.14.93a11.78,11.78,0,0,1,5.95,2.41,39.54,39.54,0,0,1,4.33,5l3.88,4.84,6.62,8.19c1.85,2.3,3.37,4.12,4.49,5.47l1.25,1.48a4.34,4.34,0,0,0,.47.49,3.56,3.56,0,0,0-.37-.58l-1.15-1.54L173.89,230l-6.5-8.27-3.85-4.87a38.62,38.62,0,0,0-4.41-5.07,12.12,12.12,0,0,0-6.24-2.54l-6.16-.9-10.43-1.47-7-.93-1.92-.22A2.15,2.15,0,0,0,126.73,205.69Z"/><path class="cls-13" d="M143.3,211.44a2.93,2.93,0,0,1,1,.8,1,1,0,0,1,0,1.15,1.14,1.14,0,0,1-1.47,0,1.49,1.49,0,0,1-.56-.85,1,1,0,0,1,.3-.95.78.78,0,0,1,1,0"/><g class="cls-12"><path d="M137.29,225.73c-4-3.7-7.24-7.46-11.22-11.15-.81-.76-1.7-1.89-1.15-2.85a1.64,1.64,0,0,1,1.62-.72,4.24,4.24,0,0,1,1.72.69c4.8,3,6.57,9.08,9,14"/></g><path class="cls-3" d="M200.93,239.32a2.35,2.35,0,0,1,.25-.89,7.74,7.74,0,0,1,1.5-2,10.51,10.51,0,0,0,3.35-6.9,22.08,22.08,0,0,0-.9-7.83,23.5,23.5,0,0,1-.82-3.23,15.11,15.11,0,0,1,1.22,3.11,19.67,19.67,0,0,1,1.15,8,11.25,11.25,0,0,1-1.31,4.31,10.78,10.78,0,0,1-2.3,2.82,10.39,10.39,0,0,0-1.6,1.78C201.3,238.84,201.12,239.08,200.93,239.32Z"/><path class="cls-3" d="M188.29,217.34a5.48,5.48,0,0,1,.24,2.41,11.68,11.68,0,0,1-1.76,5.62,11.9,11.9,0,0,1-4.25,4.06,5.63,5.63,0,0,1-2.3.85c0-.09.82-.42,2.05-1.22a12.65,12.65,0,0,0,5.81-9.34C188.28,218.27,188.19,217.35,188.29,217.34Z"/><path class="cls-3" d="M132.48,222a1.9,1.9,0,0,1,.14.81,4.8,4.8,0,0,1-.54,2.2,5.21,5.21,0,0,1-2.41,2.3,11.75,11.75,0,0,1-4,.62,6.74,6.74,0,0,0-3.45,1.46,7.83,7.83,0,0,0-2,2.44,12.12,12.12,0,0,0-.87,2.82,1.94,1.94,0,0,1,0-.83,5.84,5.84,0,0,1,.55-2.17,7.32,7.32,0,0,1,2-2.68,6.9,6.9,0,0,1,3.77-1.63,12.6,12.6,0,0,0,3.86-.54,5.06,5.06,0,0,0,2.3-2A6.81,6.81,0,0,0,132.48,222Z"/></g><g id="freepik--Plant--inject-4"><path class="cls-8" d="M531.6,88.06a17.17,17.17,0,0,1,10.77.14,8.94,8.94,0,0,1,4.93,3c1.15,1.63,1,4.2-.66,5.24a5.08,5.08,0,0,1-3.45.39c-2.8-.42-5.83-1.32-8.31,0-1.4.79-2.47,2.3-4.06,2.54a3.62,3.62,0,0,1-3.73-2.3,6.2,6.2,0,0,1,.17-4.6A7,7,0,0,1,531.6,88.06Z"/><path class="cls-8" d="M526.13,72.81c1.59,3.08,5.55,2.67,7.56,1.15s3.09-3.87,4.09-6.16c2.3-5.21,4.6-10.69,4.22-16.37a9.23,9.23,0,0,0-1.51-4.81,4.88,4.88,0,0,0-4.37-2.15c-2,.25-3.45,2-4.61,3.67a40.14,40.14,0,0,0-6.22,16.49,13.93,13.93,0,0,0,.81,8.14"/><path class="cls-8" d="M520.17,76.11a10.33,10.33,0,0,0,2.87-9.2,18.39,18.39,0,0,0-4.5-8.85,30.35,30.35,0,0,0-9.2-7.26A10.82,10.82,0,0,0,505,49.44a4.76,4.76,0,0,0-4.08,1.77c-1.33,1.87-.64,4.44.18,6.58a77.08,77.08,0,0,0,5.24,10.87c1.62,2.8,3.54,5.61,6.38,7.16s6,1.84,7.86,0"/><path class="cls-6" d="M520.27,115.26a7.81,7.81,0,0,0,.34-1.26c.22-.91.5-2.08.82-3.46a48.68,48.68,0,0,1,1.47-5,40.58,40.58,0,0,1,2.68-5.75,22.92,22.92,0,0,1,3.82-5A11.41,11.41,0,0,1,533.75,92a10.92,10.92,0,0,1,3.45-.59,5.65,5.65,0,0,0,1.3,0,6.3,6.3,0,0,0-1.29-.2,10,10,0,0,0-3.56.44,11.62,11.62,0,0,0-4.6,2.71,22,22,0,0,0-3.94,5.15,35.24,35.24,0,0,0-2.68,5.9,40.7,40.7,0,0,0-1.38,5.09c-.31,1.46-.52,2.66-.66,3.45A5.64,5.64,0,0,0,520.27,115.26Z"/><path class="cls-6" d="M520.86,112.6A1.94,1.94,0,0,0,521,112c.06-.45.14-1,.23-1.71.18-1.47.48-3.6.91-6.22.84-5.25,2.06-10.86,4-18.72,1.85-7.41,4.14-16,6.09-21.52.42-1.27.82-2.4,1.15-3.37s.68-1.85,1-2.53l.62-1.6a2.46,2.46,0,0,0,.19-.58,2.1,2.1,0,0,0-.29.53l-.71,1.57c-.31.66-.66,1.51-1,2.49s-.84,2.11-1.29,3.36a194.6,194.6,0,0,0-6,19.91c-2,7.89-3.33,15.13-4.08,20.4-.39,2.64-.62,4.78-.75,6.26,0,.69-.09,1.27-.12,1.72A2.32,2.32,0,0,0,520.86,112.6Z"/><path class="cls-6" d="M522.8,98.55a13.4,13.4,0,0,0,.23-1.77c.09-1.15.15-2.82.1-4.88a64.53,64.53,0,0,0-.62-7.21A57.32,57.32,0,0,0,520.7,76a44.5,44.5,0,0,0-6.78-14.53,24.62,24.62,0,0,0-1.77-2.17c-.28-.29-.52-.59-.76-.84l-.72-.64a10.05,10.05,0,0,0-1.37-1.15,52.93,52.93,0,0,1,4.31,5,46.94,46.94,0,0,1,6.58,14.47,66.11,66.11,0,0,1,1.84,8.6,71.53,71.53,0,0,1,.72,7.15c.1,2,.09,3.71.07,4.86A11.62,11.62,0,0,0,522.8,98.55Z"/></g><g id="freepik--speech-bubble--inject-4"><path class="cls-8" d="M93.22,107.74H91.34l-4.07-5.67V98.34s-2.89-.18-2.54,4.69,0,3.65,0,3.65-6.13,0-6.64.55-.54,6.48-.6,9.78a3.58,3.58,0,0,0,2.53,3.6,2.5,2.5,0,0,0,.66.09c1.53,0,9.34-1.24,9.34-1.24h3.23Z"/><polygon class="cls-8" points="98.55 106.71 97.4 119.49 94.21 119.49 94.21 106.98 98.55 106.71"/><path class="cls-6" d="M122,138.19h-.3l-.91-.09-3.57-.35-13.61-1.43-.15-.16.27.14a31.9,31.9,0,0,1-15.9,5.58,32.24,32.24,0,0,1-20.19-5.5A31.82,31.82,0,0,1,54.55,103a32.31,32.31,0,0,1,5.87-12.45,31.87,31.87,0,0,1,44.7-5.68c.45.35.89.71,1.31,1.08a31.2,31.2,0,0,1,7,8.55,33.76,33.76,0,0,1,3.45,9.49c.12.81.24,1.59.35,2.3a19.75,19.75,0,0,1,.16,2.3,25,25,0,0,1-.08,4.41,32,32,0,0,1-1.72,7.73v-.18c2,5.56,3.6,10,4.7,13l1.22,3.45.31.88a1.63,1.63,0,0,1,.09.28,1.66,1.66,0,0,1-.12-.31l-.36-.89c-.3-.81-.74-2-1.31-3.45l-4.85-12.82h0a31.28,31.28,0,0,0,1.65-7.65,26.21,26.21,0,0,0,0-4.34,18.2,18.2,0,0,0-.17-2.3c-.17-.79-.24-1.53-.37-2.3a32.32,32.32,0,0,0-3.45-9.34,30.45,30.45,0,0,0-6.9-8.41,31.38,31.38,0,0,0-51,16.82,31.74,31.74,0,0,0-.2,13,31.32,31.32,0,0,0,13,19.8,31.89,31.89,0,0,0,19.85,5.47,31.41,31.41,0,0,0,15.74-5.4l.26.14-.15-.18L117,137.67l3.61.43,1,.13Z"/></g><g id="freepik--Panel--inject-4"><rect class="cls-5" x="284.35" y="86.29" width="240.82" height="361.21"/><rect class="cls-9" x="284.35" y="138" width="240.82" height="59.25"/><rect class="cls-9" x="284.35" y="264.01" width="240.82" height="59.25"/><circle class="cls-8" cx="315.17" cy="167.87" r="12.24" transform="translate(98.98 452.08) rotate(-80.78)"/><path class="cls-14" d="M321.25,164.28c.35.36-2.05,3.23-5.34,6.41-.67.65-1.33,1.26-2,1.81l-.65.58-.54-.59c-2.24-2.39-3.67-4.29-3.39-4.6s2.19,1.15,4.6,3.37h-1.15c.56-.6,1.21-1.24,1.88-1.88C318,166.16,320.91,163.87,321.25,164.28Z"/><path class="cls-6" d="M340.44,179.68a102.24,102.24,0,0,1-.3-11.07,102.61,102.61,0,0,1,.3-11.09,100.11,100.11,0,0,1,.29,11.09A99.75,99.75,0,0,1,340.44,179.68Z"/><circle class="cls-8" cx="314.38" cy="227.46" r="12.24" transform="translate(-73.39 213.01) rotate(-33.75)"/><path class="cls-14" d="M320.47,223.8c.34.36-2.05,3.23-5.34,6.41-.68.65-1.34,1.26-1.95,1.82l-.65.57L312,232c-2.23-2.39-3.66-4.29-3.38-4.6s2.17,1.15,4.6,3.36h-1.15c.57-.6,1.21-1.24,1.89-1.88C317.17,225.73,320.12,223.45,320.47,223.8Z"/><path class="cls-6" d="M339.65,239.26a102.35,102.35,0,0,1-.3-11.08,102.42,102.42,0,0,1,.3-11.08,102.49,102.49,0,0,1,.3,11.08A102.35,102.35,0,0,1,339.65,239.26Z"/><rect class="cls-8" x="363.38" y="231.21" width="64.13" height="8.27"/><circle class="cls-8" cx="315.17" cy="293.63" r="12.24"/><path class="cls-14" d="M321.25,290c.35.35-2.05,3.22-5.34,6.39-.67.66-1.33,1.27-2,1.82l-.65.58-.54-.58c-2.24-2.41-3.67-4.3-3.39-4.6s2.19,1.15,4.6,3.37h-1.15c.56-.6,1.21-1.23,1.88-1.89C318,292,320.91,289.65,321.25,290Z"/><path class="cls-6" d="M340.44,305.45a102.42,102.42,0,0,1-.3-11.08,102.35,102.35,0,0,1,.3-11.08,99.86,99.86,0,0,1,.29,11.08A99.93,99.93,0,0,1,340.44,305.45Z"/><rect class="cls-8" x="364.18" y="297.39" width="29.76" height="8.27"/><path class="cls-7" d="M327.28,354.59a12.23,12.23,0,1,1-10.46-13.8,12.23,12.23,0,0,1,10.46,13.8Z"/><path class="cls-6" d="M340.4,365a105,105,0,0,1-.3-11.08,107.8,107.8,0,0,1,.3-11.08,102.42,102.42,0,0,1,.3,11.08A102.35,102.35,0,0,1,340.4,365Z"/><path class="cls-6" d="M451.26,365V363c0-1.35,0-3.3-.06-5.75l.11.12c-14.52.1-48.06.18-87.11.18h0l.3-.3h0V365l-.3-.3,61.76.13,18.53.09h6.82a1.48,1.48,0,0,1-.42,0h-6.25l-18.46.08-62,.13h-.3V357h0l.3-.3h0c39.05,0,72.59.07,87.11.18h.12V357c0,2.53,0,4.5-.07,5.87v1.49A4.09,4.09,0,0,1,451.26,365Z"/><path class="cls-14" d="M319.1,348.91c.36.34-1.15,2.42-3.29,4.66s-4.23,3.75-4.6,3.39,1.15-2.43,3.3-4.6S318.74,348.56,319.1,348.91Z"/><path class="cls-14" d="M319.19,356.87c-.34.35-2.42-1.15-4.66-3.29s-3.75-4.24-3.45-4.6,2.44,1.15,4.66,3.29S319.54,356.52,319.19,356.87Z"/><rect class="cls-8" x="364.18" y="171.94" width="74.04" height="8.06"/><path class="cls-6" d="M451.29,180V178c0-1.36,0-3.31-.06-5.76l.12.12c-14.53.11-48.07.18-87.12.18h0l.3-.3h0V180l-.3-.3,61.77.12,18.53.08h6.36a3.53,3.53,0,0,1,.46,0h-6.67l-18.46.09-62,.12h-.3V172h0l.3-.3h0c39,0,72.59.07,87.12.19h.11V172c0,2.53,0,4.5-.07,5.87v1.49A3.31,3.31,0,0,1,451.29,180Z"/><path class="cls-6" d="M450.51,239.26a4.69,4.69,0,0,1,0-.53v-1.52c0-1.35,0-3.3-.07-5.75l.13.12c-14.54.1-48.08.18-87.12.18h0l.3-.3h0v7.82l-.3-.29,61.78.12,18.53.09h6.82a1.55,1.55,0,0,1-.43,0h-6.24l-18.46.08-62,.13h-.29v-8.12h0c-.26.26.37-.37.31-.3h0c39,0,72.58.07,87.12.17h.11v.12c0,2.53-.05,4.5-.07,5.85v1.51A1.56,1.56,0,0,1,450.51,239.26Z"/><path class="cls-6" d="M451.29,305.45v-2.06c0-1.35,0-3.3-.06-5.75l.12.13c-14.53.1-48.07.17-87.12.17h0l.3-.3h0v7.85l-.3-.3,61.77.13,18.53.08h6.36a1.77,1.77,0,0,1,.46,0h-6.67l-18.46.09-62,.12h-.3v-8.14h0l.3-.3h0c39,0,72.59.08,87.12.19h.11v.11c0,2.53,0,4.5-.07,5.87v1.49A3.21,3.21,0,0,1,451.29,305.45Z"/><rect class="cls-9" x="284.35" y="388.27" width="240.82" height="59.25"/><circle class="cls-8" cx="315.17" cy="417.88" r="12.24"/><path class="cls-14" d="M321.25,414.25c.35.36-2.05,3.22-5.34,6.39-.67.66-1.33,1.27-2,1.82l-.65.59-.54-.59c-2.24-2.4-3.67-4.3-3.39-4.6s2.19,1.15,4.6,3.37h-1.15c.56-.6,1.21-1.23,1.88-1.89C318,416.17,320.91,413.87,321.25,414.25Z"/><path class="cls-6" d="M340.44,429.71a102.61,102.61,0,0,1-.3-11.09,102.49,102.49,0,0,1,.3-11.08,100,100,0,0,1,.29,11.08A100.11,100.11,0,0,1,340.44,429.71Z"/><rect class="cls-8" x="364.18" y="421.64" width="29.76" height="8.27"/><path class="cls-6" d="M451.29,429.71v-2.06c0-1.36,0-3.3-.06-5.75l.12.12c-14.53.11-48.07.18-87.12.18h0l.3-.3h0v7.84l-.3-.3,61.77.13,18.53.08h.15l-18.46.09-62,.13h-.3v-7.95h0l.3-.3h0c39,0,72.59.08,87.12.19h.11v.11c0,2.53,0,4.5-.07,5.87v1.49A3,3,0,0,1,451.29,429.71Z"/><rect class="cls-6" x="300.93" y="106.86" width="11.73" height="3.38" rx="0.2"/><rect class="cls-6" x="300.93" y="111.1" width="11.73" height="3.38" rx="0.2"/><rect class="cls-6" x="300.93" y="115.32" width="11.73" height="3.38" rx="0.2"/><circle class="cls-6" cx="512.57" cy="106.2" r="1.81"/><path class="cls-6" d="M514.34,111.1a1.81,1.81,0,1,1-1.81-1.8h0A1.8,1.8,0,0,1,514.34,111.1Z"/><circle class="cls-6" cx="512.57" cy="116.28" r="1.81"/><path class="cls-6" d="M525.19,447.51c0-2.46-.12-148.51-.28-361.22l.28.27H284.39l.3-.3c0,136.19,0,261.78-.06,361.23l-.32-.27,240.83.25-240.83.23h-.23v-.23c0-99.45,0-225.05-.07-361.23v-.3h241.4v.28C525.29,299,525.19,445.05,525.19,447.51Z"/><path class="cls-8" d="M369.16,165.4l-.16,0h-.35c-.73,0-1.19-.47-1.37-1.41l-.55.91a2.1,2.1,0,0,1-.66.09,1.65,1.65,0,0,1-.87-.21,1.24,1.24,0,0,1-.49-.47,1.65,1.65,0,0,1,0-.65,1.83,1.83,0,0,1,.16-.62,5.27,5.27,0,0,1,.78-.74,8.2,8.2,0,0,1,1.33-.85l0-.47.87-.63h.27v2.93a1.64,1.64,0,0,0,.09.73c.06.07.26.11.59.11H369l.16,0Zm-2.78-1.65a6.56,6.56,0,0,0,.78-.06c0-.15-.05-.6-.11-1.34a7.37,7.37,0,0,0-1,.51,4.41,4.41,0,0,0-.8.57A1.82,1.82,0,0,0,366.38,163.75Zm1.67-4.5a2,2,0,0,1-.3.37l-.31.27-.12.09a3.53,3.53,0,0,1-.62-.6,2,2,0,0,1-.28.31l-.26.22-.1.07a2.8,2.8,0,0,1-.38-.32c-.12-.12-.2-.22-.26-.29l-.08-.12a5.54,5.54,0,0,1,.72-.73,3.42,3.42,0,0,1,.64.62,7.23,7.23,0,0,1,.62-.62A3.81,3.81,0,0,1,368.05,159.25Z"/><path class="cls-8" d="M372.06,165.43H372a2,2,0,0,1-1.61-.77,3.13,3.13,0,0,1-.63.67,1.73,1.73,0,0,1-.73.1l-.16,0v-1.22l.16,0a5.51,5.51,0,0,0,.93-.07l.39-1.55.75-.48.21.06a11.18,11.18,0,0,1-.23,1.88,2.32,2.32,0,0,0,1,.16l.16,0v1.22Zm-.33,1.32a2.14,2.14,0,0,1-.29.33,1.87,1.87,0,0,1-.28.25l-.11.09a3.08,3.08,0,0,1-.58-.56,3.58,3.58,0,0,1-.26.29l-.24.2-.09.07a3.17,3.17,0,0,1-.34-.3,2.33,2.33,0,0,1-.24-.27l-.08-.1a5.49,5.49,0,0,1,.66-.69,3,3,0,0,1,.6.58,6.29,6.29,0,0,1,.57-.58A3.31,3.31,0,0,1,371.73,166.75Z"/><path class="cls-8" d="M378.08,165.4l-.16,0h-.63a3.91,3.91,0,0,1-2.19-.56,5.57,5.57,0,0,1-2.48.56h-.56l-.16,0v-1.22l.16,0h2.18v0l-1.17-1.26-.37.48-.25-.17q.48-1.42.87-1.59a4.67,4.67,0,0,1,.89-.2,8.66,8.66,0,0,1,1.22-.09,5.32,5.32,0,0,1,1.23.14,1.42,1.42,0,0,1,.72.32,1.19,1.19,0,0,1,0,.55,1.94,1.94,0,0,1-.08.53,4.59,4.59,0,0,1-1.12,1.32h1.71l.16,0Zm-2.75-1.56.15-.06a3.69,3.69,0,0,0,1.4-1.16,6.42,6.42,0,0,0-1.62-.17,10.67,10.67,0,0,0-1.35.09l.66.67A7.36,7.36,0,0,0,375.33,163.84Z"/><path class="cls-8" d="M383.31,165.4l-.16,0h-.3a1.16,1.16,0,0,1-.7-.19,1.66,1.66,0,0,1-.49-.57l-.56.85a8.43,8.43,0,0,1-1-.1,1.64,1.64,0,0,1-.72-.2,2.16,2.16,0,0,1-.32-.56,1,1,0,0,1-1.1.77l-.16,0v-1.22l.16,0a1.89,1.89,0,0,0,.85-.17,3.54,3.54,0,0,1,.68-1.66,1.61,1.61,0,0,1,1.27-.81.86.86,0,0,1,.36.08,1.34,1.34,0,0,1,.29.2,1.75,1.75,0,0,1,.26.34c.09.16.16.29.21.4s.12.27.2.47a9.43,9.43,0,0,0,.45.95.68.68,0,0,0,.55.2h.11l.16,0ZM379.26,164l0,0a5.44,5.44,0,0,0,2.14.25l-.19-.42a3.74,3.74,0,0,0-.54-.95.44.44,0,0,0-.34-.16.85.85,0,0,0-.61.37A2.62,2.62,0,0,0,379.26,164Z"/><path class="cls-8" d="M386.31,164.75a6.64,6.64,0,0,1-1.11.53,4,4,0,0,1-1.22.15h-.83l-.16,0v-1.22l.16,0h1.35a5.7,5.7,0,0,0,1.89-.33,5.58,5.58,0,0,1,.63-.21,4.9,4.9,0,0,1-1.21-.54l-.6-.36-.61-.33-.87.59-.23-.26.27-.4a6.65,6.65,0,0,1,.55-.63,1.07,1.07,0,0,1,.63-.39.51.51,0,0,1,.17,0l.23.1.26.15.36.22.4.24a4.37,4.37,0,0,0,1.12.47,3.51,3.51,0,0,0,.87.16h.87l.07.22-.4.9h-.8a1.84,1.84,0,0,0-.52.19l-.69.42Zm.88,1.84a2.3,2.3,0,0,1-.38-.33,2.63,2.63,0,0,1-.26-.29l-.08-.11a5.66,5.66,0,0,1,.72-.74,4.13,4.13,0,0,1,.73.74,2.38,2.38,0,0,1-.3.36,3.09,3.09,0,0,1-.31.28Z"/><path class="cls-8" d="M369.16,226.4l-.16,0h-.35c-.73,0-1.19-.47-1.37-1.41l-.55.91a2.1,2.1,0,0,1-.66.09,1.65,1.65,0,0,1-.87-.21,1.24,1.24,0,0,1-.49-.47,1.65,1.65,0,0,1,0-.65,1.83,1.83,0,0,1,.16-.62,5.27,5.27,0,0,1,.78-.74,8.2,8.2,0,0,1,1.33-.85l0-.47.87-.63h.27v2.93a1.64,1.64,0,0,0,.09.73c.06.07.26.11.59.11H369l.16,0Zm-2.78-1.65a6.56,6.56,0,0,0,.78-.06c0-.15-.05-.6-.11-1.34a7.37,7.37,0,0,0-1,.51,4.41,4.41,0,0,0-.8.57A1.82,1.82,0,0,0,366.38,224.75Zm1.67-4.5a2,2,0,0,1-.3.37l-.31.27-.12.09a3.53,3.53,0,0,1-.62-.6,2,2,0,0,1-.28.31l-.26.22-.1.07a2.8,2.8,0,0,1-.38-.32c-.12-.12-.2-.22-.26-.29l-.08-.12a5.54,5.54,0,0,1,.72-.73,3.42,3.42,0,0,1,.64.62,7.23,7.23,0,0,1,.62-.62A3.81,3.81,0,0,1,368.05,220.25Z"/><path class="cls-8" d="M372.06,226.43H372a2,2,0,0,1-1.61-.77,3.13,3.13,0,0,1-.63.67,1.73,1.73,0,0,1-.73.1l-.16,0v-1.22l.16,0a5.51,5.51,0,0,0,.93-.07l.39-1.55.75-.48.21.06a11.18,11.18,0,0,1-.23,1.88,2.32,2.32,0,0,0,1,.16l.16,0v1.22Zm-.33,1.32a2.14,2.14,0,0,1-.29.33,1.87,1.87,0,0,1-.28.25l-.11.09a3.08,3.08,0,0,1-.58-.56,3.58,3.58,0,0,1-.26.29l-.24.2-.09.07a3.17,3.17,0,0,1-.34-.3,2.33,2.33,0,0,1-.24-.27l-.08-.1a5.49,5.49,0,0,1,.66-.69,3,3,0,0,1,.6.58,6.29,6.29,0,0,1,.57-.58A3.31,3.31,0,0,1,371.73,227.75Z"/><path class="cls-8" d="M378.08,226.4l-.16,0h-.63a3.91,3.91,0,0,1-2.19-.56,5.57,5.57,0,0,1-2.48.56h-.56l-.16,0v-1.22l.16,0h2.18v0l-1.17-1.26-.37.48-.25-.17q.48-1.42.87-1.59a4.67,4.67,0,0,1,.89-.2,8.66,8.66,0,0,1,1.22-.09,5.32,5.32,0,0,1,1.23.14,1.42,1.42,0,0,1,.72.32,1.19,1.19,0,0,1,0,.55,1.94,1.94,0,0,1-.08.53,4.59,4.59,0,0,1-1.12,1.32h1.71l.16,0Zm-2.75-1.56.15-.06a3.69,3.69,0,0,0,1.4-1.16,6.42,6.42,0,0,0-1.62-.17,10.67,10.67,0,0,0-1.35.09l.66.67A7.36,7.36,0,0,0,375.33,224.84Z"/><path class="cls-8" d="M383.31,226.4l-.16,0h-.3a1.16,1.16,0,0,1-.7-.19,1.66,1.66,0,0,1-.49-.57l-.56.85a8.43,8.43,0,0,1-1-.1,1.64,1.64,0,0,1-.72-.2,2.16,2.16,0,0,1-.32-.56,1,1,0,0,1-1.1.77l-.16,0v-1.22l.16,0a1.89,1.89,0,0,0,.85-.17,3.54,3.54,0,0,1,.68-1.66,1.61,1.61,0,0,1,1.27-.81.86.86,0,0,1,.36.08,1.34,1.34,0,0,1,.29.2,1.75,1.75,0,0,1,.26.34c.09.16.16.29.21.4s.12.27.2.47a9.43,9.43,0,0,0,.45.95.68.68,0,0,0,.55.2h.11l.16,0ZM379.26,225l0,0a5.44,5.44,0,0,0,2.14.25l-.19-.42a3.74,3.74,0,0,0-.54-.95.44.44,0,0,0-.34-.16.85.85,0,0,0-.61.37A2.62,2.62,0,0,0,379.26,225Z"/><path class="cls-8" d="M386.31,225.75a6.64,6.64,0,0,1-1.11.53,4,4,0,0,1-1.22.15h-.83l-.16,0v-1.22l.16,0h1.35a5.7,5.7,0,0,0,1.89-.33,5.58,5.58,0,0,1,.63-.21,4.9,4.9,0,0,1-1.21-.54l-.6-.36-.61-.33-.87.59-.23-.26.27-.4a6.65,6.65,0,0,1,.55-.63,1.07,1.07,0,0,1,.63-.39.51.51,0,0,1,.17,0l.23.1.26.15.36.22.4.24a4.37,4.37,0,0,0,1.12.47,3.51,3.51,0,0,0,.87.16h.87l.07.22-.4.9h-.8a1.84,1.84,0,0,0-.52.19l-.69.42Zm.88,1.84a2.3,2.3,0,0,1-.38-.33,2.63,2.63,0,0,1-.26-.29l-.08-.11a5.66,5.66,0,0,1,.72-.74,4.13,4.13,0,0,1,.73.74,2.38,2.38,0,0,1-.3.36,3.09,3.09,0,0,1-.31.28Z"/><path class="cls-8" d="M369.16,287.4l-.16,0h-.35c-.73,0-1.19-.47-1.37-1.41l-.55.91a2.1,2.1,0,0,1-.66.09,1.65,1.65,0,0,1-.87-.21,1.24,1.24,0,0,1-.49-.47,1.65,1.65,0,0,1,0-.65,1.83,1.83,0,0,1,.16-.62,5.27,5.27,0,0,1,.78-.74,8.2,8.2,0,0,1,1.33-.85l0-.47.87-.63h.27v2.93a1.64,1.64,0,0,0,.09.73c.06.07.26.11.59.11H369l.16,0Zm-2.78-1.65a6.56,6.56,0,0,0,.78-.06c0-.15-.05-.6-.11-1.34a7.37,7.37,0,0,0-1,.51,4.41,4.41,0,0,0-.8.57A1.82,1.82,0,0,0,366.38,285.75Zm1.67-4.5a2,2,0,0,1-.3.37l-.31.27-.12.09a3.53,3.53,0,0,1-.62-.6,2,2,0,0,1-.28.31l-.26.22-.1.07a2.8,2.8,0,0,1-.38-.32c-.12-.12-.2-.22-.26-.29l-.08-.12a5.54,5.54,0,0,1,.72-.73,3.42,3.42,0,0,1,.64.62,7.23,7.23,0,0,1,.62-.62A3.81,3.81,0,0,1,368.05,281.25Z"/><path class="cls-8" d="M372.06,287.43H372a2,2,0,0,1-1.61-.77,3.13,3.13,0,0,1-.63.67,1.73,1.73,0,0,1-.73.1l-.16,0v-1.22l.16,0a5.51,5.51,0,0,0,.93-.07l.39-1.55.75-.48.21.06a11.18,11.18,0,0,1-.23,1.88,2.32,2.32,0,0,0,1,.16l.16,0v1.22Zm-.33,1.32a2.14,2.14,0,0,1-.29.33,1.87,1.87,0,0,1-.28.25l-.11.09a3.08,3.08,0,0,1-.58-.56,3.58,3.58,0,0,1-.26.29l-.24.2-.09.07a3.17,3.17,0,0,1-.34-.3,2.33,2.33,0,0,1-.24-.27l-.08-.1a5.49,5.49,0,0,1,.66-.69,3,3,0,0,1,.6.58,6.29,6.29,0,0,1,.57-.58A3.31,3.31,0,0,1,371.73,288.75Z"/><path class="cls-8" d="M378.08,287.4l-.16,0h-.63a3.91,3.91,0,0,1-2.19-.56,5.57,5.57,0,0,1-2.48.56h-.56l-.16,0v-1.22l.16,0h2.18v0l-1.17-1.26-.37.48-.25-.17q.48-1.43.87-1.59a4.67,4.67,0,0,1,.89-.2,8.66,8.66,0,0,1,1.22-.09,5.32,5.32,0,0,1,1.23.14,1.42,1.42,0,0,1,.72.32,1.19,1.19,0,0,1,0,.55,1.94,1.94,0,0,1-.08.53,4.59,4.59,0,0,1-1.12,1.32h1.71l.16,0Zm-2.75-1.56.15-.06a3.69,3.69,0,0,0,1.4-1.16,6.42,6.42,0,0,0-1.62-.17,10.67,10.67,0,0,0-1.35.09l.66.67A7.36,7.36,0,0,0,375.33,285.84Z"/><path class="cls-8" d="M383.31,287.4l-.16,0h-.3a1.16,1.16,0,0,1-.7-.19,1.66,1.66,0,0,1-.49-.57l-.56.85a8.43,8.43,0,0,1-1-.1,1.64,1.64,0,0,1-.72-.2,2.16,2.16,0,0,1-.32-.56,1,1,0,0,1-1.1.77l-.16,0v-1.22l.16,0a1.89,1.89,0,0,0,.85-.17,3.54,3.54,0,0,1,.68-1.66,1.61,1.61,0,0,1,1.27-.81.86.86,0,0,1,.36.08,1.34,1.34,0,0,1,.29.2,1.75,1.75,0,0,1,.26.34c.09.16.16.29.21.4s.12.27.2.47a9.43,9.43,0,0,0,.45.95.68.68,0,0,0,.55.2h.11l.16,0ZM379.26,286l0,0a5.44,5.44,0,0,0,2.14.25l-.19-.42a3.74,3.74,0,0,0-.54-.95.44.44,0,0,0-.34-.16.85.85,0,0,0-.61.37A2.62,2.62,0,0,0,379.26,286Z"/><path class="cls-8" d="M386.31,286.75a6.64,6.64,0,0,1-1.11.53,4,4,0,0,1-1.22.15h-.83l-.16,0v-1.22l.16,0h1.35a5.7,5.7,0,0,0,1.89-.33,5.58,5.58,0,0,1,.63-.21,4.9,4.9,0,0,1-1.21-.54l-.6-.36-.61-.33-.87.59-.23-.26.27-.4a6.65,6.65,0,0,1,.55-.63,1.07,1.07,0,0,1,.63-.39.51.51,0,0,1,.17,0l.23.1.26.15.36.22.4.24a4.37,4.37,0,0,0,1.12.47,3.51,3.51,0,0,0,.87.16h.87l.07.22-.4.9h-.8a1.84,1.84,0,0,0-.52.19l-.69.42Zm.88,1.84a2.3,2.3,0,0,1-.38-.33,2.63,2.63,0,0,1-.26-.29l-.08-.11a5.66,5.66,0,0,1,.72-.74,4.13,4.13,0,0,1,.73.74,2.38,2.38,0,0,1-.3.36,3.09,3.09,0,0,1-.31.28Z"/><path class="cls-8" d="M369.16,351.4l-.16,0h-.35c-.73,0-1.19-.47-1.37-1.41l-.55.91a2.1,2.1,0,0,1-.66.09,1.65,1.65,0,0,1-.87-.21,1.24,1.24,0,0,1-.49-.47,1.65,1.65,0,0,1,0-.65,1.83,1.83,0,0,1,.16-.62,5.27,5.27,0,0,1,.78-.74,8.2,8.2,0,0,1,1.33-.85l0-.47.87-.63h.27v2.93a1.55,1.55,0,0,0,.09.72c.06.08.26.12.59.12H369l.16,0Zm-2.78-1.65a6.56,6.56,0,0,0,.78-.06c0-.15-.05-.6-.11-1.34a7.37,7.37,0,0,0-1,.51,4.41,4.41,0,0,0-.8.57A1.82,1.82,0,0,0,366.38,349.75Zm1.67-4.5a2,2,0,0,1-.3.37l-.31.27-.12.09a3.53,3.53,0,0,1-.62-.6,2,2,0,0,1-.28.31l-.26.22-.1.07a2.8,2.8,0,0,1-.38-.32c-.12-.12-.2-.22-.26-.29l-.08-.12a5.54,5.54,0,0,1,.72-.73,3.42,3.42,0,0,1,.64.62,7.23,7.23,0,0,1,.62-.62A3.81,3.81,0,0,1,368.05,345.25Z"/><path class="cls-8" d="M372.06,351.43H372a2,2,0,0,1-1.61-.77,3.13,3.13,0,0,1-.63.67,1.73,1.73,0,0,1-.73.1l-.16,0v-1.22l.16,0a5.51,5.51,0,0,0,.93-.07l.39-1.55.75-.48.21.06a11.18,11.18,0,0,1-.23,1.88,2.32,2.32,0,0,0,1,.16l.16,0v1.22Zm-.33,1.32a2.14,2.14,0,0,1-.29.33,1.87,1.87,0,0,1-.28.25l-.11.09a3.08,3.08,0,0,1-.58-.56,3.58,3.58,0,0,1-.26.29l-.24.2-.09.07a3.17,3.17,0,0,1-.34-.3,2.33,2.33,0,0,1-.24-.27l-.08-.1a5.49,5.49,0,0,1,.66-.69,3,3,0,0,1,.6.58,6.29,6.29,0,0,1,.57-.58A3.31,3.31,0,0,1,371.73,352.75Z"/><path class="cls-8" d="M378.08,351.4l-.16,0h-.63a3.91,3.91,0,0,1-2.19-.56,5.57,5.57,0,0,1-2.48.56h-.56l-.16,0v-1.22l.16,0h2.18v0l-1.17-1.26-.37.48-.25-.17q.48-1.43.87-1.59a4.67,4.67,0,0,1,.89-.2,8.66,8.66,0,0,1,1.22-.09,4.83,4.83,0,0,1,1.23.14,1.42,1.42,0,0,1,.72.32,1.19,1.19,0,0,1,0,.55,1.94,1.94,0,0,1-.08.53,4.59,4.59,0,0,1-1.12,1.32h1.71l.16,0Zm-2.75-1.56.15-.06a3.69,3.69,0,0,0,1.4-1.16,6.42,6.42,0,0,0-1.62-.17,10.67,10.67,0,0,0-1.35.09l.66.67A7.36,7.36,0,0,0,375.33,349.84Z"/><path class="cls-8" d="M383.31,351.4l-.16,0h-.3a1.16,1.16,0,0,1-.7-.19,1.66,1.66,0,0,1-.49-.57l-.56.85a8.43,8.43,0,0,1-1-.1,1.64,1.64,0,0,1-.72-.2,2.16,2.16,0,0,1-.32-.56,1,1,0,0,1-1.1.77l-.16,0v-1.22l.16,0a1.89,1.89,0,0,0,.85-.17,3.54,3.54,0,0,1,.68-1.66,1.61,1.61,0,0,1,1.27-.81.86.86,0,0,1,.36.08,1.34,1.34,0,0,1,.29.2,1.75,1.75,0,0,1,.26.34,4,4,0,0,1,.21.4c.05.11.12.27.2.47a9.43,9.43,0,0,0,.45.95.68.68,0,0,0,.55.2h.11l.16,0ZM379.26,350l0,0a5.44,5.44,0,0,0,2.14.25l-.19-.42a3.74,3.74,0,0,0-.54-.95.44.44,0,0,0-.34-.16.85.85,0,0,0-.61.37A2.62,2.62,0,0,0,379.26,350Z"/><path class="cls-8" d="M386.31,350.75a6.64,6.64,0,0,1-1.11.53,4,4,0,0,1-1.22.15h-.83l-.16,0v-1.22l.16,0h1.35a5.7,5.7,0,0,0,1.89-.33,5.58,5.58,0,0,1,.63-.21,4.9,4.9,0,0,1-1.21-.54l-.6-.36-.61-.33-.87.59-.23-.26.27-.4a6.65,6.65,0,0,1,.55-.63,1.07,1.07,0,0,1,.63-.39.51.51,0,0,1,.17,0,1.33,1.33,0,0,1,.23.1l.26.15.36.22.4.24a4.37,4.37,0,0,0,1.12.47,3.51,3.51,0,0,0,.87.16h.87l.07.22-.4.9h-.8a1.84,1.84,0,0,0-.52.19l-.69.42Zm.88,1.84a2.3,2.3,0,0,1-.38-.33,2.63,2.63,0,0,1-.26-.29l-.08-.11a5.66,5.66,0,0,1,.72-.74,4.13,4.13,0,0,1,.73.74,2.38,2.38,0,0,1-.3.36,3.09,3.09,0,0,1-.31.28Z"/><path class="cls-8" d="M369.16,414.4l-.16,0h-.35c-.73,0-1.19-.47-1.37-1.41l-.55.91a2.1,2.1,0,0,1-.66.09,1.65,1.65,0,0,1-.87-.21,1.24,1.24,0,0,1-.49-.47,1.65,1.65,0,0,1,0-.65,1.83,1.83,0,0,1,.16-.62,5.27,5.27,0,0,1,.78-.74,8.2,8.2,0,0,1,1.33-.85l0-.47.87-.63h.27v2.93a1.55,1.55,0,0,0,.09.72c.06.08.26.12.59.12H369l.16,0Zm-2.78-1.65a6.56,6.56,0,0,0,.78-.06c0-.15-.05-.6-.11-1.34a7.37,7.37,0,0,0-1,.51,4.41,4.41,0,0,0-.8.57A1.82,1.82,0,0,0,366.38,412.75Zm1.67-4.5a2,2,0,0,1-.3.37l-.31.27-.12.09a3.53,3.53,0,0,1-.62-.6,2,2,0,0,1-.28.31l-.26.22-.1.07a2.8,2.8,0,0,1-.38-.32c-.12-.12-.2-.22-.26-.29l-.08-.12a5.54,5.54,0,0,1,.72-.73,3.42,3.42,0,0,1,.64.62,7.23,7.23,0,0,1,.62-.62A3.81,3.81,0,0,1,368.05,408.25Z"/><path class="cls-8" d="M372.06,414.43H372a2,2,0,0,1-1.61-.77,3.13,3.13,0,0,1-.63.67,1.73,1.73,0,0,1-.73.1l-.16,0v-1.22l.16,0a5.51,5.51,0,0,0,.93-.07l.39-1.55.75-.48.21.06a11.18,11.18,0,0,1-.23,1.88,2.32,2.32,0,0,0,1,.16l.16,0v1.22Zm-.33,1.32a2.14,2.14,0,0,1-.29.33,1.87,1.87,0,0,1-.28.25l-.11.09a3.08,3.08,0,0,1-.58-.56,3.58,3.58,0,0,1-.26.29l-.24.2-.09.07a3.17,3.17,0,0,1-.34-.3,2.33,2.33,0,0,1-.24-.27l-.08-.1a5.49,5.49,0,0,1,.66-.69,3,3,0,0,1,.6.58,6.29,6.29,0,0,1,.57-.58A3.31,3.31,0,0,1,371.73,415.75Z"/><path class="cls-8" d="M378.08,414.4l-.16,0h-.63a3.91,3.91,0,0,1-2.19-.56,5.57,5.57,0,0,1-2.48.56h-.56l-.16,0v-1.22l.16,0h2.18v0l-1.17-1.26-.37.48-.25-.17q.48-1.43.87-1.59a4.67,4.67,0,0,1,.89-.2,8.66,8.66,0,0,1,1.22-.09,4.83,4.83,0,0,1,1.23.14,1.42,1.42,0,0,1,.72.32,1.19,1.19,0,0,1,0,.55,1.94,1.94,0,0,1-.08.53,4.59,4.59,0,0,1-1.12,1.32h1.71l.16,0Zm-2.75-1.56.15-.06a3.69,3.69,0,0,0,1.4-1.16,6.42,6.42,0,0,0-1.62-.17,10.67,10.67,0,0,0-1.35.09l.66.67A7.36,7.36,0,0,0,375.33,412.84Z"/><path class="cls-8" d="M383.31,414.4l-.16,0h-.3a1.16,1.16,0,0,1-.7-.19,1.66,1.66,0,0,1-.49-.57l-.56.85a8.43,8.43,0,0,1-1-.1,1.64,1.64,0,0,1-.72-.2,2.16,2.16,0,0,1-.32-.56,1,1,0,0,1-1.1.77l-.16,0v-1.22l.16,0a1.89,1.89,0,0,0,.85-.17,3.54,3.54,0,0,1,.68-1.66,1.61,1.61,0,0,1,1.27-.81.86.86,0,0,1,.36.08,1.34,1.34,0,0,1,.29.2,1.75,1.75,0,0,1,.26.34,4,4,0,0,1,.21.4c.05.11.12.27.2.47a9.43,9.43,0,0,0,.45.95.68.68,0,0,0,.55.2h.11l.16,0ZM379.26,413l0,0a5.44,5.44,0,0,0,2.14.25l-.19-.42a3.74,3.74,0,0,0-.54-.95.44.44,0,0,0-.34-.16.85.85,0,0,0-.61.37A2.62,2.62,0,0,0,379.26,413Z"/><path class="cls-8" d="M386.31,413.75a6.64,6.64,0,0,1-1.11.53,4,4,0,0,1-1.22.15h-.83l-.16,0v-1.22l.16,0h1.35a5.7,5.7,0,0,0,1.89-.33,5.58,5.58,0,0,1,.63-.21,4.9,4.9,0,0,1-1.21-.54l-.6-.36-.61-.33-.87.59-.23-.26.27-.4a6.65,6.65,0,0,1,.55-.63,1.07,1.07,0,0,1,.63-.39.51.51,0,0,1,.17,0,1.33,1.33,0,0,1,.23.1l.26.15.36.22.4.24a4.37,4.37,0,0,0,1.12.47,3.51,3.51,0,0,0,.87.16h.87l.07.22-.4.9h-.8a1.84,1.84,0,0,0-.52.19l-.69.42Zm.88,1.84a2.3,2.3,0,0,1-.38-.33,2.63,2.63,0,0,1-.26-.29l-.08-.11a5.66,5.66,0,0,1,.72-.74,4.13,4.13,0,0,1,.73.74,2.38,2.38,0,0,1-.3.36,3.09,3.09,0,0,1-.31.28Z"/><path class="cls-6" d="M331.7,116.7a24,24,0,0,1-4.78.24c-2.66,0-4-1-4-2.93a4.91,4.91,0,0,1,.31-1.6,7.35,7.35,0,0,1,.63-1.36l.3-.48.5.25a5.42,5.42,0,0,0-.56,2c0,1.43,1,2.15,3.1,2.15,2.47,0,4.09,0,4.87-.09-.07-.42-.18-.91-.31-1.46s-.25-1-.34-1.32l-.15-.52,1.17-1.22h.4l.69,1.95,0,.27-.39.41a8.25,8.25,0,0,1,.09,1.35,3.51,3.51,0,0,1-.62,1.25A3.64,3.64,0,0,1,331.7,116.7Zm-1.45-6.38a3,3,0,0,1-.46.56,6,6,0,0,1-.46.41l-.18.14a5.09,5.09,0,0,1-.94-.91,3.1,3.1,0,0,1-.43.47,3.82,3.82,0,0,1-.39.33l-.15.11a4.35,4.35,0,0,1-.57-.49,3.41,3.41,0,0,1-.4-.43l-.12-.19a9.47,9.47,0,0,1,1.09-1.1,5.42,5.42,0,0,1,1,.94,8.32,8.32,0,0,1,.94-.94A6.24,6.24,0,0,1,330.25,110.32Z"/><path class="cls-6" d="M338.18,116.94a2.42,2.42,0,0,1-2.32-1.18,9,9,0,0,1-.71-4l-.11-4.48,1.28-1.12h.4v8.26c0,.28.09.45.29.51a4.27,4.27,0,0,0,1.17.1l.24,0v1.85Z"/><path class="cls-6" d="M338,116.94l-.25,0v-1.85l.25,0a15,15,0,0,0,2.08-.09c-.07-.42-.17-.91-.31-1.45s-.25-1-.35-1.33l-.14-.5,1.23-1.23h.39l.68,1.94,0,.27-.4.42a7,7,0,0,1,.1,1.35,3.35,3.35,0,0,1-.61,1.25,3.65,3.65,0,0,1-.9,1.09A5,5,0,0,1,338,116.94Zm2.31-7.93a4.31,4.31,0,0,1-.58-.49,5,5,0,0,1-.39-.45l-.12-.16a7.78,7.78,0,0,1,1.09-1.12,5.65,5.65,0,0,1,1.1,1.12,3.62,3.62,0,0,1-.46.55,6,6,0,0,1-.46.41Z"/><path class="cls-6" d="M346.19,116.94a2.42,2.42,0,0,1-2.32-1.18,9,9,0,0,1-.71-4l-.11-4.48,1.28-1.12h.4v8.26c0,.28.1.45.29.51a4.27,4.27,0,0,0,1.17.1l.25,0v1.85Z"/><path class="cls-6" d="M350.73,116.94h-.14a2.9,2.9,0,0,1-2.43-1.16,5.56,5.56,0,0,1-1,1,2.82,2.82,0,0,1-1.11.15l-.24,0v-1.85l.24,0a7.44,7.44,0,0,0,1.41-.11l.59-2.34,1.13-.72.32.09a18.86,18.86,0,0,1-.35,2.84,3.56,3.56,0,0,0,1.53.24l.24,0v1.85Zm-.5,2a4,4,0,0,1-.44.51c-.17.16-.31.28-.42.37l-.17.13a4.67,4.67,0,0,1-.88-.84,4,4,0,0,1-.4.43,2.67,2.67,0,0,1-.35.31l-.14.1a5.27,5.27,0,0,1-.52-.44,3.18,3.18,0,0,1-.35-.42l-.12-.15a9.06,9.06,0,0,1,1-1,4.5,4.5,0,0,1,.91.87,7.88,7.88,0,0,1,.86-.87A5.2,5.2,0,0,1,350.23,118.94Z"/><path class="cls-6" d="M355.35,116.94h-.13a2.93,2.93,0,0,1-2.44-1.16,5.2,5.2,0,0,1-.95,1,2.76,2.76,0,0,1-1.1.15l-.24,0v-1.85l.24,0a7.4,7.4,0,0,0,1.4-.11l.59-2.34,1.14-.72.31.09a19.26,19.26,0,0,1-.34,2.84,3.54,3.54,0,0,0,1.52.24l.24,0v1.85ZM353,120a3.78,3.78,0,0,1-.57-.5,3.36,3.36,0,0,1-.4-.44l-.12-.17a9,9,0,0,1,1.09-1.12,6.24,6.24,0,0,1,1.1,1.12,3.19,3.19,0,0,1-.46.55,3.81,3.81,0,0,1-.46.42Z"/><path class="cls-6" d="M355.35,116.94l-.24,0v-1.85l.24,0a11.5,11.5,0,0,0,1.8-.09l-.17-6-.43-1.24,1.64-1.55.41.22v.81l.79,1.51-.77.83v4.35a3.39,3.39,0,0,1-.86,1.57,7.53,7.53,0,0,1-1.24,1.36A2.84,2.84,0,0,1,355.35,116.94Z"/><path class="cls-6" d="M362.37,106.14v8.24s-.06.22-.18.61-.24.81-.38,1.24-.21.67-.22.71H361q-.24-9-.27-9.7l1.27-1.1Z"/><path class="cls-6" d="M368.82,116.94a3.38,3.38,0,0,1-.93-.12,2,2,0,0,1-.64-.28,1.58,1.58,0,0,1-.37-.36,1.66,1.66,0,0,1-.21-.31.94.94,0,0,1-.06-.18,4.49,4.49,0,0,1,0-.83c0-.47.05-.74.07-.82a8.43,8.43,0,0,1,1.37-2.42l-.4-.3.95-1.77H369a10.53,10.53,0,0,1,1.92,2.49,5.21,5.21,0,0,1,.73,2.47,3.51,3.51,0,0,1-.35,1,2.75,2.75,0,0,1-.46.86A3.3,3.3,0,0,1,368.82,116.94Zm2.25-9.38a2.9,2.9,0,0,1-.46.56,6,6,0,0,1-.46.41l-.18.13a4.52,4.52,0,0,1-.94-.91,3.08,3.08,0,0,1-.42.47,2.35,2.35,0,0,1-.4.33l-.15.11a4.26,4.26,0,0,1-.57-.48,2.72,2.72,0,0,1-.39-.46l-.12-.16a8.08,8.08,0,0,1,1.08-1.1,5.12,5.12,0,0,1,1,.93,10.21,10.21,0,0,1,.94-.93A6.24,6.24,0,0,1,371.07,107.56Zm-2,7.45a5.73,5.73,0,0,0,1.68-.23,5.17,5.17,0,0,0-1.81-2.45,5.4,5.4,0,0,0-1.62,2.18A2.78,2.78,0,0,0,369.09,115Z"/><path class="cls-6" d="M379.5,116.94h-.19a2.22,2.22,0,0,1-1.23-.31,2.51,2.51,0,0,1-.83-1.11l-.81,1.21a3.19,3.19,0,0,1-.77.14,10.62,10.62,0,0,1-1.2.07c-1.32,0-2-.55-2-1.64a4,4,0,0,1,.2-1.18,4.37,4.37,0,0,1,.35-.89l.55.15a4,4,0,0,0-.12.8.93.93,0,0,0,.08.41.77.77,0,0,0,.43.28,3,3,0,0,0,1,.14c.62,0,1.29,0,2-.06l-1.68-4.23,1.13-1.32h.39l1.3,4.25a3.62,3.62,0,0,0,.53,1.15,1.2,1.2,0,0,0,.83.21l.25,0v1.85Z"/><path class="cls-6" d="M386.23,116a18.14,18.14,0,0,1-2.52.62,15.22,15.22,0,0,1-2.65.28h-1.33l-.24,0v-1.85l.24,0h1.56a2.65,2.65,0,0,1-.49-.74,1.87,1.87,0,0,1-.21-.79,4.43,4.43,0,0,1,.21-1,2.8,2.8,0,0,1,.41-1,3.18,3.18,0,0,1,1-1,2.81,2.81,0,0,1,1.5-.51,1.2,1.2,0,0,1,.68.24,2.36,2.36,0,0,1,.61.57,5.54,5.54,0,0,1,.47.68q.21.34.33.57l.1.24-.34.33-1.33-.87a4.65,4.65,0,0,0-2.73,1.17,3.35,3.35,0,0,0,1,1.29,2.55,2.55,0,0,0,1.58.53,4.49,4.49,0,0,0,1.36-.24,7.54,7.54,0,0,0,1.27-.52l.19.18Z"/><path class="cls-6" d="M391.28,116.94a2.44,2.44,0,0,1-2.33-1.18,9.13,9.13,0,0,1-.71-4l-.11-4.48,1.29-1.12h.39v8.26q0,.42.3.51a4.17,4.17,0,0,0,1.17.1l.24,0v1.85Z"/><path class="cls-6" d="M395.51,116.58a5.84,5.84,0,0,1-2.51.36h-1.81l-.24,0v-1.85l.24,0h2.39a15.88,15.88,0,0,0,2.19-.12c0-.2,0-.37,0-.5a5.86,5.86,0,0,0-.14-1.22l-.41.83a2,2,0,0,1-.54.17,3.55,3.55,0,0,1-.86.1l-.35,0-.29,0a.88.88,0,0,1-.23-.07l-.19-.08a1.19,1.19,0,0,1-.15-.09l-.12-.08-.08-.08,0,0a3,3,0,0,1-.34-.83,3.2,3.2,0,0,1-.21-.89,4.4,4.4,0,0,1,.33-1.28,3.92,3.92,0,0,1,.9-1.29,1.83,1.83,0,0,1,1.31-.6c.7,0,1.27.5,1.73,1.49a7.89,7.89,0,0,1,.69,3.34,3.82,3.82,0,0,1-.09.91,4.6,4.6,0,0,1-.61,1.19C395.79,116.3,395.59,116.56,395.51,116.58Zm.57-10a3.29,3.29,0,0,1-.46.57,4.57,4.57,0,0,1-.46.41l-.18.14a6.54,6.54,0,0,1-.94-.92,3.57,3.57,0,0,1-.42.46,4.61,4.61,0,0,1-.39.35l-.15.11a3.64,3.64,0,0,1-.56-.49,5.53,5.53,0,0,1-.4-.46l-.12-.17a8.07,8.07,0,0,1,1.08-1.1,5.3,5.3,0,0,1,1,.93,11.81,11.81,0,0,1,.94-.93A5.61,5.61,0,0,1,396.08,106.56Zm-2.1,6.08a5.51,5.51,0,0,0,1.48-.2,3.8,3.8,0,0,0-.63-1.24,1.11,1.11,0,0,0-.86-.48,1.16,1.16,0,0,0-.85.47,3.15,3.15,0,0,0-.6,1.13A3.49,3.49,0,0,0,394,112.64Z"/></g></svg>