<svg id="Layer_1" data-name="Layer 1" xmlns="http://www.w3.org/2000/svg" viewBox="0 0 720 615"><defs><style>.cls-1{fill:#ebebeb;}.cls-2{fill:#f5f5f5;}.cls-3{fill:#e0e0e0;}.cls-4{fill:#e6e6e6;}.cls-5{fill:#f0f0f0;}.cls-6{fill:#407bff;}.cls-11,.cls-13,.cls-14,.cls-20,.cls-25,.cls-7,.cls-9{fill:#fff;}.cls-7{opacity:0.3;}.cls-10,.cls-11,.cls-14,.cls-15,.cls-17,.cls-20,.cls-25,.cls-26,.cls-7,.cls-9{isolation:isolate;}.cls-8{fill:#263238;}.cls-9{opacity:0.7;}.cls-10{opacity:0.1;}.cls-11,.cls-15{opacity:0.6;}.cls-12,.cls-14{opacity:0.5;}.cls-16{fill:#ffc3bd;}.cls-17{opacity:0.2;}.cls-18{fill:#ed847e;}.cls-19,.cls-25{opacity:0.9;}.cls-20{opacity:0.8;}.cls-21{fill:#7f3e3b;}.cls-22{fill:#630f0f;}.cls-23{fill:#ffb573;}.cls-24{fill:#ed893e;}.cls-26{opacity:0.4;}</style></defs><g id="freepik--background-complete--inject-53"><rect class="cls-1" x="589.49" y="541.91" width="44.11" height="0.33"/><rect class="cls-1" x="463.95" y="545.53" width="11.57" height="0.33"/><rect class="cls-1" x="562.59" y="529.55" width="25.56" height="0.33"/><rect class="cls-1" x="104.23" y="531.79" width="57.53" height="0.33"/><rect class="cls-1" x="173.63" y="531.79" width="8.43" height="0.33"/><rect class="cls-1" x="209.47" y="537.41" width="124.78" height="0.33"/><path class="cls-1" d="M350,461.07H92.86a7.61,7.61,0,0,1-7.61-7.6V91.94a7.62,7.62,0,0,1,7.61-7.54H350A7.61,7.61,0,0,1,357.64,92h0V453.47A7.61,7.61,0,0,1,350,461.07ZM92.86,84.67a7.29,7.29,0,0,0-7.27,7.27V453.47a7.29,7.29,0,0,0,7.27,7.27H350a7.28,7.28,0,0,0,7.27-7.27V91.94A7.28,7.28,0,0,0,350,84.67Z"/><path class="cls-1" d="M638.14,461.07H380.94a7.61,7.61,0,0,1-7.6-7.6V91.94a7.62,7.62,0,0,1,7.6-7.54h257.2a7.61,7.61,0,0,1,7.58,7.54V453.47A7.6,7.6,0,0,1,638.14,461.07ZM380.94,84.67a7.29,7.29,0,0,0-7.27,7.27V453.47a7.29,7.29,0,0,0,7.27,7.27h257.2a7.28,7.28,0,0,0,7.27-7.27V91.94a7.28,7.28,0,0,0-7.27-7.27Z"/><rect class="cls-1" x="34.36" y="520.48" width="665.97" height="0.33"/><path class="cls-2" d="M209.72,450.68c.16.18-.74,1.43,2.91.88,5.74-.86,16-6.42,22.64-10.33A5.09,5.09,0,0,0,236,433c-3.43-3-7.11-7.17-6.75-10.82.39-3.86,8.47-8.36,15.34-11.5a5.11,5.11,0,0,0,.88-8.77c-2.19-1.6-4-3.42-4-5.21-.11-2.66,5.86-6.06,11.36-8.68a5.13,5.13,0,0,0,2.41-6.84,5.21,5.21,0,0,0-.76-1.15,3.19,3.19,0,0,1-.73-3.13c.57-1.67,1.85-5.89,3.23-10.5a5.09,5.09,0,0,0-8.11-5.41,146.89,146.89,0,0,1-13.32,10.26,2.9,2.9,0,0,1-3.18-.16,5.12,5.12,0,0,0-8,3.18c-1.71,9.33-4.58,20.29-8.9,23a10,10,0,0,1-6.83,1.34,5.11,5.11,0,0,0-5.85,4.25l0,.18C201.4,414.8,199.92,439.76,209.72,450.68Z"/><path class="cls-3" d="M237.46,396.81a30.35,30.35,0,0,0-7.77,1.6,59.49,59.49,0,0,1,5.53-7.12.66.66,0,0,0,0-.92h0a.66.66,0,0,0-.94,0h0a78.73,78.73,0,0,0-11.07,16.06c-2.82-17,4.31-32,4.39-32.07a.52.52,0,0,0-.23-.67.5.5,0,0,0-.66.22h0c-.08.16-7.7,16-4.25,33.93q-1.32,2.66-2.75,5.63a124.16,124.16,0,0,0-7.59,22.27,45.75,45.75,0,0,1-5.33-20.34.49.49,0,0,0-.48-.48h0a.52.52,0,0,0-.49.52,45.92,45.92,0,0,0,6,21.7A154.83,154.83,0,0,0,208.35,483a.67.67,0,0,0,.71.63h.08a.68.68,0,0,0,.54-.71c-1.65-24,1.94-43.16,6.89-57.74a18.34,18.34,0,0,1,10.66-6.06.53.53,0,0,0,.42-.57.49.49,0,0,0-.56-.41h0a18.83,18.83,0,0,0-9.7,4.81,112,112,0,0,1,11.36-23.09,27.47,27.47,0,0,1,8.83-2.06.52.52,0,0,0,.46-.55.49.49,0,0,0-.51-.47Z"/><path class="cls-4" d="M198.19,455.83c-4.72.08-13.55-5.33-19.41-9.33a4.37,4.37,0,0,1-1.09-6.08,4.42,4.42,0,0,1,.92-1,4.84,4.84,0,0,0,2.09-5.13c-.74-2.67-7.08-3.65-13.21-3.92a4.41,4.41,0,0,1-3.25-7.2,5.85,5.85,0,0,0,1.74-3.85c-.3-2.32-7.82-7.21-14-10.85a4.42,4.42,0,0,1,.14-7.68c2-1.15,3.49-2.49,2.78-3.8s-2.1-4.1-3.71-7.36a4.42,4.42,0,0,1,6.16-5.81A114.56,114.56,0,0,0,168.94,390c1.8.65,4-.42,5.95-1.93a4.4,4.4,0,0,1,7,2.77c1.76,9.6,5.14,24.13,9.78,26a6.51,6.51,0,0,0,4.52.09,4.37,4.37,0,0,1,5.41,3,4.53,4.53,0,0,1,.17,1.42C201.37,433.76,200.37,455.79,198.19,455.83Z"/><path class="cls-2" d="M195.74,446.86a.58.58,0,0,0,.27-.22,39.45,39.45,0,0,0,3.34-20,.5.5,0,0,0-.53-.47.52.52,0,0,0-.47.55,40,40,0,0,1-3,19A153.85,153.85,0,0,0,184,421.7c1.33-16-6.9-29.17-7-29.3a.48.48,0,0,0-.67-.17h0a.51.51,0,0,0-.15.69,52,52,0,0,1,6.93,27.23A140.14,140.14,0,0,0,164,394.62a.67.67,0,0,0-.94.95A129.28,129.28,0,0,1,177.66,414a39.3,39.3,0,0,0-14.11-2.49.52.52,0,0,0-.5.52h0a.5.5,0,0,0,.5.48h0a38.53,38.53,0,0,1,15.06,2.94,154.49,154.49,0,0,1,8.12,14A16.84,16.84,0,0,0,172.8,427a.51.51,0,0,0-.36.61.5.5,0,0,0,.61.35h0a16.11,16.11,0,0,1,14.73,3.57,135.35,135.35,0,0,1,14.4,54.72.66.66,0,0,0,.66.64h0a.66.66,0,0,0,.64-.69h0A132,132,0,0,0,195.74,446.86Z"/><path class="cls-5" d="M205.87,475.78h-25.3l6,39.61a5.45,5.45,0,0,0,5.42,4.67h25.2a5.49,5.49,0,0,0,5.43-4.67l5.95-39.61Z"/><polygon class="cls-3" points="227.36 483.65 228.54 475.78 205.88 475.78 203.24 475.78 180.57 475.78 181.75 483.65 227.36 483.65"/><path class="cls-5" d="M232.51,479.11H176.57a1.9,1.9,0,0,1-1.89-1.9,2.06,2.06,0,0,1,.13-.69l1.16-2.89a1.91,1.91,0,0,1,1.76-1.18h53.62a1.86,1.86,0,0,1,1.75,1.18l1.16,2.89a1.89,1.89,0,0,1-1.75,2.59Z"/><path class="cls-3" d="M169.65,286.6l-20.94-3.1c-12.31-1.33-19.62,4-23.87,11.64a50.25,50.25,0,0,0,62.69,9.42C185.14,286.31,169.65,286.6,169.65,286.6Z"/><path class="cls-2" d="M154.24,260.22c.32,6.94-.19,19.47-5.57,23.27,0,0,6.78,13.46,16.79,17.95,6.16-4.18,4.15-14.85,4.15-14.85-7.25-2.9-6.22-8.46-4.15-13.53Z"/><path class="cls-4" d="M158.84,265.54l6.66,7.62a20.12,20.12,0,0,0-1.22,3.63c-2.81-.84-6.29-4.57-6.16-7.62A10.52,10.52,0,0,1,158.84,265.54Z"/><path class="cls-2" d="M149.16,247.54c.89,11.35,1,16.18,6.87,21.91,8.79,8.62,22.55,5.05,25.07-6.36,2.27-10.25.41-27-10.8-31.44a15.54,15.54,0,0,0-21.14,15.89Z"/><path class="cls-3" d="M173.6,251.53a24.47,24.47,0,0,0,3.41,5.85,4,4,0,0,1-3.29.69Z"/><path class="cls-3" d="M169.67,261.62a10,10,0,0,0,1.55-.15.28.28,0,0,0,.23-.3h0a.26.26,0,0,0-.3-.21,7.4,7.4,0,0,1-6.38-1.79.27.27,0,0,0-.38,0h0a.29.29,0,0,0,0,.39A7.73,7.73,0,0,0,169.67,261.62Z"/><path class="cls-3" d="M163.2,247.07a.54.54,0,0,0,.43,0,4.33,4.33,0,0,1,3.9-.55.54.54,0,0,0,.68-.36.53.53,0,0,0-.26-.63,5.34,5.34,0,0,0-4.9.58.57.57,0,0,0-.16.75A.49.49,0,0,0,163.2,247.07Z"/><path class="cls-3" d="M178.38,247a.44.44,0,0,0,.31-.2.46.46,0,0,0-.08-.65h0a4.78,4.78,0,0,0-4.33-.79.51.51,0,0,0-.28.63.48.48,0,0,0,.61.28A3.73,3.73,0,0,1,178,247,.43.43,0,0,0,178.38,247Z"/><path class="cls-3" d="M161.33,312.42A50.55,50.55,0,1,1,212,261.87,50.56,50.56,0,0,1,161.33,312.42Zm0-99.46a48.91,48.91,0,1,0,48.93,48.91A48.9,48.9,0,0,0,161.33,213Z"/><path class="cls-3" d="M165.52,250.89c0,.76.41,1.34.9,1.34s.88-.63.87-1.34-.41-1.33-.91-1.33S165.5,250.16,165.52,250.89Z"/><path class="cls-3" d="M175.13,250.89c0,.76.42,1.34.91,1.34s.88-.63.87-1.34-.43-1.33-.92-1.33S175.12,250.16,175.13,250.89Z"/><path class="cls-3" d="M151.27,256.54a7,7,0,0,0,4-8s6.91-2.49,6.11-8.15c0,0,10.66,2.49,11.37-1.67,0,0,9.65,4.33,10.32,0s-4.24-5.83-4.24-5.83.54-9.82-8.81-6.49c0,0-5.45-5.66-11.85.83,0,0-6.44-2.83-9.41,6,0,0-6.14,3-4.32,9.5,0,0-4.26,4.09-1.16,8.12C143.23,250.89,142.33,262.32,151.27,256.54Z"/><path class="cls-2" d="M147.07,257.74a8.76,8.76,0,0,0,5.51,3.81c3,.61,4.32-2.13,3.29-4.86-.92-2.45-3.59-5.73-6.52-5.12a3.93,3.93,0,0,0-3,4.68A4.06,4.06,0,0,0,147.07,257.74Z"/><path class="cls-3" d="M545.19,356.18s-33-6.51-32.26,0c0,0-2.84-6.66.14-19.56s4-15.53,4-15.53l18.27-1.76,14,8.24.83,13.66-1.24,8.4Z"/><path class="cls-3" d="M525.23,371.67l20.95-3.09c12.3-1.33,19.61,3.93,23.86,11.64a50.28,50.28,0,0,1-62.75,9.42C509.76,371.39,525.23,371.67,525.23,371.67Z"/><path class="cls-2" d="M540.6,345.31c-.32,6.94.19,19.46,5.58,23.27,0,0-5.87,12.26-16.8,11.3-7.41-.65-4.15-8.21-4.15-8.21,7.25-2.89,6.22-8.44,4.15-13.52Z"/><path class="cls-4" d="M536,350.56l-6.66,7.62a21.15,21.15,0,0,1,1.23,3.62c2.8-.84,6.28-4.58,6.14-7.61A10.24,10.24,0,0,0,536,350.56Z"/><path class="cls-2" d="M545.72,332.62c-.89,11.35-1,16.18-6.87,21.91-8.8,8.62-22.55,5.05-25.07-6.35-2.25-10.26-.41-27.05,10.8-31.45a15.54,15.54,0,0,1,21.14,15.89Z"/><path class="cls-3" d="M521.28,336.62a24.94,24.94,0,0,1-3.41,5.84,4,4,0,0,0,3.29.7Z"/><path class="cls-3" d="M525.21,346.69a7.33,7.33,0,0,1-1.55-.14.27.27,0,0,1-.23-.3h0a.26.26,0,0,1,.3-.22,7.39,7.39,0,0,0,6.39-1.78.27.27,0,1,1,.4.36A7.56,7.56,0,0,1,525.21,346.69Z"/><path class="cls-3" d="M531.68,332.14a.54.54,0,0,1-.43,0,4.31,4.31,0,0,0-3.89-.54.54.54,0,0,1-.67-.38v0a.52.52,0,0,1,.25-.6,5.32,5.32,0,0,1,4.89.58.53.53,0,0,1,.16.74h0A.49.49,0,0,1,531.68,332.14Z"/><path class="cls-3" d="M516.52,332.14a.4.4,0,0,1-.3-.18.47.47,0,0,1,.07-.66h0a4.8,4.8,0,0,1,4.33-.79.49.49,0,0,1,.28.62.48.48,0,0,1-.61.29h0a3.78,3.78,0,0,0-3.43.65A.36.36,0,0,1,516.52,332.14Z"/><path class="cls-3" d="M483,347a50.55,50.55,0,1,1,50.54,50.55A50.54,50.54,0,0,1,483,347Zm1.64,0A48.91,48.91,0,1,0,533.54,298h0A49,49,0,0,0,484.64,347Z"/><path class="cls-3" d="M529.36,336c0,.76-.41,1.33-.9,1.33s-.88-.61-.87-1.33.41-1.33.91-1.33S529.38,335.23,529.36,336Z"/><path class="cls-3" d="M519.75,336c0,.76-.42,1.33-.91,1.33S518,336.7,518,336s.41-1.33.9-1.33S519.77,335.23,519.75,336Z"/><path class="cls-3" d="M528.51,334.62a2.34,2.34,0,0,1-1.82-.31s.12,1,1.81.84Z"/><path class="cls-3" d="M518.89,334.62a2.34,2.34,0,0,1-1.82-.31s.12,1,1.81.84Z"/><path class="cls-3" d="M543.16,341.15s-7.74,1.33-7.07-9-5.66-4.52-7.07-9.67c0,0-2.8-.33-1.95,3,0,0-13.7,3.82-14.08-.18s6-14.22,18.36-11.15c0,0,14.65-2.25,18.55,11.66s.92,22.56,6.09,26.72-13.16,4.58-13.16,4.58Z"/><path class="cls-2" d="M547.81,342.8a8.74,8.74,0,0,1-5.51,3.78c-3,.6-4.31-2.13-3.29-4.86.91-2.45,3.59-5.73,6.52-5.12S549.34,340.41,547.81,342.8Z"/><path class="cls-4" d="M532.73,189.82A27.24,27.24,0,1,1,560,162.59,27.24,27.24,0,0,1,532.73,189.82Zm0-52.47A25.31,25.31,0,1,0,558,162.72v-.07A25.3,25.3,0,0,0,532.73,137.35Z"/><path class="cls-4" d="M532.73,188.83a26.23,26.23,0,0,0,13.32-3.67c-.18-2.94-.41-6.4-.52-8.11a7.3,7.3,0,0,0-7.28-6.78H527.18a7.28,7.28,0,0,0-7.27,6.78c-.12,1.71-.35,5.17-.54,8.11A26.2,26.2,0,0,0,532.73,188.83Z"/><path class="cls-4" d="M539.39,157.29c0,3.68-3,8-6.66,8s-6.66-4.31-6.66-8a6.66,6.66,0,1,1,13.32,0Z"/></g><g id="freepik--Shadow--inject-53"><ellipse id="freepik--path--inject-53" class="cls-2" cx="360.93" cy="560.42" rx="258.25" ry="15.08"/></g><g id="freepik--Table--inject-53"><path class="cls-6" d="M425.58,436.61h99.89v8.75a6,6,0,0,1-6,5.95h-88a6,6,0,0,1-5.95-5.95h0v-8.75Z"/><path class="cls-7" d="M425.58,436.61h99.89v8.75a6,6,0,0,1-6,5.95h-88a6,6,0,0,1-5.95-5.95h0v-8.75Z"/><path class="cls-8" d="M511.53,450.12h-72A2.56,2.56,0,0,0,437,452.5l-7.81,105a2,2,0,0,0,1.84,2.15h0a2,2,0,0,0,2.15-1.85l7.6-102.42a1.33,1.33,0,0,1,1.33-1.25h66.84a1.33,1.33,0,0,1,1.33,1.25l7.59,102.42a2,2,0,0,0,2.15,1.85h0a2,2,0,0,0,1.85-2.14h0l-7.8-105A2.57,2.57,0,0,0,511.53,450.12Z"/><path class="cls-8" d="M475.53,559.64h0a2,2,0,0,1-2-2V452.42h4V557.64A2,2,0,0,1,475.53,559.64Z"/><path class="cls-8" d="M456.15,452.42h0a2,2,0,0,0,2-2v-9.78a2,2,0,0,0-2-2h0a2,2,0,0,0-2,2v9.78A2,2,0,0,0,456.15,452.42Z"/><path class="cls-8" d="M494.91,452.42h0a2,2,0,0,0,2-2v-9.78a2,2,0,0,0-2-2h0a2,2,0,0,0-2,2v9.78A2,2,0,0,0,494.91,452.42Z"/><path class="cls-6" d="M480.91,409.1h-.28v-1a2.67,2.67,0,0,0-2.6-2.66H463a2.67,2.67,0,0,0-2.67,2.66v16.13a9.18,9.18,0,0,0,9.17,9.17h1.89a9.16,9.16,0,0,0,8.95-7.22h.49c5.57,0,9-4.92,9-9.63S486.47,409.1,480.91,409.1Zm-.2,14.11h-.08V412.06h.08c3.63,0,5.87,1.78,5.87,4.85a6.08,6.08,0,0,1-5.84,6.3Z"/><path class="cls-9" d="M480.91,409.1h-.28v-1a2.67,2.67,0,0,0-2.6-2.66H463a2.67,2.67,0,0,0-2.67,2.66v16.13a9.18,9.18,0,0,0,9.17,9.17h1.89a9.16,9.16,0,0,0,8.95-7.22h.49c5.57,0,9-4.92,9-9.63S486.47,409.1,480.91,409.1Zm-.2,14.11h-.08V412.06h.08c3.63,0,5.87,1.78,5.87,4.85a6.08,6.08,0,0,1-5.84,6.3Z"/><path class="cls-10" d="M480.71,423.21h-.08v1a9.78,9.78,0,0,1-.22,1.94h.5a8.66,8.66,0,0,0,2.26-.3v-3.15A5.35,5.35,0,0,1,480.71,423.21Z"/><path class="cls-10" d="M461,427.31a9.14,9.14,0,0,0,8.6,6.06h1.89a9.19,9.19,0,0,0,8.62-6.06Z"/><path class="cls-10" d="M480.91,409.1h-.28v3h.08a8.2,8.2,0,0,1,2.46.33v-3.13A15.61,15.61,0,0,0,480.91,409.1Z"/><path class="cls-6" d="M486.35,428.87H454.24a1.33,1.33,0,0,0-1.18,1.46,1.3,1.3,0,0,0,.64,1l7.05,3.26v2h19.09v-2l7.06-3.26a1.33,1.33,0,0,0,.45-1.83A1.31,1.31,0,0,0,486.35,428.87Z"/><path class="cls-11" d="M486.35,428.87H454.24a1.33,1.33,0,0,0-1.18,1.46,1.3,1.3,0,0,0,.64,1l7.05,3.26v2h19.09v-2l7.06-3.26a1.33,1.33,0,0,0,.45-1.83A1.31,1.31,0,0,0,486.35,428.87Z"/></g><g id="freepik--speech-bubble--inject-53"><path class="cls-6" d="M409.78,194.67A27.3,27.3,0,0,1,396.17,191l-12.55,2.42,2.43-12.56a27.33,27.33,0,1,1,43,5.77h0A27.3,27.3,0,0,1,409.78,194.67Zm-13.24-5.74.32.2a25.31,25.31,0,0,0,30.82-3.87h0a25.31,25.31,0,1,0-39.73-5l.2.32-2,10.42Z"/><g class="cls-12"><path class="cls-13" d="M409.78,194.67A27.3,27.3,0,0,1,396.17,191l-12.55,2.42,2.43-12.56a27.33,27.33,0,1,1,43,5.77h0A27.3,27.3,0,0,1,409.78,194.67Zm-13.24-5.74.32.2a25.31,25.31,0,0,0,30.82-3.87h0a25.31,25.31,0,1,0-39.73-5l.2.32-2,10.42Z"/></g><path class="cls-6" d="M408.13,181.39l-14.76-16.17a3.07,3.07,0,0,1,.39-4.31h0a3,3,0,0,1,4.29,0l0,0,10.82,11.85,25.05-23a3.08,3.08,0,0,1,4.32,0h0a3.08,3.08,0,0,1-.39,4.32Z"/></g><g id="freepik--character-4--inject-53"><circle class="cls-6" cx="475.52" cy="246.64" r="44.5"/><circle class="cls-14" cx="475.52" cy="246.64" r="44.5"/><path class="cls-6" d="M425,246.64a50.61,50.61,0,1,1,50.68,50.55h-.14A50.6,50.6,0,0,1,425,246.64Zm1.63,0a48.91,48.91,0,1,0,48.91-48.92,48.91,48.91,0,0,0-48.91,48.92Z"/><g class="cls-12"><path class="cls-13" d="M425,246.64a50.61,50.61,0,1,1,50.68,50.55h-.14A50.6,50.6,0,0,1,425,246.64Zm1.63,0a48.91,48.91,0,1,0,48.91-48.92,48.91,48.91,0,0,0-48.91,48.92Z"/></g><path class="cls-8" d="M448.21,276.11c3.7-4.36,19.76-2.91,19.76-2.91l15.71-1.5c12.88-2.67,19.63.89,23.75,5.79l.06.08a44.46,44.46,0,0,1-61.27,2.67A12.25,12.25,0,0,1,448.21,276.11Z"/><path class="cls-8" d="M459.85,218.7s-9.32.85-3.65,13.61l6.42-3.7,1-7.74Z"/><path class="cls-15" d="M459.85,218.7s-9.32.85-3.65,13.61l6.42-3.7,1-7.74Z"/><path class="cls-16" d="M485.71,271.81c-1.51,3.06-5.71,8.4-16.82,8.4-6.72,0-7.2-2.77-5.21-5.9,6.53-3.17,6.57-9.59,4.83-15.15l14.53-14c-1,7.15-1.63,19.51,2.29,25.76A3.54,3.54,0,0,1,485.71,271.81Z"/><path class="cls-17" d="M477.12,250.89l-8.55,8.26a27.48,27.48,0,0,1,.91,4.38c3.38-.69,7.6-3.83,8.72-7.65C478.87,253.56,478,251.15,477.12,250.89Z"/><path class="cls-16" d="M485.36,233.45c-.76,10.88-2.12,17.31-7.68,22.8-8.33,8.32-20.28,3.18-22.76-7.67-2.24-9.86-.59-26,10.1-30.17a14.85,14.85,0,0,1,19.32,8.27h0A14.62,14.62,0,0,1,485.36,233.45Z"/><path class="cls-8" d="M468.31,236.43c0,.89-.48,1.6-1.07,1.6s-1-.74-1-1.63.47-1.58,1.06-1.58S468.32,235.55,468.31,236.43Z"/><path class="cls-8" d="M458.29,236.34c0,.87-.48,1.58-1.07,1.58s-1-.73-1-1.61.48-1.6,1.06-1.6S458.3,235.44,458.29,236.34Z"/><path class="cls-18" d="M462,236.71a32.49,32.49,0,0,1-4.32,7.52,5.16,5.16,0,0,0,4.24.84Z"/><path class="cls-8" d="M471.78,232.31a.61.61,0,0,0,.27,0,.57.57,0,0,0,.11-.73,5.24,5.24,0,0,0-4.23-2.2.54.54,0,0,0-.41.63.55.55,0,0,0,.48.43h0a4.16,4.16,0,0,1,3.32,1.75A.49.49,0,0,0,471.78,232.31Z"/><path class="cls-8" d="M454.44,232.25a.46.46,0,0,0,.4-.28,4.12,4.12,0,0,1,2.93-2.32.52.52,0,1,0-.12-1,5.19,5.19,0,0,0-3.77,2.9.49.49,0,0,0,.2.67h0A.54.54,0,0,0,454.44,232.25Z"/><path class="cls-8" d="M483.08,242.26s-5,.78-4.66-1.33,2.89-9.26,2.33-12.35c-.27-1.43-1.8-4.3-3.11-5-4.76-2.4-41.29,3.38-11.42-18v2.78s6-4.11,7.24-2.66c1,1.07-2.58,5.08-2.58,5.08s7.82-4.31,9-2.3c.76,1.34-4.16,4.35-4.16,4.35S510.88,222.8,483.08,242.26Z"/><path class="cls-8" d="M461.91,245.83s10.66-1.92,10.25,1.89-2.19,14.15-6,14.15c-1.61,0-.65-1.49-.65-1.49a6.74,6.74,0,0,1-3.56,1.49c-1.57,0-.16-2.27-.16-2.27s-1.91,1.79-3.51,1.34c-.67-.18.17-1.26-.32-2.76-1.17-3.57-3.19-9.54-2.67-11.38C456.11,244.23,461.91,245.83,461.91,245.83Z"/><path class="cls-14" d="M461.91,245.83s10.66-1.92,10.25,1.89-2.19,14.15-6,14.15c-1.61,0-.65-1.49-.65-1.49a6.74,6.74,0,0,1-3.56,1.49c-1.57,0-.16-2.27-.16-2.27s-1.91,1.79-3.51,1.34c-.67-.18.17-1.26-.32-2.76-1.17-3.57-3.19-9.54-2.67-11.38C456.11,244.23,461.91,245.83,461.91,245.83Z"/><path class="cls-13" d="M458.22,247.78a63.06,63.06,0,0,1,10.9.53c-1.2,2-3.17,3.6-7.23,3.14S458.22,247.78,458.22,247.78Z"/><path class="cls-14" d="M493.23,231.09a17.57,17.57,0,0,1-4.19,6.23,16.85,16.85,0,0,1-9.32-1.6,33.83,33.83,0,0,0,1-5.1C487.71,231.9,491.4,231.57,493.23,231.09Z"/><path class="cls-16" d="M490.58,243.65a10.43,10.43,0,0,1-6.5,4.51c-3.56.74-5.1-2.5-3.91-5.74,1.07-2.89,4.21-6.79,7.68-6.08S492.37,240.8,490.58,243.65Z"/><polygon class="cls-6" points="516.26 209.95 519.72 213.29 524.47 212.61 525.31 217.36 529.56 219.61 527.44 223.92 529.56 228.25 525.31 230.5 524.47 235.24 519.72 234.56 516.26 237.91 512.81 234.56 508.04 235.24 507.21 230.5 502.96 228.25 505.08 223.92 502.96 219.61 507.21 217.36 508.04 212.61 512.81 213.29 516.26 209.95"/><g class="cls-19"><path class="cls-13" d="M513.69,229.4l-5-5.44a1,1,0,0,1,.13-1.45h0a1,1,0,0,1,1.44,0h0l3.64,4,8.4-7.73a1,1,0,0,1,1.45,0h0a1,1,0,0,1-.13,1.45Z"/></g></g><g id="freepik--character-3--inject-53"><circle class="cls-6" cx="257.17" cy="202.8" r="44.5"/><circle class="cls-14" cx="257.17" cy="202.8" r="44.5"/><path class="cls-6" d="M257.18,253.36a50.55,50.55,0,1,1,50.61-50.55A50.55,50.55,0,0,1,257.18,253.36Zm0-99.46a48.93,48.93,0,1,0,48.9,48.95v0A49,49,0,0,0,257.18,153.9Z"/><g class="cls-12"><path class="cls-13" d="M257.18,253.36a50.55,50.55,0,1,1,50.61-50.55A50.55,50.55,0,0,1,257.18,253.36Zm0-99.46a48.93,48.93,0,1,0,48.9,48.95v0A49,49,0,0,0,257.18,153.9Z"/></g><path class="cls-6" d="M257.18,247.31a44.28,44.28,0,0,0,25.6-8.11c-1.92-5.66-4.31-12.48-5.82-15.7-3.44-7.44-7.39-9.81-37.09-10.05-13.88-.12-18.29,7.18-19.05,15A44.42,44.42,0,0,0,257.18,247.31Z"/><path class="cls-20" d="M257.18,247.31a44.28,44.28,0,0,0,25.6-8.11c-1.92-5.66-4.31-12.48-5.82-15.7-3.44-7.44-7.39-9.81-37.09-10.05-13.88-.12-18.29,7.18-19.05,15A44.42,44.42,0,0,0,257.18,247.31Z"/><path class="cls-8" d="M272.22,171.63s7.62-1,4.87-5.41a.6.6,0,0,0-1.1.26A6.5,6.5,0,0,1,272.22,171.63Z"/><path class="cls-8" d="M246.42,160.19s-10.66,1.49-8.66-5.48a.87.87,0,0,1,1.07-.55.88.88,0,0,1,.53.49A9.16,9.16,0,0,0,246.42,160.19Z"/><path class="cls-8" d="M244.49,187.29s-4,10.06-9,4.87a.85.85,0,0,1,0-1.21.83.83,0,0,1,.7-.23A9.14,9.14,0,0,0,244.49,187.29Z"/><path class="cls-8" d="M256.2,158.24s8.37-1.06,6.27-7.29-4.25-9.81-3.48-13.67c0,0-2,.2-1.81,3.57,0,0-2.26-7.53-8.7-6.94s-4.15,6.34-9.51,5.55c0,0,2.19,2.47,4.47.39,0,0-.6,4.46-6.44,2a9.35,9.35,0,0,1,3.59,7c.09,7.72,0,12.49,5.32,10.65Z"/><path class="cls-6" d="M244.81,162.32s-2.92-4.3,6.28-5.47,8.13,2.83,8.13,2.83Z"/><path class="cls-21" d="M243.33,191.53c1,7.13,1.74,17.5-3.46,21.92a67,67,0,0,1,16.77,15.61,2,2,0,0,0,2.85.37h0a1.47,1.47,0,0,0,.46-.5c6-9.51,1.83-14.18,1.83-14.18-4.6-1-4-5.11-2.37-10.5Z"/><path class="cls-17" d="M247.78,197l8.92,5,2.76,2.23a17.34,17.34,0,0,0-1.19,7C252.44,209.6,245.75,201.83,247.78,197Z"/><path class="cls-21" d="M243.57,174.84c-1.88,11.68-2.92,16.64,1.57,23.76,6.75,10.86,21.51,10.66,26.83-.28,4.75-9.79,7.12-27.24-3.19-34.36a16.11,16.11,0,0,0-25.21,10.88Z"/><path class="cls-8" d="M261.26,182c-.2.93.12,1.8.73,1.94s1.33-.5,1.49-1.45-.11-1.8-.73-1.94S261.47,181.07,261.26,182Z"/><path class="cls-8" d="M271.86,184.39c-.21,1,.12,1.82.73,2s1.33-.52,1.49-1.45-.12-1.82-.72-2S272.07,183.46,271.86,184.39Z"/><path class="cls-8" d="M273.07,183l2.37-.14S273.91,184.3,273.07,183Z"/><path class="cls-8" d="M265.48,196.2a9.54,9.54,0,0,0,1.41.18.31.31,0,0,0,.23-.34.3.3,0,0,0-.23-.22,7.68,7.68,0,0,1-6.1-3.27.27.27,0,0,0-.36-.11h0a.29.29,0,0,0-.11.38A7.86,7.86,0,0,0,265.48,196.2Z"/><path class="cls-8" d="M260.55,174.05a.56.56,0,0,0,.67,0c2.15-1.47,5.32-.34,5.32-.33a.57.57,0,0,0,.4-1.06c-.16,0-3.75-1.34-6.38.46a.58.58,0,0,0-.14.79A.35.35,0,0,0,260.55,174.05Z"/><path class="cls-8" d="M276.24,180.19a.56.56,0,0,0,.79.11.57.57,0,0,0,.21-.52,5.58,5.58,0,0,0-2.84-4.3.56.56,0,1,0-.49,1h0a4.51,4.51,0,0,1,2.2,3.44A.58.58,0,0,0,276.24,180.19Z"/><path class="cls-8" d="M262.47,180.55l2.37-.13S263.32,181.93,262.47,180.55Z"/><path class="cls-22" d="M267.93,184.84a26.41,26.41,0,0,0,2.28,7.22,5,5,0,0,1-4-.12Z"/><path class="cls-6" d="M266.56,183.84a4.19,4.19,0,0,1-8.25-1.46Z"/><path class="cls-6" d="M276.77,185.63a4.19,4.19,0,1,1-8.24-1.47Z"/><path class="cls-8" d="M273.14,189.62a5.75,5.75,0,0,1-.83,0,4.66,4.66,0,0,1-3.81-4.92l-1.16-.22a4.63,4.63,0,0,1-9.08-1.61l-2.13-.37L242.61,181l.11-.89,13.53,1.51,3,.54v.32a3.85,3.85,0,0,0,.23,2.25,3.74,3.74,0,0,0,3.14,2.25,3.88,3.88,0,0,0,4-3.27h0a.21.21,0,0,1,.24-.16l2.48.44a.2.2,0,0,1,.17.22h0a4,4,0,0,0,3.09,4.6,3.73,3.73,0,0,0,4.15-3.17l.88.16a4.57,4.57,0,0,1-1.9,3A4.45,4.45,0,0,1,273.14,189.62Z"/><path class="cls-8" d="M242,183.83s-10.57-23.33,11.28-25.21c2.92-.26,8.86-.7,11.71,0,3.67.88,12.74,6.47,9.2,12,0,0-3.22-4.56-14-3.53S250.73,186,242,183.83Z"/><path class="cls-21" d="M238.52,183.34A8.63,8.63,0,0,0,242,189c2.46,1.76,4.76-.2,4.92-3.06.14-2.57-.94-6.66-3.83-7.23a3.89,3.89,0,0,0-4.54,4.66Z"/><path class="cls-6" d="M244.06,196.64a4.7,4.7,0,0,1-2.89-8.81l.43.78a3.82,3.82,0,1,0,5.15,1.63,3.78,3.78,0,0,0-3.17-2.05v-.9a4.71,4.71,0,0,1,.43,9.33Z"/><polygon class="cls-6" points="296.09 161.44 299.54 164.78 304.29 164.1 305.13 168.85 309.38 171.1 307.26 175.41 309.38 179.74 305.13 181.99 304.29 186.72 299.54 186.06 296.09 189.4 292.62 186.06 287.87 186.72 287.03 181.99 282.78 179.74 284.9 175.41 282.78 171.1 287.03 168.85 287.87 164.1 292.62 164.78 296.09 161.44"/><g class="cls-19"><path class="cls-13" d="M293.5,180.89l-4.95-5.44a1,1,0,0,1,.13-1.45h0a1,1,0,0,1,1.43,0h0l3.64,4,8.4-7.73a1,1,0,0,1,1.45,0h0a1,1,0,0,1-.13,1.44Z"/></g></g><g id="freepik--character-2--inject-53"><circle class="cls-6" cx="220.92" cy="339.81" r="44.5" transform="translate(-175.58 255.74) rotate(-45)"/><circle class="cls-14" cx="220.92" cy="339.81" r="44.5" transform="translate(-175.58 255.74) rotate(-45)"/><path class="cls-8" d="M237.67,358.45c6.35-6.76,5-15.55,2.42-26.49-1.33-5.65,5.94-9.71.87-18-4.74-8-32.62-15.71-33.3-1.33-9.8,2.82-10.06,11.62-9.1,25.66.36,5.33-1.17,8-3.18,9.86a8.68,8.68,0,0,0,4.14,14.94C211.66,365.36,229.7,366.93,237.67,358.45Z"/><path class="cls-6" d="M227.67,362.22l-18.53-2.73c-10.88-1.15-17.32,3.47-21.11,10.29a44.45,44.45,0,0,0,55.51,8.34C241.37,362,227.67,362.22,227.67,362.22Z"/><path class="cls-23" d="M214.07,338.89c.28,6.13-.16,17.23-4.93,20.6,0,0,6,11.9,14.86,15.87,5.45-3.69,3.67-13.14,3.67-13.14-6.41-2.56-5.51-7.48-3.67-12Z"/><path class="cls-17" d="M218.17,343.54l5.89,6.73a20.26,20.26,0,0,0-1.1,3.21c-2.47-.73-5.55-4-5.43-6.74A8.78,8.78,0,0,1,218.17,343.54Z"/><path class="cls-23" d="M209.54,327.65c.8,10.06.92,14.33,6.08,19.4,7.78,7.61,20,4.46,22.18-5.62,2-9.08.37-24-9.55-27.83a13.77,13.77,0,0,0-18.65,14Z"/><path class="cls-8" d="M216.48,312.63c13.05,4.29-11.28,23.17-11,34.23C200.23,333.89,202.19,307.94,216.48,312.63Z"/><path class="cls-24" d="M231.18,330a21.38,21.38,0,0,0,3,5.17,3.53,3.53,0,0,1-2.92.61Z"/><path class="cls-8" d="M227.69,338.93a7.39,7.39,0,0,0,1.33-.12.24.24,0,0,0,.2-.27h0a.24.24,0,0,0-.28-.2,6.54,6.54,0,0,1-5.64-1.58.25.25,0,0,0-.34,0,.26.26,0,0,0,0,.35A6.81,6.81,0,0,0,227.69,338.93Z"/><path class="cls-8" d="M211.15,312.62c-4,7.39,7.62,3.19,17,6.24,8.72,2.83,13.12,8.47,12.17.28C239.13,309,217.49,301,211.15,312.62Z"/><path class="cls-8" d="M222,326a.48.48,0,0,0,.33-.2,3.86,3.86,0,0,1,3-1.79.47.47,0,0,0,.4-.56.49.49,0,0,0-.4-.41,4.82,4.82,0,0,0-3.8,2.17.5.5,0,0,0,.13.67A.46.46,0,0,0,222,326Z"/><path class="cls-8" d="M226.16,328.56a.22.22,0,0,0-.2.07,2.31,2.31,0,0,1-2,.57.29.29,0,0,0-.35.2.32.32,0,0,0,.19.36h0a2.85,2.85,0,0,0,2.53-.69.28.28,0,0,0,0-.4h0A.23.23,0,0,0,226.16,328.56Z"/><path class="cls-8" d="M235.31,328.15a.31.31,0,0,0-.21.06,2.26,2.26,0,0,1-2,.62.28.28,0,0,0-.34.21.27.27,0,0,0,.19.34h0a2.77,2.77,0,0,0,2.51-.74.28.28,0,0,0,0-.4h0A.26.26,0,0,0,235.31,328.15Z"/><path class="cls-8" d="M236.12,324.39a.4.4,0,0,0,.32-.17.46.46,0,0,0,0-.64l0,0h0a4.78,4.78,0,0,0-4.28-1,.5.5,0,0,0-.32.61.48.48,0,0,0,.6.31,3.79,3.79,0,0,1,3.4.84A.41.41,0,0,0,236.12,324.39Z"/><path class="cls-6" d="M220.91,390.35a50.55,50.55,0,1,1,50.54-50.56v0A50.63,50.63,0,0,1,220.91,390.35Zm0-99.46a48.93,48.93,0,1,0,48.91,48.94v0a49,49,0,0,0-48.91-49Z"/><g class="cls-12"><path class="cls-13" d="M220.91,390.35a50.55,50.55,0,1,1,50.54-50.56v0A50.63,50.63,0,0,1,220.91,390.35Zm0-99.46a48.93,48.93,0,1,0,48.91,48.94v0a49,49,0,0,0-48.91-49Z"/></g></g><g id="freepik--character-1--inject-53"><path class="cls-23" d="M330.7,386.36,319.05,556.51l9.54,2.41s18.34-59,19.07-92.17-.08-40.19,10.42-58.93Z"/><path class="cls-23" d="M364,388.67l13.13,170.25,10-.07s10.66-60.94,6.54-93.83-9.69-39.4-1.89-59.63Z"/><path class="cls-8" d="M377.92,556.92l10.38.23a1,1,0,0,1,.93.77l2,9.8a1.6,1.6,0,0,1-1.24,1.89h0a1,1,0,0,1-.35,0c-4.33-.16-8.16-.46-13.54-.54-6.37-.12-4.77.66-12.24.64-4.51,0-5.24-5.16-3.32-5.33,8.75-1,11.32-3.57,14.76-6.66A3.87,3.87,0,0,1,377.92,556.92Z"/><path class="cls-8" d="M318.93,555.43l10.24,1.73a.94.94,0,0,1,.81.89l.55,10a1.62,1.62,0,0,1-1.5,1.71h-.31c-4.26-.79-8-1.64-13.32-2.52-6.27-1-4.81,0-12.2-1.13-4.45-.68-4.42-5.86-2.5-5.8,8.8.34,11.72-1.88,15.55-4.42A4,4,0,0,1,318.93,555.43Z"/><path class="cls-17" d="M364,388.67l4.92,63.93c6.66-.85,14.12-2.06,22.31-3.69-2.27-13.4-4.14-21.11-3.11-29.82a48.71,48.71,0,0,1,2-14.65Z"/><path class="cls-17" d="M347.94,453.35c.48-22.13,1.24-29.6,10.14-45.49L330.7,386.4,326.2,452A132.88,132.88,0,0,0,347.94,453.35Z"/><path class="cls-8" d="M333.87,332.51s-7,58.61-9,114c0,0,19.12,5.46,69.47-2.34a84.82,84.82,0,0,1-1.08-21.93c1.47-20,7.38-41.81,1.08-62.76-7-23.15-14.44-29.65-14.44-29.65l-43.71-1.95Z"/><path class="cls-6" d="M349.22,253.76l36.48,1a4,4,0,0,1,3.93,4,3.84,3.84,0,0,1-.2,1.21c-3.78,11.64-11.68,41.57-5.61,74.09h-51.1l-.78-47.95S328,276,344.46,256A6,6,0,0,1,349.22,253.76Z"/><path class="cls-25" d="M349.22,253.76l36.48,1a4,4,0,0,1,3.93,4,3.84,3.84,0,0,1-.2,1.21c-3.78,11.64-11.68,41.57-5.61,74.09h-51.1l-.78-47.95S328,276,344.46,256A6,6,0,0,1,349.22,253.76Z"/><path class="cls-23" d="M302.28,289.37l-10.15-3.85-3.37-7.69a2.51,2.51,0,0,0-.41-.66L279.85,267a1.42,1.42,0,0,0-1.86-.28h0a1.41,1.41,0,0,0-.42,1.95.61.61,0,0,0,.07.1l4.53,5.81-1.71,8a4.37,4.37,0,0,0,1,3.73l.77.88a4.35,4.35,0,0,0,1.26,1l5.72,2.95L299,296Z"/><path class="cls-6" d="M345.17,253.76s-14.65,4.71-21,36.92a3.5,3.5,0,0,1-4.13,2.74l-.32-.08-22.34-7-2.93,8.17s22.34,15.87,32.78,13.55S345.17,253.76,345.17,253.76Z"/><path class="cls-10" d="M326.92,279.76a45.66,45.66,0,0,0-.65,11.73,119.38,119.38,0,0,1,.28,16.7,5.46,5.46,0,0,0,.69-.1c10.44-2.32,17.93-54.33,17.93-54.33S334,257.37,326.92,279.76Z"/><path class="cls-8" d="M385,223c-.93-3.25,0-6.58-2.4-9.59a10,10,0,0,1-2-5.71c-.61-10.66-13.7-14-23.29-14.07-10.59,0-6.41,4.3-15.35,6.41s-4.07,13.13-1.65,16.27.2,8.58-4.75,17c0,0-5.33,9.87,22.41,5.45C358,238.72,392.07,247.32,385,223Z"/><path class="cls-23" d="M372.21,231.85c-1.81,6.3-4.07,18,0,22.64a73.85,73.85,0,0,1-17.32,8.31c-6.66-6.5-2.74-9-2.74-9,7.3-1.14,7.72-7.4,7-12.49Z"/><path class="cls-17" d="M367.59,238.68a12.82,12.82,0,0,0,0-3.5l-8.45,6.08a23,23,0,0,1,.27,3.09C362.47,244,367,241.76,367.59,238.68Z"/><path class="cls-23" d="M375.62,220.54c-2.89,10.39-3.89,14.85-10.35,19.11-9.73,6.42-21.85.61-22.13-10.43-.25-9.93,4.51-25.3,15.69-27.25A14.67,14.67,0,0,1,376,213.63a14.82,14.82,0,0,1-.35,6.91Z"/><path class="cls-23" d="M376.34,229.4a7.94,7.94,0,0,1-4.69,3.77c-2.67.74-4-1.62-3.28-4.13.65-2.27,2.82-5.33,5.5-5a3.58,3.58,0,0,1,3,4.08A4,4,0,0,1,376.34,229.4Z"/><path class="cls-8" d="M371,199.52c1.83,3.22-2.93,9.1-12.69,8.37-7.37-.54-16.73,7.23-15.85-1.34C343.22,198.8,361.8,195.37,371,199.52Z"/><path class="cls-8" d="M365.64,201.79c-5.17,3.82-1.88,11,.52,14.25s6.15,6.3,3.14,11-4.21,10.57,5.18,8.42,8.2-10.59,5.6-17.84S371.78,197.24,365.64,201.79Z"/><path class="cls-24" d="M351.62,220a22.88,22.88,0,0,1-4.23,4.82,3.76,3.76,0,0,0,2.93,1.24Z"/><path class="cls-8" d="M363.86,216.66a.38.38,0,0,0,.21,0,.44.44,0,0,0,.16-.58h0a5,5,0,0,0-3.82-2.57.45.45,0,0,0-.46.41.44.44,0,0,0,.4.44,4.2,4.2,0,0,1,3.16,2.16A.42.42,0,0,0,363.86,216.66Z"/><path class="cls-8" d="M345.66,213a.74.74,0,0,0,.21,0,4.16,4.16,0,0,1,3.79-.19.42.42,0,0,0,.58-.15h0a.45.45,0,0,0-.17-.59,5.07,5.07,0,0,0-4.61.2.43.43,0,0,0-.2.57h0a.47.47,0,0,0,.4.24Z"/><path class="cls-8" d="M358,219.91c-.18.86-.78,1.44-1.33,1.33s-.87-.9-.67-1.77.79-1.45,1.34-1.33S358.14,219.05,358,219.91Z"/><path class="cls-8" d="M348.27,217.85c-.17.85-.77,1.45-1.33,1.33s-.87-.91-.69-1.77.78-1.44,1.33-1.33S348.47,217,348.27,217.85Z"/><path class="cls-8" d="M347.83,216.18l-1.93-1S346.62,217,347.83,216.18Z"/><path class="cls-8" d="M357.52,218.23l-1.94-1S356.3,219,357.52,218.23Z"/><path class="cls-6" d="M372.59,252.23a3.37,3.37,0,0,0-2.83,1.17c-3.31,3.85-12.34,16.55-12.34,40.46,0,19.08,1.11,37.1,1.88,47.34a7.27,7.27,0,0,0,7.78,6.72,6.69,6.69,0,0,0,1.34-.22l21-5.58s-8.29-20.85-6.37-43c1.33-15.41,5.73-31.4,8.27-39.68a4.81,4.81,0,0,0-3.17-6,4.46,4.46,0,0,0-1.09-.2Z"/><path class="cls-6" d="M353.2,252.12a.92.92,0,0,1,.93.91.91.91,0,0,1-.28.66c-3.75,3.72-12,14.81-13.32,41.74-1.14,23.15-2.14,39.46-2.66,47.95a4.61,4.61,0,0,1-4.9,4.3,4.82,4.82,0,0,1-1.59-.39l-1.75-.79s2.66-12.57,1.91-40.08-4.93-28.82,6.28-43.95c1.09-1.47,3.49-4.49,5.4-6.89a9.35,9.35,0,0,1,7.22-3.46Z"/><path class="cls-23" d="M372.93,254.38l-23.34-.61c-1.6,6.27-4.1,18.9-.69,26.45C348.9,280.2,361.66,266,372.93,254.38Z"/><path class="cls-6" d="M363.54,327.83l16.19-2.53.67,1.33a2.82,2.82,0,0,1-1.39,3.76,2.54,2.54,0,0,1-.77.23l-10.65,1.5a2.82,2.82,0,0,1-3-1.82Z"/><path class="cls-17" d="M363.54,327.83l16.19-2.53.67,1.33a2.82,2.82,0,0,1-1.39,3.76,2.54,2.54,0,0,1-.77.23l-10.65,1.5a2.82,2.82,0,0,1-3-1.82Z"/><path class="cls-6" d="M330.37,327.83h4.09l-.33,2.73a3.68,3.68,0,0,1-4.08,3.19l-.15,0-1.49-.24Z"/><path class="cls-17" d="M330.37,327.83h4.09l-.33,2.73a3.68,3.68,0,0,1-4.08,3.19l-.15,0-1.49-.24Z"/><path class="cls-23" d="M394.17,321.59l-3.84,8.59-8,5.66a3.05,3.05,0,0,0-1.17,3.27h0a3.11,3.11,0,0,0,1.6,2l4.3,2.1a3,3,0,0,0,3.88-1l3-4.47a6.58,6.58,0,0,0,1-2.41l.39-2.22,5.33-8.71Z"/><path class="cls-10" d="M386.57,263.44l-3.79,1.76s-4.17,11,1.33,25.55a212.28,212.28,0,0,1,5.43-24.94Z"/><path class="cls-6" d="M363.64,267c6.66-2.13,10.84.54,10.84.54,2.67-8,.87-11.68.42-15.14l-2.31-.16a3.39,3.39,0,0,0-2.83,1.17c-3.31,3.85-12.34,16.56-12.34,40.47,0,6.06.11,12,.3,17.64,3.29-26,11.7-35.79,11.7-35.79A11.6,11.6,0,0,0,363.64,267Z"/><path class="cls-6" d="M353.2,252.12h-2.13c-3.81,2.21-9,6.07-10.56,11.32a3.87,3.87,0,0,1,4.66,1,16.93,16.93,0,0,0-7,6.66,217.66,217.66,0,0,0,1.94,32c.13-2.45.27-5,.39-7.61,1.33-26.93,9.59-38,13.32-41.74a.92.92,0,0,0,0-1.3A.89.89,0,0,0,353.2,252.12Z"/><path class="cls-17" d="M363.64,267c6.66-2.13,10.84.54,10.84.54,2.67-8,.87-11.68.42-15.14l-2.31-.16a3.39,3.39,0,0,0-2.83,1.17c-3.31,3.85-12.34,16.56-12.34,40.47,0,6.06.11,12,.3,17.64,3.29-26,11.7-35.79,11.7-35.79A11.6,11.6,0,0,0,363.64,267Z"/><path class="cls-17" d="M353.2,252.12h-2.13c-3.81,2.21-9,6.07-10.56,11.32a3.87,3.87,0,0,1,4.66,1,16.93,16.93,0,0,0-7,6.66,217.66,217.66,0,0,0,1.94,32c.13-2.45.27-5,.39-7.61,1.33-26.93,9.59-38,13.32-41.74a.92.92,0,0,0,0-1.3A.89.89,0,0,0,353.2,252.12Z"/><path class="cls-6" d="M389.63,254.22s4.93.24,13.7,19.56,12.3,32.7-4.48,55l-7.32-3.46s7.52-17.76,7.13-26.74-8.72-17.91-12.91-23.61C382.86,271,379.43,264.32,389.63,254.22Z"/><path class="cls-26" d="M357.74,376.2c2.91,43.82.15,63.72-1.88,71.93,3.16-.14,6.58-.35,10.3-.64-1-25.4-6-59.09-8-71.29Z"/><path class="cls-8" d="M352.87,230.91a7.39,7.39,0,0,1-1.33-.12.22.22,0,0,1-.19-.25h0a.25.25,0,0,1,.27-.19,6.36,6.36,0,0,0,5.52-1.54.24.24,0,1,1,.36.32A6.62,6.62,0,0,1,352.87,230.91Z"/></g></svg>