<svg id="Layer_1" data-name="Layer 1" xmlns="http://www.w3.org/2000/svg" viewBox="0 0 559 558"><defs><style>.cls-1{fill:#e0e0e0;}.cls-2{fill:#f5f5f5;}.cls-3{fill:#fff;}.cls-4{fill:#ebebeb;}.cls-5{fill:#fafafa;}.cls-6{fill:#263238;}.cls-7{fill:#407bff;}.cls-13,.cls-8{opacity:0.3;}.cls-8{isolation:isolate;}.cls-9{fill:#455a64;}.cls-10{fill:#ffbf9d;}.cls-11{fill:#ff9a6c;}.cls-12{opacity:0.2;}</style></defs><g id="freepik--background-complete--inject-62"><path class="cls-1" d="M394.08,64.62l-27.71,13.9A5.61,5.61,0,0,0,363,83.69v13a60.13,60.13,0,0,0,9.88,33.16c5,7.58,11.62,17.33,22.63,22.89h5c12.27-3.79,21.42-13.71,27-22.24a60.16,60.16,0,0,0,9.88-33.16V83.69a5.62,5.62,0,0,0-3.41-5.17L402.34,65.06C400.93,64.47,395.48,64,394.08,64.62Z"/><path class="cls-2" d="M393,65.06,361.39,78.52A5.63,5.63,0,0,0,358,83.69v13a60.71,60.71,0,0,0,37.49,56.08c12.26-3.79,21.42-13.71,27-22.24a60.19,60.19,0,0,0,9.89-33.19V83.69a5.63,5.63,0,0,0-3.42-5.17L397.37,65.06A5.72,5.72,0,0,0,393,65.06Z"/><path class="cls-1" d="M432.25,93.79a3.05,3.05,0,0,1,.06.6c0,.44.05,1,.07,1.71a22.22,22.22,0,0,1,0,2.72c-.07,1.06,0,2.27-.17,3.6s-.21,2.84-.49,4.35c-.12.78-.22,1.58-.38,2.41s-.36,1.65-.54,2.52a60.69,60.69,0,0,1-3.65,10.9,64.15,64.15,0,0,1-5.68,10,49.5,49.5,0,0,1-3.07,4c-.51.59-.95,1.2-1.47,1.73l-1.44,1.52c-.9.95-1.82,1.79-2.58,2.52s-1.47,1.32-2.05,1.79l-1.24,1.08a2.9,2.9,0,0,1-.49.35,2.91,2.91,0,0,1,.43-.43l1.28-1.15a23.1,23.1,0,0,0,2-1.89c.74-.81,1.65-1.55,2.52-2.55l1.41-1.54c.49-.53.95-1.14,1.44-1.74,1-1.18,2-2.56,3-4a66.83,66.83,0,0,0,5.59-9.94,63.91,63.91,0,0,0,3.64-10.81L431,109c.17-.81.28-1.62.41-2.38.28-1.54.4-3,.54-4.31s.16-2.53.24-3.59.06-2,.06-2.71V94.34A3.37,3.37,0,0,1,432.25,93.79Z"/><polygon class="cls-3" points="392.81 121.97 374.71 107.58 379.73 101.25 391.87 110.91 409.61 91.06 415.63 96.44 392.81 121.97"/><path class="cls-4" d="M478.34,135.54h-3.43V116.89a8,8,0,0,0-15.91,0v18.65h-3.43V116.89a11.37,11.37,0,0,1,22.74,0Z"/><rect class="cls-4" x="451.61" y="122.89" width="30.69" height="24.06" rx="2.92"/><path class="cls-5" d="M469.31,135.53a3.3,3.3,0,0,0,.94-2.35,3.38,3.38,0,1,0-4.3,3.23l-.72,3.21h3.21l-.64-3.21a3.35,3.35,0,0,0,1.48-.88"/><path class="cls-1" d="M88.85,407.81a28.52,28.52,0,0,0-12.16-4.18c-2-.2-4.16-.15-5.75,1.06a1.17,1.17,0,0,0-.59,1.05,1.29,1.29,0,0,0,.56.72,17.38,17.38,0,0,0,17.94,1.35"/><path class="cls-1" d="M88.54,407.47a60,60,0,0,1-7.86-6.9,19.85,19.85,0,0,1-4.91-9.11,3.64,3.64,0,0,1,.38-3c6.26,4.89,11.17,11.22,12.39,19.06"/><path class="cls-1" d="M88.78,407.77a28.86,28.86,0,0,1,.15-10.32,14,14,0,0,1,5.49-8.53c1.08,2.53.62,5.45-.14,8.08a39,39,0,0,1-5.45,11.47"/><path class="cls-1" d="M94.92,418.77a18,18,0,0,0-9.75,4.93,18.49,18.49,0,0,0-5.58,9.57c3.66-.23,6.76-2.84,9-5.68s3.79-6.06,6.28-8.76"/><path class="cls-1" d="M96.26,420.52A24,24,0,0,1,99,397.78c2.13,7.58,1.34,16.11-2.77,22.74"/><path class="cls-1" d="M104.36,430.17a17.44,17.44,0,0,0-16.63,9.58c-.2.41-.39.95-.1,1.3a1.23,1.23,0,0,0,1.1.32c3.27-.21,6.17-2.18,8.57-4.42s4.49-4.85,7.13-6.79"/><path class="cls-1" d="M104.1,429.66a31,31,0,0,1-.31-17.3c.62-2.23,1.64-4.57,3.7-5.61a.69.69,0,0,1,.56-.1.7.7,0,0,1,.35.41,10.32,10.32,0,0,1,.88,5,32.88,32.88,0,0,1-.78,5c-.65,3.07-1,6.37-2.68,9a17.21,17.21,0,0,0-1.07,2c-.32.67-.32.95-.61,1.44"/><path class="cls-1" d="M125.56,432.84a22.27,22.27,0,0,1,3.91-18.34c.28-.37.65-.76,1.11-.72.7.07.88,1,.86,1.71a33.1,33.1,0,0,1-5.88,17.34"/><path class="cls-1" d="M127.49,434.17a26.67,26.67,0,0,0,21.9-4.45,17.66,17.66,0,0,0-11.85-1.45c-4,1-7.58,2.67-10,5.9"/><path class="cls-1" d="M129.12,430.14A25.41,25.41,0,0,1,149,418.65a12.36,12.36,0,0,1-6.5,7.19,36.13,36.13,0,0,1-9.55,2.79c-1.27.24-3,.52-3.79,1.51"/><path class="cls-1" d="M126,410.6A57.18,57.18,0,0,0,128.51,399a19.34,19.34,0,0,0-2.31-11.5,25.31,25.31,0,0,0-.34,23.55"/><path class="cls-1" d="M138.91,404.08c4.5-8.17,13.67-14.69,23-15.61-3.58,8.91-13.34,15.8-23,15.61"/><path class="cls-1" d="M136.09,405.66c6.7,1,12.41,5.31,18.67,7.9a8.46,8.46,0,0,0,4.23.81,3.31,3.31,0,0,0,2.07-5.85,9,9,0,0,0-3.07-1.89c-6.82-2.84-14.14-2.91-21.32-1.19"/><path class="cls-1" d="M132.2,410.36c1.52.44,2,1.22,3.24,2.25a34.86,34.86,0,0,0,14.21,7.27c.54.14,1.26.19,1.53-.29s-.07-.95-.37-1.33a19.38,19.38,0,0,0-8.53-5.8c-3.26-1.23-6.1-2.7-10-2.37"/><path class="cls-1" d="M127.83,382a26.84,26.84,0,0,0,20.56,7,1.4,1.4,0,0,0,.94-.33c.52-.57-.1-1.44-.7-1.9-6-4.73-13.37-6.63-20.78-4.73"/><path class="cls-1" d="M133,380.06a28.61,28.61,0,0,1,25.64-4.22,20.38,20.38,0,0,1-12.22,5.36A38.44,38.44,0,0,1,133,380.06"/><path class="cls-1" d="M131,367c-.58-6-.21-10.79-.62-16.86,0-.48-.14-1.06-.59-1.24-.63-.24-1.16.53-1.36,1.18a19.28,19.28,0,0,0,2.56,16.78"/><path class="cls-1" d="M130.52,367.68a35.54,35.54,0,0,0,10-9.71c2-2.7,3.64-5.93,3.19-9.25a9.61,9.61,0,0,0-7.21,3.58,20.19,20.19,0,0,0-3.67,7.39c-.8,2.66-1.36,5.38-2.31,8"/><path class="cls-1" d="M140.34,365A80.43,80.43,0,0,0,165,350.46c-2.93-1.19-6.3-.48-9.23.71a29.07,29.07,0,0,0-15.48,13.72"/><path class="cls-1" d="M133.28,371a50.39,50.39,0,0,0,13.66.06c4.42-.74,8.61-2.5,12.74-4.23a1.57,1.57,0,0,0,.87-.67,1,1,0,0,0-.31-1.08,2.62,2.62,0,0,0-1.09-.52,23.7,23.7,0,0,0-13.78.83A63.78,63.78,0,0,0,133.28,371"/><path class="cls-1" d="M107.39,382.18c-3.1-6.26-2.84-13.55-.22-20,1.9,2.84,2.12,6.51,1.77,9.93s-1.38,6.93-1.45,10.36"/><path class="cls-1" d="M95,375.93a27.84,27.84,0,0,0-20.71,8.83,19.42,19.42,0,0,0,11.37-2.1,57.66,57.66,0,0,0,9.72-6.51"/><path class="cls-1" d="M86.67,373.15c-3.79-.31-7.42-.77-11.06.34a13.23,13.23,0,0,0-8.42,7.15,20,20,0,0,0,10.37-2,60.43,60.43,0,0,0,9.11-5.53"/><path class="cls-1" d="M99,373.28c-3.4-2.23-6.9-4.5-10.86-5.43s-8.53-.24-11.31,2.75c3.2,1.89,7.09,2.1,10.82,2.1s8.27-.05,11.77,1.2"/><path class="cls-1" d="M99,373.46c-5.82-5.69-8-16-5.69-23.78A36.29,36.29,0,0,1,99,373.46"/><path class="cls-1" d="M115,357.28c1.1-2.56,1.89-5.23,2.84-7.83a22.57,22.57,0,0,1,4.07-7.21,10.74,10.74,0,0,1,7.21-3.79,29.08,29.08,0,0,1-14,18.82"/><path class="cls-1" d="M112.13,360.65c-1.81-2.5-3.92-5.89-6.38-7.76s-5.68-3-8.67-2.28a20.22,20.22,0,0,0,15,10"/><path class="cls-1" d="M112.69,357.49a43.86,43.86,0,0,1-2.85-9.3,14.6,14.6,0,0,1,1.46-9.47c3.2,6,4.23,12.51,1.59,18.81"/><path class="cls-1" d="M115,338.71c1.81-6,7.28-10.42,13.2-12.41a4.81,4.81,0,0,1,2.31-.34,2,2,0,0,1,1.71,1.42c.22,1-.63,1.89-1.42,2.6a44.91,44.91,0,0,1-15.8,8.73"/><path class="cls-1" d="M115.1,333.85c.23-3.87.47-7.78,1.73-11.44s3.67-7.07,7.19-8.68c.59,3.9-1.12,7.77-3.2,11.13s-4.57,6.51-5.81,10.26"/><path class="cls-1" d="M115,336.5c-1.5-4.36-1.65-9.9-4.26-13.7-1.83-2.65-4.74-4.46-6.32-7.28a11.07,11.07,0,0,0,.37,8.27,23.72,23.72,0,0,0,4.83,6.91c1.89,2.07,3.58,3.62,5.38,5.8"/><path class="cls-1" d="M115,464.92c-.12,0-.22-29.08-.23-65s.08-65,.2-65,.22,29.08.22,65S115.15,464.92,115,464.92Z"/><path class="cls-1" d="M140.46,377.78a5.57,5.57,0,0,1-1.09.42l-3,1c-2.54.86-6,2.11-9.8,3.67s-7.29,2.91-9.3,4.65a6.83,6.83,0,0,0-1.89,2.47c-.3.68-.34,1.1-.38,1.1s0-.11,0-.31a5.06,5.06,0,0,1,.22-.85,6.5,6.5,0,0,1,1.82-2.63,16,16,0,0,1,4-2.5c1.61-.76,3.4-1.54,5.3-2.32,3.79-1.56,7.3-2.77,9.87-3.56,1.29-.4,2.33-.7,3.06-.89A5.92,5.92,0,0,1,140.46,377.78Z"/><path class="cls-1" d="M148.79,357.32a1.87,1.87,0,0,1-.31.32l-.95.88-3.48,3.16L132.45,372c-4.53,4-8.44,7.88-11.15,10.78-1.37,1.45-2.44,2.65-3.17,3.49l-.84,1a1.82,1.82,0,0,1-.31.31,1.85,1.85,0,0,1,.25-.37c.17-.24.43-.59.78-1,.69-.87,1.73-2.1,3.07-3.58a146.11,146.11,0,0,1,11.09-10.89c4.54-4,8.67-7.64,11.68-10.23l3.57-3.07,1-.82A1.76,1.76,0,0,1,148.79,357.32Z"/><path class="cls-1" d="M127.58,376.11c-.12-.05.82-2.23,1.77-5s1.39-5.09,1.52-5.07a17.15,17.15,0,0,1-1.12,5.2,36,36,0,0,1-1.41,3.47A6.12,6.12,0,0,1,127.58,376.11Z"/><path class="cls-1" d="M115.06,393.72a4.53,4.53,0,0,1-.7-.81l-1.79-2.29c-1.49-1.94-3.57-4.63-5.9-7.58s-4.46-5.56-6-7.47l-1.79-2.23a5.35,5.35,0,0,1-.63-.87,6.06,6.06,0,0,1,.76.76c.46.5,1.12,1.25,1.89,2.18,1.61,1.9,3.79,4.45,6.12,7.39s4.37,5.69,5.81,7.64c.73.94,1.3,1.81,1.69,2.38A4.66,4.66,0,0,1,115.06,393.72Z"/><path class="cls-1" d="M109.48,386.56a10.24,10.24,0,0,1-2.33-4.37,12.4,12.4,0,0,1-.53-4.41h.19a1.2,1.2,0,0,1-.18.51v-.54h.19a20.18,20.18,0,0,0,.74,4.29A33.87,33.87,0,0,0,109.48,386.56Z"/><path class="cls-1" d="M102.29,377.55a8.27,8.27,0,0,0-1.63-.95,10.83,10.83,0,0,0-4.53-.36,28,28,0,0,0-4.55.73,13.84,13.84,0,0,1-1.9.46,6.22,6.22,0,0,1,1.79-.74,20.71,20.71,0,0,1,4.62-.87,9.85,9.85,0,0,1,4.66.5A2.93,2.93,0,0,1,102.29,377.55Z"/><path class="cls-1" d="M100.59,375.32c0,.06-1-.38-2.5-.95a25.29,25.29,0,0,0-12.59-.95c-1.62.29-2.58.59-2.61.52a2.26,2.26,0,0,1,.66-.28,14.1,14.1,0,0,1,1.9-.53,22.2,22.2,0,0,1,6.45-.46,22.68,22.68,0,0,1,6.3,1.42,16,16,0,0,1,1.78.82A2.25,2.25,0,0,1,100.59,375.32Z"/><path class="cls-1" d="M115,366a51.4,51.4,0,0,1-1.82-6.33,50.53,50.53,0,0,1-1.42-6.43,53.26,53.26,0,0,1,1.83,6.33A52.28,52.28,0,0,1,115,366Z"/><path class="cls-1" d="M115.12,366a30.6,30.6,0,0,0-2-3.79,16.3,16.3,0,0,0-3-3.07,2.79,2.79,0,0,1,1.14.6,9,9,0,0,1,2.17,2.23A8.29,8.29,0,0,1,115.12,366Z"/><path class="cls-1" d="M115,449.41s-.14-.7-.47-1.89a27.3,27.3,0,0,0-1.89-5A69.81,69.81,0,0,0,102.37,428c-2.3-2.64-4.54-5.12-6.43-7.5a51.3,51.3,0,0,1-4.61-6.63A31.68,31.68,0,0,1,89,408.9c-.22-.6-.37-1.08-.45-1.4a2.83,2.83,0,0,1-.13-.5s.25.66.73,1.85a37,37,0,0,0,2.43,4.83,55.61,55.61,0,0,0,4.64,6.54c1.89,2.35,4.15,4.82,6.45,7.45A66.29,66.29,0,0,1,113,442.36a25,25,0,0,1,1.83,5.12,14.39,14.39,0,0,1,.26,1.46A3.68,3.68,0,0,1,115,449.41Z"/><path class="cls-1" d="M138,423.47c-.39.25-.79.47-1.2.68a26,26,0,0,0-3.13,2.06,34.66,34.66,0,0,0-4.1,3.74c-1.44,1.52-2.92,3.28-4.44,5.18-3,3.79-5.85,7.16-7.57,9.84-.87,1.33-1.49,2.45-1.9,3.23a10.88,10.88,0,0,1-.66,1.21.86.86,0,0,1,.11-.34c.11-.21.21-.54.4-.94a29.53,29.53,0,0,1,1.82-3.31,109.88,109.88,0,0,1,7.47-9.95c1.52-1.89,3-3.66,4.49-5.18a34.4,34.4,0,0,1,4.2-3.71,21.74,21.74,0,0,1,3.26-2,8.06,8.06,0,0,1,1-.42Q138,423.44,138,423.47Z"/><path class="cls-1" d="M138.46,431.89a20.09,20.09,0,0,1-2.55.37,33.45,33.45,0,0,0-6,1.19,17.92,17.92,0,0,0-5.4,2.84c-1.24.95-1.83,1.76-1.89,1.72s.09-.24.37-.59a9.36,9.36,0,0,1,1.32-1.35,16.49,16.49,0,0,1,5.47-3,27.08,27.08,0,0,1,6.13-1.08A14,14,0,0,1,138.46,431.89Z"/><path class="cls-1" d="M123.33,437.07c-.14-.08,1-1.83,1.89-4.19s1-4.46,1.18-4.43a3.88,3.88,0,0,1,0,1.36,15.36,15.36,0,0,1-.74,3.22,16.28,16.28,0,0,1-1.48,3A4.11,4.11,0,0,1,123.33,437.07Z"/><path class="cls-1" d="M145.45,400.87a1.62,1.62,0,0,1-.41.22l-1.19.54c-.53.22-1.17.51-1.9.89s-1.56.75-2.43,1.28l-1.39.78c-.48.29-.94.61-1.46.95-1,.62-2,1.38-3.15,2.16a60.86,60.86,0,0,0-6.56,5.77,58.44,58.44,0,0,0-5.52,6.73c-.75,1.12-1.48,2.18-2.06,3.22-.3.51-.61,1-.88,1.49l-.69,1.43c-.49.89-.84,1.74-1.19,2.47s-.62,1.37-.83,1.89-.37.89-.5,1.22a2.22,2.22,0,0,1-.2.41,1.39,1.39,0,0,1,.13-.44l.42-1.24c.19-.54.43-1.21.76-1.95s.66-1.61,1.15-2.51c.22-.46.47-.94.72-1.44s.56-.94.86-1.51c.58-1.06,1.3-2.12,2-3.26a52.19,52.19,0,0,1,12.19-12.62c1.11-.78,2.15-1.54,3.18-2.14.52-.32,1-.65,1.49-.95l1.41-.78c.89-.5,1.74-.87,2.47-1.22a18.76,18.76,0,0,1,1.9-.82L145,401A2.71,2.71,0,0,1,145.45,400.87Z"/><path class="cls-1" d="M127.29,413.05a2.91,2.91,0,0,1,.94-1.49,6.3,6.3,0,0,1,4-1.54,11,11,0,0,1,4.23.82,6.85,6.85,0,0,1,1.61.78,9.17,9.17,0,0,1-1.7-.49,12.65,12.65,0,0,0-4.13-.69,6.57,6.57,0,0,0-3.85,1.35A10.46,10.46,0,0,0,127.29,413.05Z"/><path class="cls-1" d="M124.55,415.86a10.85,10.85,0,0,0,.89-7.61,2.42,2.42,0,0,1,.47,1.09,7.7,7.7,0,0,1-.65,5.57A2.72,2.72,0,0,1,124.55,415.86Z"/><path class="cls-1" d="M94.94,453.58c.63,11.13,4,22.43,9.13,33.86h22.41c4.92-11.32,8-22.6,8.58-33.86Z"/><path class="cls-5" d="M131.44,471.57c0,.12-7.38.21-16.48.21s-16.48-.09-16.48-.21,7.38-.22,16.49-.22S131.44,471.46,131.44,471.57Z"/><path class="cls-5" d="M130.93,475.6c0,.11-6.91.21-15.44.21s-15.45-.1-15.45-.21,6.91-.21,15.45-.21S130.93,475.49,130.93,475.6Z"/><path class="cls-5" d="M104.43,460.93a63.38,63.38,0,0,1,0,10.31A65.72,65.72,0,0,1,104.43,460.93Z"/><path class="cls-5" d="M116.44,460.93a68,68,0,0,1,0,10.68A68,68,0,0,1,116.44,460.93Z"/><path class="cls-5" d="M127.71,460.79a71,71,0,0,1,0,10.91A71,71,0,0,1,127.71,460.79Z"/><path class="cls-5" d="M134.35,460.93c0,.11-8.65.2-19.31.2s-19.34-.09-19.34-.2,8.66-.21,19.34-.21S134.35,460.76,134.35,460.93Z"/><path class="cls-4" d="M482,357.21a11.46,11.46,0,0,0,6.83-10.6c0-6.33-4.73-11.48-10.69-11.5s-10.78,5.08-10.8,11.37a11.45,11.45,0,0,0,6.85,10.69c-16.54,2.49-15.79,20.46-15.79,20.46l39.1.18S498.38,359.68,482,357.21Z"/><path class="cls-4" d="M306.23,96a7.6,7.6,0,0,0,5.93-5.76,7.05,7.05,0,0,0-13.53-4,6,6,0,0,0-.17.73,7.47,7.47,0,0,0,2.78,7.84c-10.92-.86-13.09,10.72-13.09,10.72l24.92,5.9S316.33,100,306.23,96Z"/><path class="cls-2" d="M483.06,192.44a7.22,7.22,0,0,0,3.3-7.21,6.77,6.77,0,1,0-13.49,1,6.21,6.21,0,0,0,.12.85,7.19,7.19,0,0,0,5.22,6c-10,3-8,14.14-8,14.14l24.33-3.4S493.47,192.5,483.06,192.44Z"/><polygon class="cls-2" points="92.69 195.88 79.55 185.43 83.18 180.84 92 187.84 104.87 173.45 109.24 177.35 92.69 195.88"/></g><g id="freepik--Floor--inject-62"><path class="cls-6" d="M490.77,487.78c0,.14-94.88.24-211.89.24S67,487.92,67,487.78s94.86-.25,211.91-.25S490.77,487.64,490.77,487.78Z"/></g><g id="freepik--Icon--inject-62"><path class="cls-7" d="M110.61,211,81.55,225.59A5.87,5.87,0,0,0,78,231v13.6a63.13,63.13,0,0,0,10.36,34.81c5.23,8,12.18,18.17,23.73,24h5.21c12.87-3.93,22.46-14.38,28.33-23.32A63.13,63.13,0,0,0,156,245.28V231a5.89,5.89,0,0,0-3.58-5.41l-33.15-14.11C117.81,210.85,112.13,210.38,110.61,211Z"/><path class="cls-8" d="M110.61,211,81.55,225.59A5.87,5.87,0,0,0,78,231v13.6a63.13,63.13,0,0,0,10.36,34.81c5.23,8,12.18,18.17,23.73,24h5.21c12.87-3.93,22.46-14.38,28.33-23.32A63.13,63.13,0,0,0,156,245.28V231a5.89,5.89,0,0,0-3.58-5.41l-33.15-14.11C117.81,210.85,112.13,210.38,110.61,211Z"/><path class="cls-7" d="M109.45,211.48,76.33,225.59A5.9,5.9,0,0,0,72.75,231v13.6a63.66,63.66,0,0,0,39.31,58.81c12.86-3.93,22.45-14.38,28.33-23.32a63.13,63.13,0,0,0,10.36-34.81V231a5.89,5.89,0,0,0-3.57-5.41L114,211.48A5.85,5.85,0,0,0,109.45,211.48Z"/><circle class="cls-8" cx="111.76" cy="252.91" r="21.71"/><circle class="cls-3" cx="111.75" cy="245.1" r="9.01"/><path class="cls-3" d="M95.3,267.05a17.6,17.6,0,0,1,16.11-10,19.15,19.15,0,0,1,16.82,10s-5.31,7.87-17,7.58A20.56,20.56,0,0,1,95.3,267.05Z"/><path class="cls-6" d="M133.45,252.91a2,2,0,0,1,0-.35,5.13,5.13,0,0,0-.08-1v-.76c0-.28-.1-.58-.14-.95a15.48,15.48,0,0,0-.46-2.23,21.13,21.13,0,0,0-2.41-5.74,21.79,21.79,0,0,0-5.5-6.1,21.46,21.46,0,0,0-20.34-3,20.46,20.46,0,0,0-2.84,1.23A22.74,22.74,0,0,0,99,235.63a26.56,26.56,0,0,0-2.43,2.07,22.67,22.67,0,0,0-2.1,2.49,20.89,20.89,0,0,0-3.06,5.91,21.23,21.23,0,0,0,0,13.55,20.77,20.77,0,0,0,3.06,5.91,24.71,24.71,0,0,0,2.1,2.49A25,25,0,0,0,99,270.11a19.56,19.56,0,0,0,5.43,2.93,21.5,21.5,0,0,0,25.84-9.16,21,21,0,0,0,2.38-5.7,17.08,17.08,0,0,0,.45-2.24c0-.32.11-.62.14-.95a6.19,6.19,0,0,0,0-.75l.09-1a2,2,0,0,1,0-.35,2,2,0,0,1,0,.35V255c0,.28-.08.59-.12.95a14.29,14.29,0,0,1-.42,2.26,20.41,20.41,0,0,1-2.36,5.83,21.8,21.8,0,0,1-26.23,9.48,23.09,23.09,0,0,1-2.84-1.25,22.53,22.53,0,0,1-2.67-1.78,22.87,22.87,0,0,1-2.5-2.11,25,25,0,0,1-2.1-2.5,21.36,21.36,0,0,1-3.15-6,23.65,23.65,0,0,1-1.13-6.93A23.34,23.34,0,0,1,91,246a21,21,0,0,1,3.14-6,24.78,24.78,0,0,1,2.16-2.54,22.76,22.76,0,0,1,2.49-2.11,23.21,23.21,0,0,1,2.64-1.75,24.78,24.78,0,0,1,2.84-1.26,21.74,21.74,0,0,1,26.25,9.48,20.53,20.53,0,0,1,2.36,5.83,13.4,13.4,0,0,1,.41,2.26c0,.33.11.63.13,1v1.8A1.55,1.55,0,0,1,133.45,252.91Z"/><path class="cls-6" d="M150.64,241.6a3.38,3.38,0,0,1,.07.63c0,.46,0,1.05.07,1.8a16.69,16.69,0,0,1,0,2.84v1.79a11.48,11.48,0,0,1-.12,2c-.13,1.39-.23,2.92-.52,4.55-.13.82-.23,1.66-.4,2.52s-.38,1.75-.57,2.66a65.64,65.64,0,0,1-3.79,11.42,66.9,66.9,0,0,1-5.94,10.49c-1.1,1.49-2.11,2.93-3.21,4.17-.53.62-1,1.26-1.54,1.82l-1.51,1.59c-1,1.05-1.9,1.89-2.71,2.64a27.79,27.79,0,0,1-2.15,1.9l-1.4,1.13a3,3,0,0,1-.51.36,3.64,3.64,0,0,1,.45-.43l1.34-1.21c.59-.51,1.3-1.14,2.08-1.89s1.72-1.63,2.64-2.68l1.48-1.61c.51-.56.95-1.2,1.52-1.82,1.07-1.24,2.06-2.68,3.15-4.18a69.21,69.21,0,0,0,5.86-10.42,66.84,66.84,0,0,0,3.79-11.37l.58-2.63c.17-.86.29-1.7.43-2.51.3-1.61.42-3.13.57-4.51.08-.7.14-1.36.16-2l.09-1.78c.08-1.1.06-2.06.06-2.84v-1.8A3.43,3.43,0,0,1,150.64,241.6Z"/></g><g id="freepik--Device--inject-62"><path class="cls-6" d="M381,487.78H157a11.17,11.17,0,0,1-11-11.36h0V134a11.17,11.17,0,0,1,11-11.37H381A11.16,11.16,0,0,1,392,134V476.43a11.17,11.17,0,0,1-11,11.35Z"/><path class="cls-9" d="M273.29,471.17a10.42,10.42,0,1,1-10.6-10.24h.18A10.32,10.32,0,0,1,273.29,471.17Z"/><path class="cls-9" d="M294.2,141.93H244a3.56,3.56,0,0,1-3.51-3.62h0a3.58,3.58,0,0,1,3.51-3.63H294.2a3.58,3.58,0,0,1,3.51,3.63h0a3.56,3.56,0,0,1-3.51,3.62Z"/><rect class="cls-3" x="153.56" y="148.68" width="230.47" height="304.94"/><rect class="cls-2" x="374.19" y="148.68" width="9.83" height="304.94"/><path class="cls-1" d="M379.1,258.24h0a3.06,3.06,0,0,1-3.06-3.07V187.73a3.07,3.07,0,0,1,3.06-3.07h0a3.06,3.06,0,0,1,3.07,3.07v67.44A3.06,3.06,0,0,1,379.1,258.24Z"/><path class="cls-1" d="M354,218.08H184a4.89,4.89,0,0,1-4.89-4.89h0A4.89,4.89,0,0,1,184,208.3H354a4.89,4.89,0,0,1,4.89,4.89h0a4.89,4.89,0,0,1-4.89,4.89Z"/><path class="cls-7" d="M327.83,182.38H220.93a4.89,4.89,0,0,1-4.89-4.89h0a4.88,4.88,0,0,1,4.89-4.88h106.9a4.88,4.88,0,0,1,4.89,4.88h0a4.89,4.89,0,0,1-4.89,4.89Z"/><path class="cls-1" d="M329.84,237.76H208.17a4.89,4.89,0,0,1-4.89-4.89h0a4.89,4.89,0,0,1,4.89-4.89H329.84a4.88,4.88,0,0,1,4.88,4.89h0a4.88,4.88,0,0,1-4.88,4.89Z"/><path class="cls-1" d="M274.9,323.55H181.29a4.89,4.89,0,0,1-4.89-4.89h0a4.89,4.89,0,0,1,4.89-4.89H274.9a4.89,4.89,0,0,1,4.89,4.89h0a4.89,4.89,0,0,1-4.89,4.89Z"/><path class="cls-1" d="M351.22,303.06H181.29a4.89,4.89,0,0,1-4.89-4.89h0a4.88,4.88,0,0,1,4.88-4.88H351.22a4.88,4.88,0,0,1,4.89,4.87h0a4.89,4.89,0,0,1-4.89,4.89Z"/><path class="cls-1" d="M202.48,359.22H351.22a4.89,4.89,0,0,1,4.89,4.89h0a4.89,4.89,0,0,1-4.89,4.89H202.48a4.89,4.89,0,0,1-4.89-4.89h0A4.89,4.89,0,0,1,202.48,359.22Z"/><path class="cls-1" d="M351.22,389.87H181.29A4.89,4.89,0,0,1,176.4,385h0a4.89,4.89,0,0,1,4.89-4.87H351.22a4.89,4.89,0,0,1,4.89,4.89h0A4.89,4.89,0,0,1,351.22,389.87Z"/><path class="cls-1" d="M351.22,411.11H181.29a4.89,4.89,0,0,1-4.89-4.89h0a4.89,4.89,0,0,1,4.89-4.89H351.22a4.89,4.89,0,0,1,4.89,4.89h0a4.89,4.89,0,0,1-4.89,4.89Z"/><path class="cls-7" d="M188.93,364.11a5.08,5.08,0,1,1-5.07-5.08h0A5.08,5.08,0,0,1,188.93,364.11Z"/><path class="cls-1" d="M351.22,284H202.47a4.89,4.89,0,0,1-4.89-4.89h0a4.89,4.89,0,0,1,4.89-4.89H351.22a4.89,4.89,0,0,1,4.89,4.89h0a4.89,4.89,0,0,1-4.89,4.89Z"/><circle class="cls-7" cx="183.87" cy="279.08" r="5.08"/><path class="cls-7" d="M346.47,442.19H308.34a7.78,7.78,0,0,1-7.79-7.78h0a7.79,7.79,0,0,1,7.79-7.79h38.13a7.79,7.79,0,0,1,7.79,7.79h0a7.78,7.78,0,0,1-7.79,7.78Z"/></g><g id="freepik--Padlock--inject-62"><path class="cls-7" d="M150,74.71,110.5,94.54a8,8,0,0,0-4.88,7.37V120.4a85.73,85.73,0,0,0,14.1,47.37c7.12,10.82,16.56,24.69,32.27,32.61h7.09c17.49-5.33,30.55-19.55,38.53-31.71a85.73,85.73,0,0,0,14.1-47.37V101.91a8,8,0,0,0-4.84-7.37L161.81,75.32C159.8,74.5,152,73.86,150,74.71Z"/><path class="cls-8" d="M150,74.71,110.5,94.54a8,8,0,0,0-4.88,7.37V120.4a85.73,85.73,0,0,0,14.1,47.37c7.12,10.82,16.56,24.69,32.27,32.61h7.09c17.49-5.33,30.55-19.55,38.53-31.71a85.73,85.73,0,0,0,14.1-47.37V101.91a8,8,0,0,0-4.84-7.37L161.81,75.32C159.8,74.5,152,73.86,150,74.71Z"/><path class="cls-7" d="M148.43,75.32l-45,19.22a8,8,0,0,0-4.87,7.37V120.4a86.59,86.59,0,0,0,53.46,80c17.49-5.33,30.55-19.55,38.53-31.71a85.72,85.72,0,0,0,14.09-47.37V101.91a8,8,0,0,0-4.86-7.37l-45-19.22A8.09,8.09,0,0,0,148.43,75.32Z"/><path class="cls-6" d="M204.47,116.32a.81.81,0,0,1,0,.22v.63c0,.61.05,1.42.09,2.46a38.09,38.09,0,0,1,0,3.87c0,.76,0,1.56-.08,2.42v1.32a13,13,0,0,1-.13,1.4c-.19,1.89-.31,4-.71,6.18-.18,1.1-.32,2.26-.55,3.42s-.51,2.37-.78,3.6a88.27,88.27,0,0,1-5.2,15.53,93,93,0,0,1-8.05,14.26c-1.5,2-2.84,4-4.36,5.68-.73.86-1.39,1.72-2.1,2.48l-2,2.18c-1.27,1.42-2.58,2.54-3.67,3.6-.56.51-1.06,1-1.54,1.43L174,188.07l-1.89,1.55-.5.4-.18.11s0,0,.14-.16l.47-.42,1.83-1.62,1.34-1.17c.48-.43.94-.95,1.51-1.46,1.07-1.06,2.35-2.2,3.6-3.63l2-2.2c.7-.75,1.36-1.62,2.07-2.47,1.46-1.68,2.84-3.65,4.3-5.68a93.48,93.48,0,0,0,8-14.21,92.25,92.25,0,0,0,5.21-15.44c.27-1.22.53-2.41.79-3.57s.38-2.31.57-3.41c.42-2.2.56-4.27.77-6.16.05-.46.1-1,.15-1.37s0-.89.06-1.32c0-.85.07-1.66.11-2.41.1-1.51.07-2.85.07-3.87v-3A.78.78,0,0,1,204.47,116.32Z"/><path class="cls-2" d="M169.41,141.17h-4.8V115a11.16,11.16,0,0,0-22.32,0v26.14h-4.8V115a16,16,0,0,1,31.92,0Z"/><rect class="cls-3" x="131.95" y="123.43" width="43.01" height="33.71" rx="5.5"/><path class="cls-6" d="M169.46,157.14a11.53,11.53,0,0,0,1.43-.24,5.47,5.47,0,0,0,4-5.31v-23a5.31,5.31,0,0,0-3.13-4.44,6.32,6.32,0,0,0-3-.46H137.45a5.25,5.25,0,0,0-5.11,4,6.8,6.8,0,0,0-.16,1.74v18.86c.09,2.14-.36,4.34.74,6a5.33,5.33,0,0,0,4.79,2.63h10.66l15.43.08h5.28a2.41,2.41,0,0,1,.38,0H163.8l-15.43.08H137.71a5.75,5.75,0,0,1-6-5.47V129.46a7.47,7.47,0,0,1,.16-1.89,5.68,5.68,0,0,1,2-3.13,5.75,5.75,0,0,1,3.58-1.25h31.21a6.65,6.65,0,0,1,3.12.51,5.71,5.71,0,0,1,3.36,4.8v23.07a5.55,5.55,0,0,1-.84,2.94A5.41,5.41,0,0,1,171,157,4,4,0,0,1,169.46,157.14Z"/><path class="cls-7" d="M156.75,141.16a4.64,4.64,0,0,0,1.37-3.3,4.74,4.74,0,1,0-6,4.53l-1,4.49h4.5l-1-4.49a4.66,4.66,0,0,0,2.07-1.23"/></g><g id="freepik--Character--inject-62"><path class="cls-10" d="M450.19,175v38.39c.08,6.64,1.06,17.06-9.48,16.72h0c-9.08-.95-11.5-9.6-11.57-15.8,0-2.93-.06-5.39-.09-5.68,0,0-9.95-.82-10.79-10.65-.41-4.74-.45-14.6-.38-23.52a18.38,18.38,0,0,1,17.05-18.17l.95-.06C446.18,156,450.36,164.69,450.19,175Z"/><path class="cls-11" d="M429.08,208.59a23.82,23.82,0,0,0,12.53-4.74s-2.59,7.42-12.48,7.25Z"/><path class="cls-6" d="M434.72,178.46c.19.2,1.33-.72,3-.76s2.84.76,3.05.55-.11-.46-.65-.83a4.1,4.1,0,0,0-2.45-.7,4,4,0,0,0-2.37.86C434.78,178,434.62,178.37,434.72,178.46Z"/><path class="cls-6" d="M434.69,183.11a1.31,1.31,0,0,0,1.38,1.25,1.27,1.27,0,0,0,1.28-1.26v0a1.34,1.34,0,0,0-1.37-1.26,1.29,1.29,0,0,0-1.29,1.29Z"/><path class="cls-6" d="M430.59,190a9.9,9.9,0,0,0-2.49-.26c-.39,0-.76-.07-.84-.32a2,2,0,0,1,.17-1.17c.3-1,.61-2,.95-3,1.28-4.3,2.18-7.83,2-7.88s-1.36,3.4-2.64,7.7c-.3,1.06-.6,2.07-.88,3a2.15,2.15,0,0,0-.08,1.52.93.93,0,0,0,.67.53,3.64,3.64,0,0,0,.66,0A10.73,10.73,0,0,0,430.59,190Z"/><path class="cls-6" d="M435.42,171.45c.16.37,1.47.09,3.06.17s2.84.43,3.06.08c.07-.16-.17-.51-.7-.83a5.19,5.19,0,0,0-4.67-.19C435.62,171,435.35,171.28,435.42,171.45Z"/><path class="cls-6" d="M419.77,173.91c.18.31,1.46,0,3-.07s2.84.15,3-.16c.07-.16-.19-.42-.73-.66a5.49,5.49,0,0,0-2.3-.38,5.74,5.74,0,0,0-2.3.57C420,173.49,419.7,173.77,419.77,173.91Z"/><path class="cls-6" d="M404.88,165.6a1.53,1.53,0,0,1,.75-.94,4.8,4.8,0,0,1,2.51-.41,14.18,14.18,0,0,0,7.39-2.25,32.61,32.61,0,0,1,3.44-4.16c3-3.07,5.43-5.17,8-6.19,3.27-1.32,8.76-1.9,12.18-1s6.49,3.68,7,7.17c1.9-1.62,4.8-1.6,7.14-.66h0c2.6.95,4.08,3.68,4.85,6.33s1.1,5.49,2.5,7.87c.29.49.64,1.09.39,1.61a1.11,1.11,0,0,1-1.15.5,3.33,3.33,0,0,1-1.21-.55c.29.7.57,1.39.87,2.08a6.07,6.07,0,0,1-2.84-.18,62,62,0,0,1-1.85,7,4.14,4.14,0,0,0-2.76.67c-.95.83-1.32,2.37-2.84,1.79-.77-.31-1.47-1.9-1.73-2.7a38.45,38.45,0,0,1-1.66-16.29,12.54,12.54,0,0,0-3.79-2.75l.11.11c-2.75-.95-5.85-1.9-8.46-.61-2,1-3.2,3.1-4.74,4.74A15.35,15.35,0,0,1,418,172c-.14,2.77.09,6.68-.05,9.48L415.59,177h0c-.19-.31-.35-.62-.51-.95V176h0a15.44,15.44,0,0,0-.78-1.58h0a1.73,1.73,0,0,1-2.53-2.31,3.72,3.72,0,0,1,.83-.85,2.72,2.72,0,0,1-2.6.68,2.16,2.16,0,0,1-1.52-2.13,1.86,1.86,0,0,1,1.09-1.46,6.1,6.1,0,0,1-3.5-.77C405.31,167.13,404.63,166.48,404.88,165.6Z"/><path class="cls-9" d="M443,159a7,7,0,0,1,.94.95,6.94,6.94,0,0,1,1.51,3.26,12.34,12.34,0,0,1,.26,2.5c0,1-.07,1.89-.15,2.9a24.69,24.69,0,0,0-.06,3.22,9.77,9.77,0,0,0,.22,1.7,3.46,3.46,0,0,0,.69,1.65,1.49,1.49,0,0,0,1.39.47A2.17,2.17,0,0,0,449,175a5,5,0,0,0,1-2.5h-.2a8.19,8.19,0,0,0,1.19,2.07,3,3,0,0,0,1.9,1,1.84,1.84,0,0,0,1-.18,1.56,1.56,0,0,0,.69-.68,1.67,1.67,0,0,0,.21-.87,1.19,1.19,0,0,0-.32-.76l-.1.09a6.36,6.36,0,0,0,2.11,1.59,5.63,5.63,0,0,0,.65.25l.24.06-.22-.1c-.15-.06-.37-.15-.63-.28a6.57,6.57,0,0,1-2.05-1.61l-.1.09a1.26,1.26,0,0,1,.06,1.46,1.41,1.41,0,0,1-.61.6,1.74,1.74,0,0,1-.95.15,2.76,2.76,0,0,1-1.78-.95,8.18,8.18,0,0,1-1.15-2l-.14-.32-.07.34a5,5,0,0,1-.94,2.39,2.13,2.13,0,0,1-1.12.63,1.26,1.26,0,0,1-1.19-.39,3.22,3.22,0,0,1-.63-1.55,11.43,11.43,0,0,1-.23-1.66,26.26,26.26,0,0,1,.07-3.2c.05-1,.12-2,.11-2.91a12,12,0,0,0-.28-2.53,7,7,0,0,0-1.6-3.3A4.13,4.13,0,0,0,443,159Z"/><path class="cls-9" d="M412.56,168.58l.08.07.25.18a3.62,3.62,0,0,0,.41.27c.2.11.4.22.6.31a8.7,8.7,0,0,0,4.21.76A11.15,11.15,0,0,0,424,168a18.88,18.88,0,0,0,5.09-5.87c.73-1.19,1.3-2.41,1.9-3.53a13.32,13.32,0,0,1,2.27-3,6.69,6.69,0,0,1,2.85-1.72,4.41,4.41,0,0,1,1.49-.17A5.24,5.24,0,0,1,439,154a5.67,5.67,0,0,1,3.16,2.67,6,6,0,0,1,.5,1.48V158a.88.88,0,0,0,0-.31,5,5,0,0,0-.38-1.11,5.69,5.69,0,0,0-3.18-2.78,5.35,5.35,0,0,0-1.42-.29,4.8,4.8,0,0,0-1.55.17,6.77,6.77,0,0,0-2.93,1.75,12.59,12.59,0,0,0-2.24,3c-.66,1.14-1.24,2.35-2,3.53a19.12,19.12,0,0,1-5,5.82,11,11,0,0,1-5.81,2.21,8.85,8.85,0,0,1-4.16-.68A13.5,13.5,0,0,1,412.56,168.58Z"/><path class="cls-9" d="M411.66,164.26a3.59,3.59,0,0,0,.36.25,7.82,7.82,0,0,0,1,.53,10.62,10.62,0,0,0,3.77.82,11.73,11.73,0,0,0,2.13-.14,9.89,9.89,0,0,0,1.68-.44,7.3,7.3,0,0,0,1.08-.46,2,2,0,0,0,.37-.22s-.56.24-1.5.53a13.46,13.46,0,0,1-1.67.38,12.1,12.1,0,0,1-2.08.12,13.27,13.27,0,0,1-2.08-.25,11.91,11.91,0,0,1-1.64-.5C412.21,164.53,411.68,164.22,411.66,164.26Z"/><path class="cls-6" d="M419.71,178.46c.19.2,1.32-.72,3-.76s2.85.76,3.05.55-.12-.46-.65-.83a4.1,4.1,0,0,0-2.45-.7,4,4,0,0,0-2.36.86C419.76,178,419.6,178.37,419.71,178.46Z"/><path class="cls-6" d="M421.39,183.11a1.32,1.32,0,0,0,1.37,1.25,1.28,1.28,0,0,0,1.29-1.27v0a1.35,1.35,0,0,0-1.39-1.26,1.29,1.29,0,0,0-1.28,1.28Z"/><path class="cls-10" d="M449.93,182.31c.16-.09,6.63-2.49,6.89,4.24s-6.55,5.62-6.57,5.43S449.93,182.31,449.93,182.31Z"/><path class="cls-11" d="M452.25,189.35l.32.16a1.24,1.24,0,0,0,.89,0,2.91,2.91,0,0,0,1.23-2.66,3.86,3.86,0,0,0-.39-1.67,1.33,1.33,0,0,0-.95-.86.59.59,0,0,0-.67.35c-.09.19,0,.32-.08.34s-.14-.11-.1-.39a.83.83,0,0,1,.24-.44,1,1,0,0,1,.65-.2,1.69,1.69,0,0,1,1.27,1,3.9,3.9,0,0,1,.48,1.89c0,1.36-.62,2.66-1.59,3a1.28,1.28,0,0,1-1.08-.13C452.25,189.51,452.19,189.36,452.25,189.35Z"/><path class="cls-6" d="M435.39,191.31c.05,0,.05.4-.17.95a4.18,4.18,0,0,1-1.56,1.8,3.81,3.81,0,0,1-2.25.64,1.59,1.59,0,0,1-1-.31,4.81,4.81,0,0,1,1,0,4.36,4.36,0,0,0,2-.69,4.8,4.8,0,0,0,1.5-1.54C435.2,191.64,435.31,191.29,435.39,191.31Z"/><path class="cls-9" d="M469.31,457.69l2,22.74L478.44,498a2.31,2.31,0,0,1-1.34,3c-.09,0-.18.06-.27.09h0a2.62,2.62,0,0,1-2.24-.38c-4.06-3-18.72-13.83-18.88-15.25-.21-1.83-3.95-24.22-3.95-24.22Z"/><path class="cls-6" d="M476.89,501.12,455.36,482.9l.22,1.68c.14.95.16,1.42.8,2a204.23,204.23,0,0,0,18,14.54,3,3,0,0,0,2.47,0Z"/><path class="cls-3" d="M459.55,475.79a1.38,1.38,0,0,1,.62,1.8,1.5,1.5,0,0,1-1.89.6,1.47,1.47,0,0,1-.65-1.9,1.56,1.56,0,0,1,2-.4"/><path class="cls-6" d="M470.2,491.74c.14.05.55-1.2,1.89-2a8.17,8.17,0,0,1,2.72-.79c0-.06-.31-.2-.88-.22a4,4,0,0,0-2.13.58,3.64,3.64,0,0,0-1.46,1.55C470.13,491.39,470.13,491.73,470.2,491.74Z"/><path class="cls-6" d="M472.26,494.61a20.44,20.44,0,0,1,2-1.19,20.15,20.15,0,0,1,2.33-.52,2.88,2.88,0,0,0-2.53.06C472.71,493.49,472.15,494.56,472.26,494.61Z"/><path class="cls-6" d="M466.55,488.16a24.29,24.29,0,0,1,3-2,25.58,25.58,0,0,1,3.5-1.15,5.8,5.8,0,0,0-3.74.7A5.48,5.48,0,0,0,466.55,488.16Z"/><path class="cls-6" d="M465.33,481.29c.07.13,1.35-.53,3.08-.76s3.15,0,3.19-.13a5.05,5.05,0,0,0-3.27-.37A4.86,4.86,0,0,0,465.33,481.29Z"/><path class="cls-6" d="M464.57,474.62a8.35,8.35,0,0,1,6.48-.44c0-.06-.26-.31-.85-.56a5.67,5.67,0,0,0-2.48-.38,5.4,5.4,0,0,0-2.38.71C464.77,474.27,464.51,474.57,464.57,474.62Z"/><path class="cls-6" d="M467.55,472.47a2.46,2.46,0,0,0-.05-.86,6.07,6.07,0,0,0-.95-2.18,2.79,2.79,0,0,0-1.35-1.14,1,1,0,0,0-1.1.32,1.45,1.45,0,0,0-.26,1.07,3.46,3.46,0,0,0,3.41,2.74A4.1,4.1,0,0,0,471,470a1.27,1.27,0,0,0-.06-1.11,1,1,0,0,0-1.08-.39,3.6,3.6,0,0,0-1.5,1,6.76,6.76,0,0,0-1.45,1.9,2,2,0,0,0-.29.82,11.17,11.17,0,0,1,2-2.49,3.3,3.3,0,0,1,1.33-.8.55.55,0,0,1,.59.21.93.93,0,0,1,0,.73,3.69,3.69,0,0,1-3.29,2.05,3,3,0,0,1-2.94-2.3,1,1,0,0,1,.15-.74.55.55,0,0,1,.61-.18,2.55,2.55,0,0,1,1.16.94A8.47,8.47,0,0,1,467.55,472.47Z"/><path class="cls-9" d="M412,458.87l.89,19.28s-20.55,7.33-20.75,10.91l39.84-.29-.09-30.1Z"/><path class="cls-1" d="M425.15,476.43a1.54,1.54,0,0,1,1.13,1.75,1.56,1.56,0,0,1-1.82,1.07,1.6,1.6,0,0,1-1.19-1.84,1.65,1.65,0,0,1,2-1"/><path class="cls-6" d="M431.93,488.77l-.13-3-38.16,1.41s-1.76.74-1.55,1.89Z"/><path class="cls-6" d="M412.2,478c0,.18.94.25,1.89.83s1.48,1.35,1.66,1.27-.13-1.13-1.3-1.81S412.15,477.8,412.2,478Z"/><path class="cls-6" d="M408,479.62c0,.18.8.48,1.46,1.25s.88,1.59,1.07,1.58.31-1.05-.54-2S408,479.45,408,479.62Z"/><path class="cls-6" d="M405.7,484.34c.18,0,.43-.88-.07-1.9s-1.42-1.38-1.51-1.23.5.68.89,1.51S405.51,484.33,405.7,484.34Z"/><path class="cls-6" d="M412.51,473.55c.08.17.95-.09,2.07,0s2,.37,2.06.22-.72-.8-2-.86S412.46,473.4,412.51,473.55Z"/><path class="cls-6" d="M405,320.4c0,1.11,4.63,155.24,4.63,155.24h24.63l5-131.84s5.83,68.93,5.83,70.42,5.13,62.16,5.13,62.16l22.84-1.75-1.51-138.76-2.78-20.35Z"/><path class="cls-9" d="M441.83,338.92a4,4,0,0,1-1,.39c-.66.23-1.62.54-2.79.95l-.22.07v-.22c-.13-1.85-.29-4.33-.43-7.05-.16-2.95-.28-5.61-.34-7.58,0-1,0-1.75,0-2.29a2.63,2.63,0,0,1,.05-.84,3.35,3.35,0,0,1,.14.83c.06.54.13,1.33.2,2.28.15,1.9.32,4.6.47,7.58.15,2.72.26,5.2.31,7.06L438,340c1.19-.33,2.16-.6,2.84-.77A5.18,5.18,0,0,1,441.83,338.92Z"/><path class="cls-9" d="M439.94,322.9a.55.55,0,0,1,.33-.21,1.61,1.61,0,0,1,1.08.09,1.26,1.26,0,0,1,.82,1.26,1.55,1.55,0,0,1-1.29,1.4,1.9,1.9,0,0,1-1.82-.76,1.35,1.35,0,0,1,0-1.47,1.67,1.67,0,0,1,.82-.64c.25-.08.39-.06.4,0a1.83,1.83,0,0,0-.9.82,1,1,0,0,0,.05,1.12,1.45,1.45,0,0,0,1.34.55,1.21,1.21,0,0,0,1-.95,1,1,0,0,0-.54-.95A2.06,2.06,0,0,0,439.94,322.9Z"/><path class="cls-9" d="M451.25,324.5c-.13,0-.32-.67-.42-1.5s-.07-1.53.07-1.54.32.66.41,1.49S451.38,324.5,451.25,324.5Z"/><path class="cls-9" d="M453,324.32c-.13,0-.24-.71-.24-1.6s.09-1.59.23-1.59.25.71.25,1.59S453.1,324.32,453,324.32Z"/><path class="cls-9" d="M423.27,325.38a3.78,3.78,0,0,1-.46-1.78,3.84,3.84,0,0,1,0-1.84,4,4,0,0,1,.46,1.79C423.39,324.55,423.4,325.37,423.27,325.38Z"/><path class="cls-9" d="M425.35,325.53a2.67,2.67,0,0,1-.61-1.9,2.64,2.64,0,0,1,.43-1.89c.14,0,0,.87.06,1.89A7.47,7.47,0,0,1,425.35,325.53Z"/><path class="cls-9" d="M417.56,323.47a2,2,0,0,1-.09.68A12.74,12.74,0,0,1,417,326a18.73,18.73,0,0,1-3.05,5.49,21.1,21.1,0,0,1-4.81,4.38,16.81,16.81,0,0,1-1.75,1,3.52,3.52,0,0,1-.69.3c0-.06.89-.55,2.25-1.53a23.22,23.22,0,0,0,4.64-4.38,21.54,21.54,0,0,0,3.12-5.35C417.26,324.4,417.48,323.45,417.56,323.47Z"/><path class="cls-9" d="M470.8,333.86a2.67,2.67,0,0,1-.75.11,11.81,11.81,0,0,1-2.06,0,14.13,14.13,0,0,1-6.31-2.2,12,12,0,0,1-4.2-4.73,9,9,0,0,1-.64-1.76,1.83,1.83,0,0,1-.11-.66c.08,0,.29.95,1,2.3a12.79,12.79,0,0,0,4.17,4.54A14.82,14.82,0,0,0,468,333.7C469.72,333.89,470.79,333.78,470.8,333.86Z"/><path class="cls-9" d="M430.68,411.91c0,.1-4.11-.79-9.11-2s-9-2.25-9-2.35,4.12.77,9.12,2S430.71,411.8,430.68,411.91Z"/><path class="cls-9" d="M470.36,406.3c.05.09-3.5,1.94-7.93,4.14s-8.09,3.89-8.15,3.79,3.5-2,7.93-4.14S470.3,406.2,470.36,406.3Z"/><path class="cls-10" d="M393.06,268.21l3.36,4.22v-7.25H407s1.18,16.59,1,20.12a27.88,27.88,0,0,1-1.3,5.41,6.22,6.22,0,0,1-7.79,4.1,6.3,6.3,0,0,1-2.54-1.52,37.51,37.51,0,0,1-3.31-3.7c-4.74-6.06-12.55-20.84-12.55-20.84l8.19-4.89Z"/><path class="cls-11" d="M392.38,267.43a13,13,0,0,0,1.39,1.9c1,1.11,2.14,2.63,3.55,4.28s2.76,3.11,3.79,4.1a7.44,7.44,0,0,0,1.8,1.46,17.86,17.86,0,0,0-1.55-1.7c-.95-1.05-2.26-2.53-3.67-4.18C394.9,269.93,392.51,267.32,392.38,267.43Z"/><polygon class="cls-10" points="417.25 217.25 428.44 212.85 449.05 211.69 458.73 215.37 445.46 222.74 434.01 222.33 417.25 217.25"/><path class="cls-9" d="M404.06,322.51c1,.17,68.52,3,68.52,3l-2.33-60.74-.2-11.92-3.79-36.11s-10.1-3.47-15.24-5.13c0,0-5.42,5.68-15.73,5.49-10.07-.14-12.17-2.41-12.17-2.41L409,220.13s-10,3.59-11.74,8-4.74,29-4.74,29h14.6l-.38,43.55Z"/><g class="cls-12"><polyline points="446.51 241.48 448.6 256.79 458.73 261.31 466.22 254.94 466.22 240.73 446.51 241.48"/></g><path class="cls-6" d="M466,245.86c0,.12-4.2.23-9.4.23s-9.4-.11-9.4-.23a92.19,92.19,0,0,1,9.4-.24A92.12,92.12,0,0,1,466,245.86Z"/><path class="cls-6" d="M399.51,234.49a1.91,1.91,0,0,1,.11.41c.07.3.15.68.27,1.16a37.12,37.12,0,0,0,1.34,4.31c.68,1.81,1.62,3.95,2.79,6.33a76.83,76.83,0,0,1,3.13,8.27h0c0,3.64,0,7.58-.08,11.78-.1,9.29-.19,17.69-.25,23.82-.05,3-.09,5.47-.13,7.22,0,.81,0,1.47-.06,2a3.82,3.82,0,0,1,0,.68,4,4,0,0,1,0-.69v-9.18c0-6.13.07-14.53.12-23.81,0-4.16.08-8.14.1-11.78V255c-1-3-2-5.84-3.05-8.26a69.15,69.15,0,0,1-2.71-6.39,34.76,34.76,0,0,1-1.24-4.35c-.09-.53-.17-.95-.21-1.2A2,2,0,0,1,399.51,234.49Z"/><path class="cls-6" d="M471.09,227.4a9.4,9.4,0,0,1,0,1.3c0,1-.08,2.11-.14,3.53-.12,3.05-.28,7.12-.46,11.62s-.39,8.59-.52,11.64c-.09,1.42-.15,2.6-.21,3.52a7,7,0,0,1-.13,1.29,7.06,7.06,0,0,1,0-1.3c0-.95,0-2.1.06-3.52.08-3,.21-7.1.4-11.64s.4-8.66.59-11.62c.09-1.49.19-2.69.27-3.53A7.07,7.07,0,0,1,471.09,227.4Z"/><g class="cls-13"><path d="M399.55,236.72a25.3,25.3,0,0,0,6.63,18.08C404.81,248.54,401.38,242.72,399.55,236.72Z"/></g><g class="cls-13"><path d="M429.2,296.81a12.59,12.59,0,0,0,8.1-4.51,38.12,38.12,0,0,0,5.45-7.87A31.05,31.05,0,0,0,445.93,272C442,282.58,436.24,290.92,429.2,296.81Z"/></g><path class="cls-6" d="M447.18,267.44a1.74,1.74,0,0,1-.05.39c-.07.3-.16.66-.25,1.1s-.25,1.05-.45,1.72-.41,1.42-.72,2.24a51.08,51.08,0,0,1-2.33,5.69,53.94,53.94,0,0,1-8.29,12.47,45.48,45.48,0,0,1-4.35,4.32c-.64.6-1.27,1.07-1.81,1.51s-1,.79-1.42,1.06l-.95.64c-.22.13-.33.2-.34.18a1.73,1.73,0,0,1,.28-.26l.88-.7q.58-.44,1.38-1.11c.52-.45,1.13-.95,1.76-1.54a58.3,58.3,0,0,0,4.25-4.36,64.86,64.86,0,0,0,4.52-5.93A66.72,66.72,0,0,0,443,278.4a59.8,59.8,0,0,0,2.39-5.59c.32-.81.55-1.57.77-2.22s.4-1.22.53-1.69.23-.77.32-1.07S447.16,267.43,447.18,267.44Z"/><path class="cls-6" d="M445.23,248.44a4.2,4.2,0,0,1-.08.62c-.08.45-.18,1-.31,1.77s-.31,1.69-.58,2.76-.53,2.31-.95,3.64c-.19.66-.4,1.36-.62,2.09s-.5,1.47-.76,2.24c-.51,1.56-1.19,3.17-1.9,4.88a81,81,0,0,1-12.41,20.36c-1.2,1.38-2.33,2.73-3.49,3.88-.57.59-1.1,1.18-1.65,1.7l-1.58,1.51c-.95.94-2,1.77-2.84,2.49s-1.57,1.31-2.2,1.78l-1.43,1.08a2.89,2.89,0,0,1-.51.35,4.47,4.47,0,0,1,.45-.42l1.38-1.14c.6-.49,1.34-1.08,2.15-1.83s1.78-1.55,2.76-2.54l1.55-1.52c.54-.53,1.06-1.12,1.62-1.7,1.15-1.17,2.25-2.51,3.45-3.91a84,84,0,0,0,12.39-20.25c.7-1.7,1.38-3.29,1.9-4.83.27-.78.55-1.51.78-2.23s.44-1.41.65-2.08c.43-1.31.71-2.53,1-3.61s.5-2,.65-2.74.3-1.3.39-1.75A3.22,3.22,0,0,1,445.23,248.44Z"/><path class="cls-1" d="M391.88,229.56l26,39.52a1.16,1.16,0,0,1-.33,1.62,1.18,1.18,0,0,1-.8.18l-29.94-3.79a1.17,1.17,0,0,1-.79-.47l-28.6-39.05a1.18,1.18,0,0,1,1-1.9l30.8,2.27A3.46,3.46,0,0,1,391.88,229.56Z"/><path class="cls-6" d="M391.88,229.56a1.69,1.69,0,0,0-.23-.36,3.54,3.54,0,0,0-.95-.82,4.24,4.24,0,0,0-2-.48l-2.77-.23-17.75-1.39-5.89-.46-3.12-.23h-.83a1.32,1.32,0,0,0-.86.35,1.37,1.37,0,0,0-.23,1.76l8.32,11.41c5.88,8,12.32,16.85,19.09,26.12.44.57.83,1.13,1.3,1.74a1.47,1.47,0,0,0,.53.36,2.29,2.29,0,0,0,.58.11l1.06.14,4.19.53,8.18,1L416,271c.33,0,.59.09.95.11a1.45,1.45,0,0,0,1-.41,1.39,1.39,0,0,0,.4-1,1.55,1.55,0,0,0-.36-.94l-2-3.07-3.79-5.69-6.79-10.26c-4.15-6.24-7.5-11.31-9.84-14.83l-2.7-4c-.3-.44-.54-.79-.72-1a2.88,2.88,0,0,0-.26-.35c.07.13.14.26.22.38l.67,1.06,2.62,4.08L405.1,250l6.74,10.29,3.78,5.73,2,3a1.17,1.17,0,0,1,.28.72,1,1,0,0,1-.28.66,1,1,0,0,1-.67.27c-.25,0-.6-.07-.9-.1l-15.51-2-8.18-1-4.19-.53-1-.14a2.57,2.57,0,0,1-.47-.08.92.92,0,0,1-.35-.24c-.41-.57-.83-1.13-1.25-1.7-6.78-9.25-13.26-18.06-19.12-26.09q-4.41-6-8.34-11.37a.93.93,0,0,1,.23-1.31.92.92,0,0,1,.52-.17,5.3,5.3,0,0,1,.78,0l3.13.23,5.89.42,17.81,1.23,2.79.19a4,4,0,0,1,2,.43A3.64,3.64,0,0,1,391.88,229.56Z"/><path class="cls-6" d="M357.42,227.59a2.76,2.76,0,0,0,.63.1l1.82.19,6.76.6,23,1.89-.18-.1c1.44,2.14,2.92,4.35,4.41,6.63,6.07,9.33,11.37,17.91,15.38,24,2,3.06,3.65,5.5,4.8,7.19L415.4,270a3.88,3.88,0,0,0,.5.65,6.31,6.31,0,0,0-.42-.71l-1.27-2-4.67-7.26c-3.92-6.15-9.18-14.75-15.25-24.1-1.49-2.3-3-4.51-4.44-6.63l-.06-.09h-.07l-23-1.71-6.77-.45-1.83-.11A5.3,5.3,0,0,0,357.42,227.59Z"/><path class="cls-3" d="M375.25,233.63a.6.6,0,0,1,.71-.45h0a1.67,1.67,0,0,1,.81.45.81.81,0,0,1,.14,1c-.29.37-.95.23-1.27-.07A1.08,1.08,0,0,1,375.25,233.63Z"/><path class="cls-10" d="M389.23,255.78s1.17-2.84-1.82-3.18a103.72,103.72,0,0,0-10.87,0s-4.31.45-3.4,3.54c0,0-2.54,2.27-1.17,4.74s1.89,1.72,1.89,1.72-.36,3,1.9,3.45c0,0,2.46,2.91,4.73,2.73S392.38,264,393,263.09s1.54-1.42,1-2.43c0,0,1.18-2.66-1.36-3.07C392.68,257.54,392.5,255.33,389.23,255.78Z"/><path class="cls-11" d="M375.57,256.79a8.11,8.11,0,0,0,2,.16h4.87a28.72,28.72,0,0,0,4.91-.29,2.5,2.5,0,0,0,1.75-1.08,5.52,5.52,0,0,1-1.82.73,48.26,48.26,0,0,1-4.85.14c-1.9.07-3.62.09-4.87.14A9.11,9.11,0,0,0,375.57,256.79Z"/><path class="cls-11" d="M377.71,261.34a1.67,1.67,0,0,0,.65.22,6.74,6.74,0,0,0,1.9.12,13.39,13.39,0,0,0,2.73-.5c1-.27,2.07-.66,3.2-1a14.29,14.29,0,0,1,3.23-.68,4.88,4.88,0,0,0,2.75-.55,1.56,1.56,0,0,0,.65-.94,1.35,1.35,0,0,0-.11-.86c-.24-.42-.56-.45-.55-.43a1.11,1.11,0,0,1,.37.52,1.17,1.17,0,0,1-.56,1.41,5,5,0,0,1-2.58.39,13.52,13.52,0,0,0-3.34.64l-3.19,1.06a16.91,16.91,0,0,1-2.63.58A19.27,19.27,0,0,1,377.71,261.34Z"/><path class="cls-11" d="M380.93,265.18a7.84,7.84,0,0,0,2-.39c1.23-.31,2.92-.8,4.73-1.39s3.49-1.22,4.67-1.7a7.92,7.92,0,0,0,1.89-.88c-.06-.13-3,.95-6.63,2.09A66.39,66.39,0,0,0,380.93,265.18Z"/><path class="cls-11" d="M380.16,268.74a4.15,4.15,0,0,0,1.68-.19,20.12,20.12,0,0,0,3.84-1.35c1.44-.66,2.7-1.33,3.61-1.81a6.21,6.21,0,0,0,1.44-.87,32,32,0,0,0-5.26,2.22C382.64,268.11,380.14,268.6,380.16,268.74Z"/><path class="cls-10" d="M475.87,241.65s-6.12,24.52-13.76,33.58c-7.41,8.77-19,4.74-23-6.63s-11.18-37.24-11.18-37.24l8.8-6.73,15.15,29.45L458.69,234Z"/><path class="cls-10" d="M428.3,232.06l-6.45-9.35a16.54,16.54,0,0,1-2.75-.86c-.73-.42-1.45-4.14-1.43-4.86s-1.25-2.41-.74-2.9,2.24-.51,2.14-1.2c0-.15-1.28-1.71-.27-2.84a5.24,5.24,0,0,1,1.82-.77l-.11-3.57s1.9-4.21,3.9-2.68c0,0,7.42,5.68,8.16,6.63s3.61,12.78,4.12,15"/><path class="cls-11" d="M436.69,224.65a3.44,3.44,0,0,0-.1-.63l-.39-1.78c-.34-1.55-.86-3.79-1.56-6.55-.36-1.38-.75-2.84-1.25-4.5-.12-.39-.26-.8-.43-1.22a2.73,2.73,0,0,0-.87-1.07c-.68-.6-1.39-1.18-2.12-1.78-1.47-1.18-3-2.42-4.65-3.68a6,6,0,0,0-1.37-.9,1.89,1.89,0,0,0-1.66.4,7.79,7.79,0,0,0-2,2.67h0v1.15c0,.83,0,1.67.08,2.48l.17-.22a7.72,7.72,0,0,0-1.31.43,2,2,0,0,0-.63.42,1.81,1.81,0,0,0-.36.65,2.24,2.24,0,0,0,.11,1.42,3.54,3.54,0,0,0,.3.62l.16.27v.07h0V213c0,.07-.19.19-.37.25l-.58.2a6.21,6.21,0,0,0-.61.2,1.17,1.17,0,0,0-.61.44,1,1,0,0,0,0,.75,3.07,3.07,0,0,0,.22.6c.16.38.34.74.47,1.09a1.25,1.25,0,0,1,.11.5,6,6,0,0,0,.06.61c.06.39.12.77.21,1.14a16.07,16.07,0,0,0,.6,2.16,3,3,0,0,0,.56,1,3.67,3.67,0,0,0,1,.45c.65.19,1.3.36,1.89.5l-.1-.07,4.74,6.78,1.32,1.84a5.91,5.91,0,0,0,.49.63,5.06,5.06,0,0,0-.4-.68l-1.25-1.9c-1.13-1.68-2.71-4-4.66-6.88v0h0c-.6-.16-1.24-.33-1.89-.52a3.88,3.88,0,0,1-.86-.38,2.51,2.51,0,0,1-.46-.85,15.14,15.14,0,0,1-.57-2.1c-.07-.37-.14-.74-.19-1.12V217a2,2,0,0,0-.14-.64c-.14-.39-.32-.75-.47-1.12a3.16,3.16,0,0,1-.2-.54.66.66,0,0,1,0-.44.9.9,0,0,1,.4-.23,3.93,3.93,0,0,1,.58-.19l.61-.21a1,1,0,0,0,.61-.5.7.7,0,0,0,0-.25.48.48,0,0,0,0-.17v-.08l-.16-.27a5.77,5.77,0,0,1-.27-.56,1.82,1.82,0,0,1-.09-1.13,1.29,1.29,0,0,1,.26-.49,1.72,1.72,0,0,1,.49-.29,8.48,8.48,0,0,1,1.23-.42l.17-.05v-.18c0-.81-.05-1.64-.08-2.47v-1a7.38,7.38,0,0,1,1.83-2.5A1.4,1.4,0,0,1,424,203a5.55,5.55,0,0,1,1.22.82c1.63,1.26,3.19,2.48,4.66,3.65.74.59,1.45,1.17,2.13,1.75a2.37,2.37,0,0,1,.78.94c.16.39.3.8.43,1.19.5,1.59.95,3.1,1.29,4.46l1.7,6.51c.2.73.35,1.32.47,1.76A2.57,2.57,0,0,0,436.69,224.65Z"/><path class="cls-11" d="M420.62,209.28c0,.08.75,0,1.89.13a13.91,13.91,0,0,1,2,.47,9.58,9.58,0,0,0,2.62,0,4.93,4.93,0,0,1,4.14,1.34,5.48,5.48,0,0,1,1,1.59,2.45,2.45,0,0,0-.76-1.81,4.84,4.84,0,0,0-1.78-1.25,5.57,5.57,0,0,0-2.62-.33,9.59,9.59,0,0,1-2.51,0,11.55,11.55,0,0,0-2.1-.37A4.92,4.92,0,0,0,420.62,209.28Z"/><path class="cls-11" d="M423.24,209.08c.11.06.41-.38.37-1s-.39-1-.48-1,0,.47,0,1S423.12,209,423.24,209.08Z"/><path class="cls-11" d="M418.85,213a16.46,16.46,0,0,0,5.59-.43,5.49,5.49,0,0,1,2.05-.27,2.23,2.23,0,0,1,1.34.88,11.66,11.66,0,0,1,.74,1.4,2.48,2.48,0,0,0-.47-1.61,2.41,2.41,0,0,0-1.51-1.1,5.29,5.29,0,0,0-2.24.21C421.35,212.79,418.85,212.89,418.85,213Z"/><path class="cls-11" d="M417.86,216.4a3.17,3.17,0,0,0,1.37,0c.85-.1,2-.39,3.22-.64a7.21,7.21,0,0,1,1.73-.17,2,2,0,0,1,1.24.46,2,2,0,0,1,.62,1.08.66.66,0,0,0,.07-.37,1.56,1.56,0,0,0-.46-.95,2.22,2.22,0,0,0-1.43-.64,6.72,6.72,0,0,0-1.9.15c-1.27.24-2.37.58-3.18.75A6.87,6.87,0,0,0,417.86,216.4Z"/><path class="cls-11" d="M420,219.07c-.08.05.56.72,1.71.72l-.22-.2a2,2,0,0,0,.06.6,6.54,6.54,0,0,0,.53,2.35,6.46,6.46,0,0,0-.07-2.4l-.09-.6v-.21h-.2A7.69,7.69,0,0,1,420,219.07Z"/><path class="cls-9" d="M466.19,216.82s12.53,3,12.5,19.66-3.79,24.83-3.79,24.83L451.8,248.7,457,235.79Z"/><path class="cls-6" d="M474.9,261.31a2.18,2.18,0,0,1-.47-.21l-1.34-.68-4.93-2.59L451.68,249l-.19-.1.08-.19,1.24-3.24c1.48-3.84,2.84-7.5,4.17-10.82l1.83-4.74a27.65,27.65,0,0,1,1.83-4,12.45,12.45,0,0,1,4.17-4.82,5.06,5.06,0,0,1,1.62-.65l.45-.06H467a6.3,6.3,0,0,0-2.13.87,12.5,12.5,0,0,0-4,4.83,29.14,29.14,0,0,0-1.75,4l-1.79,4.74-4.13,10.84L452,248.82l-.11-.31,16.45,9,4.85,2.73,1.3.76A2.14,2.14,0,0,1,474.9,261.31Z"/></g></svg>